<svg width="134" height="55" viewBox="0 0 134 55" fill="none" xmlns="http://www.w3.org/2000/svg">
<path d="M9.64 42.2C7.50667 42.2 5.86667 41.96 4.72 41.48C3.6 41 2.82667 40.2533 2.4 39.24C1.97333 38.2267 1.73333 36.92 1.68 35.32L0.88 13.44H4.16L4.96 34.04C5.01333 35.3467 5.13333 36.36 5.32 37.08C5.53333 37.7733 5.98667 38.2533 6.68 38.52C7.4 38.7867 8.52 38.92 10.04 38.92C10.6 38.92 11 39.08 11.24 39.4C11.5067 39.6933 11.64 40.0533 11.64 40.48C11.64 40.9067 11.4533 41.3067 11.08 41.68C10.7067 42.0267 10.2267 42.2 9.64 42.2ZM9.64062 42.2L10.0406 38.92C11.614 38.92 12.8406 38.8667 13.7206 38.76C14.6006 38.6267 15.2273 38.32 15.6006 37.84C15.974 37.3333 16.1606 36.5467 16.1606 35.48C16.1606 34.8133 16.054 34.0267 15.8406 33.12C15.6273 32.1867 15.3473 31.2 15.0006 30.16C14.654 29.12 14.2806 28.0933 13.8806 27.08L17.1206 25.88C17.4673 26.7333 17.7873 27.7067 18.0806 28.8C18.4006 29.8933 18.6673 30.9733 18.8806 32.04C19.094 33.1067 19.2006 34.04 19.2006 34.84C19.2006 36.1733 19.014 37.3067 18.6406 38.24C18.294 39.1733 17.734 39.9333 16.9606 40.52C16.1873 41.1067 15.1873 41.5333 13.9606 41.8C12.7606 42.0667 11.3206 42.2 9.64062 42.2ZM17.0406 49.76C16.4806 49.76 16.0006 49.56 15.6006 49.16C15.2273 48.7867 15.0406 48.3333 15.0406 47.8C15.0406 47.2667 15.2273 46.8 15.6006 46.4C16.0006 46 16.4806 45.8 17.0406 45.8C17.574 45.8 18.0273 46 18.4006 46.4C18.8006 46.8 19.0006 47.2667 19.0006 47.8C19.0006 48.3333 18.8006 48.7867 18.4006 49.16C18.0273 49.56 17.574 49.76 17.0406 49.76ZM11.5606 49.76C11.0006 49.76 10.5206 49.56 10.1206 49.16C9.74729 48.7867 9.56062 48.3333 9.56062 47.8C9.56062 47.2667 9.74729 46.8 10.1206 46.4C10.5206 46 11.0006 45.8 11.5606 45.8C12.094 45.8 12.5473 46 12.9206 46.4C13.3206 46.8 13.5206 47.2667 13.5206 47.8C13.5206 48.3333 13.3206 48.7867 12.9206 49.16C12.5473 49.56 12.094 49.76 11.5606 49.76ZM30.1938 38.92C31.5271 38.92 32.5804 38.7867 33.3537 38.52C34.1538 38.2533 34.7271 37.8667 35.0738 37.36C35.4471 36.8267 35.6338 36.2133 35.6338 35.52C35.6338 34.9867 35.4871 34.3467 35.1938 33.6C34.9271 32.8533 34.5538 32.0267 34.0738 31.12C33.5938 30.1867 33.0338 29.2133 32.3938 28.2C31.7804 27.16 31.1138 26.1067 30.3938 25.04L33.1538 23.24C34.1938 24.8133 35.1004 26.3067 35.8738 27.72C36.6471 29.1067 37.3004 30.4133 37.8338 31.64C38.3671 32.84 38.7938 33.9733 39.1138 35.04C39.4871 36.2133 39.9004 37.08 40.3538 37.64C40.8338 38.2 41.3271 38.56 41.8338 38.72C42.3404 38.8533 42.8071 38.92 43.2338 38.92C43.7938 38.92 44.2071 39.08 44.4738 39.4C44.7404 39.6933 44.8738 40.0533 44.8738 40.48C44.8738 40.9067 44.6871 41.3067 44.3138 41.68C43.9404 42.0267 43.4604 42.2 42.8738 42.2C41.9938 42.2 41.1271 42.04 40.2738 41.72C39.4471 41.3733 38.7271 40.8267 38.1138 40.08C37.5004 39.3067 37.0738 38.28 36.8338 37L38.4338 35.72C38.4338 36.7867 38.2071 37.8267 37.7538 38.84C37.3004 39.8267 36.4738 40.64 35.2738 41.28C34.1004 41.92 32.4071 42.24 30.1938 42.24C29.2338 42.24 28.3004 42.16 27.3938 42C26.5138 41.84 25.7004 41.6133 24.9538 41.32C24.2071 41 23.5538 40.6267 22.9938 40.2L24.5938 37.44C25.1271 37.7867 25.8738 38.12 26.8338 38.44C27.7938 38.76 28.9138 38.92 30.1938 38.92ZM30.5538 10.48C30.0738 10.48 29.5004 10.4667 28.8338 10.44C28.1938 10.3867 27.5804 10.3333 26.9938 10.28C26.4071 10.2267 25.9671 10.1867 25.6738 10.16L25.7538 7.84C26.2871 7.89333 26.9804 7.96 27.8338 8.04C28.7138 8.12 29.5271 8.16 30.2738 8.16C31.1538 8.16 31.8604 8.10667 32.3938 8C32.9538 7.86667 33.3538 7.68 33.5938 7.44C33.8604 7.2 33.9938 6.93333 33.9938 6.64C33.9938 6.26666 33.8738 6 33.6338 5.84C33.3938 5.68 33.0871 5.6 32.7138 5.6C32.1804 5.6 31.6604 5.78667 31.1538 6.16C30.6471 6.50667 30.1938 6.90667 29.7938 7.36C29.4204 7.78667 29.1404 8.13333 28.9538 8.4L26.7138 8.24C27.1671 7.36 27.7271 6.54667 28.3938 5.8C29.0604 5.02667 29.7938 4.41333 30.5938 3.96C31.3938 3.48 32.2071 3.24 33.0338 3.24C34.0471 3.24 34.8471 3.54667 35.4338 4.16C36.0204 4.77333 36.3138 5.53333 36.3138 6.44C36.3138 6.97333 36.1538 7.56 35.8338 8.2C35.5404 8.81333 34.9804 9.34667 34.1538 9.8C33.3271 10.2533 32.1271 10.48 30.5538 10.48ZM27.7938 7.84L27.5538 0.119998H29.7538L30.0738 6.8L27.7938 7.84ZM42.8828 42.2L43.2828 38.92C44.6161 38.92 45.6561 38.8267 46.4028 38.64C47.1495 38.4267 47.7095 38.04 48.0828 37.48C48.4828 36.8933 48.8028 36.0533 49.0428 34.96C49.2828 33.8667 49.5761 32.44 49.9228 30.68L53.0428 31.28C52.9361 31.76 52.8161 32.2933 52.6828 32.88C52.5495 33.4667 52.4295 34.0533 52.3228 34.64C52.2428 35.2 52.2028 35.6933 52.2028 36.12C52.2028 36.52 52.2295 36.8933 52.2828 37.24C52.3361 37.5867 52.5361 37.88 52.8828 38.12C53.2295 38.36 53.8161 38.56 54.6428 38.72C55.4695 38.8533 56.6561 38.92 58.2028 38.92C58.7628 38.92 59.1628 39.08 59.4028 39.4C59.6695 39.6933 59.8028 40.0533 59.8028 40.48C59.8028 40.9067 59.6161 41.3067 59.2428 41.68C58.8695 42.0267 58.3895 42.2 57.8028 42.2C56.1761 42.2 54.8828 42.12 53.9228 41.96C52.9628 41.7733 52.2295 41.5067 51.7228 41.16C51.2428 40.8133 50.8961 40.3867 50.6828 39.88C50.4961 39.3467 50.3495 38.7333 50.2428 38.04L51.4428 38.12C51.0161 38.9733 50.5495 39.6667 50.0428 40.2C49.5628 40.7333 49.0028 41.1467 48.3628 41.44C47.7228 41.7333 46.9495 41.9333 46.0428 42.04C45.1628 42.1467 44.1095 42.2 42.8828 42.2ZM52.9628 49.76C52.4028 49.76 51.9228 49.56 51.5228 49.16C51.1495 48.7867 50.9628 48.3333 50.9628 47.8C50.9628 47.2667 51.1495 46.8 51.5228 46.4C51.9228 46 52.4028 45.8 52.9628 45.8C53.4961 45.8 53.9495 46 54.3228 46.4C54.7228 46.8 54.9228 47.2667 54.9228 47.8C54.9228 48.3333 54.7228 48.7867 54.3228 49.16C53.9495 49.56 53.4961 49.76 52.9628 49.76ZM47.4828 49.76C46.9228 49.76 46.4428 49.56 46.0428 49.16C45.6695 48.7867 45.4828 48.3333 45.4828 47.8C45.4828 47.2667 45.6695 46.8 46.0428 46.4C46.4428 46 46.9228 45.8 47.4828 45.8C48.0161 45.8 48.4695 46 48.8428 46.4C49.2428 46.8 49.4428 47.2667 49.4428 47.8C49.4428 48.3333 49.2428 48.7867 48.8428 49.16C48.4695 49.56 48.0161 49.76 47.4828 49.76ZM57.8047 42.2L58.2047 38.92C59.538 38.92 60.578 38.8267 61.3247 38.64C62.0714 38.4267 62.6314 38.04 63.0047 37.48C63.4047 36.8933 63.7247 36.0533 63.9647 34.96C64.2047 33.8667 64.498 32.44 64.8447 30.68L67.9647 31.28C67.858 31.76 67.738 32.2933 67.6047 32.88C67.4714 33.4667 67.3514 34.0533 67.2447 34.64C67.1647 35.2 67.1247 35.6933 67.1247 36.12C67.1247 36.52 67.1514 36.8933 67.2047 37.24C67.258 37.5867 67.458 37.88 67.8047 38.12C68.1514 38.36 68.738 38.56 69.5647 38.72C70.3914 38.8533 71.578 38.92 73.1247 38.92C73.6847 38.92 74.0847 39.08 74.3247 39.4C74.5914 39.6933 74.7247 40.0533 74.7247 40.48C74.7247 40.9067 74.538 41.3067 74.1647 41.68C73.7914 42.0267 73.3114 42.2 72.7247 42.2C71.098 42.2 69.8047 42.12 68.8447 41.96C67.8847 41.7733 67.1514 41.5067 66.6447 41.16C66.1647 40.8133 65.818 40.3867 65.6047 39.88C65.418 39.3467 65.2714 38.7333 65.1647 38.04L66.3647 38.12C65.938 38.9733 65.4714 39.6667 64.9647 40.2C64.4847 40.7333 63.9247 41.1467 63.2847 41.44C62.6447 41.7333 61.8714 41.9333 60.9647 42.04C60.0847 42.1467 59.0314 42.2 57.8047 42.2ZM64.9647 54.2C64.4314 54.2 63.9647 54 63.5647 53.6C63.1914 53.2 63.0047 52.7333 63.0047 52.2C63.0047 51.6667 63.1914 51.2 63.5647 50.8C63.9647 50.4267 64.4314 50.24 64.9647 50.24C65.5247 50.24 65.9914 50.4267 66.3647 50.8C66.7647 51.2 66.9647 51.6667 66.9647 52.2C66.9647 52.7333 66.7647 53.2 66.3647 53.6C65.9914 54 65.5247 54.2 64.9647 54.2ZM67.6847 49.8C67.1514 49.8 66.6847 49.6 66.2847 49.2C65.9114 48.8 65.7247 48.3333 65.7247 47.8C65.7247 47.2667 65.9114 46.8 66.2847 46.4C66.6847 46.0267 67.1514 45.84 67.6847 45.84C68.2447 45.84 68.7114 46.0267 69.0847 46.4C69.4847 46.8 69.6847 47.2667 69.6847 47.8C69.6847 48.3333 69.4847 48.8 69.0847 49.2C68.7114 49.6 68.2447 49.8 67.6847 49.8ZM62.2447 49.8C61.7114 49.8 61.2447 49.6 60.8447 49.2C60.4714 48.8 60.2847 48.3333 60.2847 47.8C60.2847 47.2667 60.4714 46.8 60.8447 46.4C61.2447 46.0267 61.7114 45.84 62.2447 45.84C62.8047 45.84 63.2714 46.0267 63.6447 46.4C64.0447 46.8 64.2447 47.2667 64.2447 47.8C64.2447 48.3333 64.0447 48.8 63.6447 49.2C63.2714 49.6 62.8047 49.8 62.2447 49.8Z" fill="white"/>
<path d="M91.2066 20L89.7266 17.76C90.7666 17.12 92.0066 16.36 93.4466 15.48C94.9132 14.6 96.5932 13.6267 98.4866 12.56C100.38 11.4933 102.473 10.36 104.767 9.16L105.887 11.6C103.567 12.8267 101.5 13.9467 99.6866 14.96C97.8999 15.9733 96.3132 16.8933 94.9266 17.72C93.5399 18.5467 92.2999 19.3067 91.2066 20ZM88.3266 42.84L89.3666 39.56C91.9799 39.56 94.1266 39.48 95.8066 39.32C97.5132 39.16 98.8332 38.9333 99.7666 38.64C100.727 38.3467 101.393 37.9867 101.767 37.56C102.167 37.1067 102.367 36.6 102.367 36.04C102.367 35.4267 102.127 34.6667 101.647 33.76C101.193 32.8533 100.247 31.68 98.8066 30.24C98.0599 29.4933 97.3132 28.8133 96.5666 28.2C95.8199 27.56 95.1266 27 94.4866 26.52C93.8732 26.0133 93.3799 25.5867 93.0066 25.24C92.6332 24.8933 92.4466 24.6267 92.4466 24.44C92.4466 24.04 92.4732 23.6533 92.5266 23.28C92.6066 22.9067 92.6999 22.56 92.8066 22.24C92.9399 21.92 93.0999 21.6667 93.2866 21.48C93.8199 20.92 94.4999 20.36 95.3266 19.8C96.1799 19.24 97.1666 18.6533 98.2866 18.04C99.4332 17.4267 100.713 16.7733 102.127 16.08C103.567 15.36 105.14 14.5733 106.847 13.72L108.207 16.68C106.073 17.6933 104.287 18.56 102.847 19.28C101.433 19.9733 100.233 20.6 99.2466 21.16C98.2599 21.6933 97.3932 22.2 96.6466 22.68C95.8999 23.16 95.1399 23.6933 94.3666 24.28L94.9666 22.76C96.6466 24.0933 98.1266 25.3467 99.4066 26.52C100.713 27.6933 101.807 28.8267 102.687 29.92C103.567 30.9867 104.233 32.04 104.687 33.08C105.14 34.12 105.367 35.1733 105.367 36.24C105.367 36.8533 105.273 37.48 105.087 38.12C104.9 38.76 104.487 39.36 103.847 39.92C103.233 40.48 102.313 40.9867 101.087 41.44C99.8599 41.8667 98.2066 42.2 96.1266 42.44C94.0466 42.7067 91.4466 42.84 88.3266 42.84ZM88.3266 42.84C85.9532 42.84 83.8599 42.68 82.0466 42.36C80.2599 42.0667 78.7666 41.6 77.5666 40.96C76.3666 40.32 75.4599 39.4933 74.8466 38.48C74.2332 37.44 73.9266 36.1867 73.9266 34.72C73.9266 34.0533 73.9799 33.3733 74.0866 32.68C74.1932 31.96 74.3266 31.24 74.4866 30.52C74.6732 29.8 74.8599 29.1067 75.0466 28.44L78.0466 29.2C77.9399 29.6 77.8199 30.08 77.6866 30.64C77.5532 31.1733 77.4332 31.72 77.3266 32.28C77.2466 32.84 77.2066 33.3467 77.2066 33.8C77.2066 35.1867 77.5532 36.3067 78.2466 37.16C78.9666 37.9867 80.2066 38.6 81.9666 39C83.7266 39.3733 86.1932 39.56 89.3666 39.56L90.1666 41.56L88.3266 42.84ZM107.965 51.2L106.805 48.16C109.498 47.3067 111.565 46.28 113.005 45.08C114.471 43.9067 115.471 42.68 116.005 41.4C116.565 40.12 116.845 38.8933 116.845 37.72C116.845 36.9733 116.765 36.2533 116.605 35.56C116.445 34.8667 116.165 34.08 115.765 33.2C115.365 32.32 114.805 31.2267 114.085 29.92L117.005 28.44C118.018 30.1733 118.738 31.8133 119.165 33.36C119.618 34.9067 119.845 36.2667 119.845 37.44C119.845 39.12 119.565 40.64 119.005 42C118.471 43.36 117.751 44.56 116.845 45.6C115.965 46.6667 114.991 47.5733 113.925 48.32C112.885 49.0667 111.831 49.68 110.765 50.16C109.725 50.64 108.791 50.9867 107.965 51.2ZM126.052 42L125.372 16.24H128.612L129.292 42H126.052ZM129.652 12.36C128.852 12.36 128.132 12.2267 127.492 11.96C126.852 11.6667 126.266 11.3867 125.732 11.12C125.199 10.8533 124.706 10.72 124.252 10.72C123.772 10.72 123.332 10.84 122.932 11.08C122.559 11.32 122.159 11.6533 121.732 12.08L120.212 10.8C120.826 10.0267 121.466 9.42667 122.132 9C122.799 8.54666 123.506 8.32 124.252 8.32C124.919 8.32 125.532 8.45333 126.092 8.72C126.652 8.98667 127.212 9.25333 127.772 9.52C128.359 9.78666 128.986 9.92 129.652 9.92C130.079 9.92 130.479 9.85333 130.852 9.72C131.226 9.56 131.679 9.32 132.212 9L133.372 10.64C132.519 11.3867 131.786 11.8667 131.172 12.08C130.586 12.2667 130.079 12.36 129.652 12.36Z" fill="#216DE6"/>
</svg>
