<svg width="201" height="40" viewBox="0 0 201 40" fill="none" xmlns="http://www.w3.org/2000/svg">
<path d="M10.914 33.216C8.71533 33.216 6.87933 32.944 5.406 32.4C3.93267 31.8787 2.822 31.142 2.074 30.19C1.34867 29.2607 0.986 28.184 0.986 26.96C0.986 26.3933 1.11067 25.838 1.36 25.294C1.60933 24.75 1.99467 24.2967 2.516 23.934C2.81067 23.73 3.128 23.56 3.468 23.424C3.808 23.288 4.25 23.186 4.794 23.118C5.36067 23.05 6.09733 23.016 7.004 23.016H32.402L32.504 25.464H7.378C6.67533 25.464 6.13133 25.4753 5.746 25.498C5.38333 25.5207 5.11133 25.566 4.93 25.634C4.74867 25.702 4.56733 25.804 4.386 25.94C4.046 26.212 3.876 26.5973 3.876 27.096C3.876 28.2067 4.47667 29.0907 5.678 29.748C6.87933 30.4053 8.69267 30.734 11.118 30.734H11.696C13.9853 30.734 15.946 30.462 17.578 29.918C19.2327 29.3967 20.5927 28.6713 21.658 27.742C22.746 26.8127 23.562 25.7587 24.106 24.58L24.242 23.934C24.446 23.3673 24.5933 22.8007 24.684 22.234C24.7747 21.6447 24.82 21.0553 24.82 20.466C24.82 19.1513 24.5933 17.9047 24.14 16.726C23.6867 15.5473 22.984 14.5613 22.032 13.768C21.1027 12.952 19.9013 12.4307 18.428 12.204C18.1333 12.1587 17.85 12.136 17.578 12.136C17.3287 12.1133 17.0567 12.102 16.762 12.102C16.0593 12.102 15.4133 12.2267 14.824 12.476C14.2347 12.7253 13.7587 13.0993 13.396 13.598C13.056 14.0967 12.886 14.7313 12.886 15.502C12.886 16.3407 13.1353 17.0547 13.634 17.644C14.1553 18.2107 14.8807 18.494 15.81 18.494C16.6713 18.494 17.3513 18.2333 17.85 17.712C18.3713 17.168 18.632 16.3973 18.632 15.4C18.632 14.652 18.5073 13.9833 18.258 13.394C18.0313 12.782 17.6233 12.204 17.034 11.66L18.972 11.082C19.38 11.422 19.754 11.8187 20.094 12.272C20.4567 12.7253 20.74 13.2353 20.944 13.802C21.1707 14.346 21.284 14.924 21.284 15.536C21.284 16.3293 21.1593 17.0547 20.91 17.712C20.6833 18.3467 20.332 18.902 19.856 19.378C19.38 19.8313 18.7907 20.1827 18.088 20.432C17.408 20.6813 16.626 20.806 15.742 20.806C14.722 20.806 13.7927 20.6133 12.954 20.228C12.1153 19.8427 11.4467 19.2647 10.948 18.494C10.4493 17.7233 10.2 16.7713 10.2 15.638C10.2 14.2327 10.5287 13.0993 11.186 12.238C11.8433 11.3767 12.6933 10.7533 13.736 10.368C14.8013 9.96 15.9233 9.756 17.102 9.756C18.8473 9.756 20.3773 10.0507 21.692 10.64C23.0293 11.2293 24.14 12.034 25.024 13.054C25.9307 14.074 26.6107 15.2187 27.064 16.488C27.5173 17.7573 27.744 19.072 27.744 20.432C27.744 21.044 27.71 21.6447 27.642 22.234C27.574 22.8007 27.472 23.356 27.336 23.9L27.132 24.648C26.4973 26.5067 25.432 28.0707 23.936 29.34C22.4627 30.6093 20.672 31.5727 18.564 32.23C16.4787 32.8873 14.1667 33.216 11.628 33.216H10.914ZM31.348 39.914C28.4013 39.914 26.112 39.4153 24.48 38.418C22.848 37.4433 22.032 36.0493 22.032 34.236C22.032 33.5787 22.1907 32.9553 22.508 32.366C22.848 31.7993 23.358 31.3233 24.038 30.938C24.7407 30.5753 25.6133 30.394 26.656 30.394C27.2453 30.394 27.8573 30.4507 28.492 30.564C29.1267 30.7 29.7273 30.8813 30.294 31.108L29.818 33.318C29.3193 33.1593 28.8093 33.0233 28.288 32.91C27.7893 32.7967 27.3133 32.74 26.86 32.74C26.1573 32.74 25.6133 32.876 25.228 33.148C24.8427 33.42 24.65 33.8167 24.65 34.338C24.65 34.882 24.854 35.392 25.262 35.868C25.6927 36.344 26.4067 36.7293 27.404 37.024C28.4013 37.3187 29.7613 37.466 31.484 37.466H31.722C33.6713 37.466 35.3827 37.2167 36.856 36.718C38.352 36.242 39.5193 35.528 40.358 34.576C41.2193 33.624 41.65 32.4793 41.65 31.142C41.65 30.1447 41.3667 29.3627 40.8 28.796C40.2333 28.2293 39.4513 27.946 38.454 27.946C37.7287 27.946 37.0827 28.048 36.516 28.252C35.972 28.4333 35.5073 28.6713 35.122 28.966V26.62C35.5753 26.348 36.108 26.11 36.72 25.906C37.332 25.702 38.0687 25.6 38.93 25.6C39.8593 25.6 40.7433 25.804 41.582 26.212C42.4433 26.62 43.146 27.2433 43.69 28.082C44.234 28.898 44.506 29.9407 44.506 31.21C44.506 32.9327 43.9847 34.4513 42.942 35.766C41.8993 37.0807 40.4033 38.1007 38.454 38.826C36.5273 39.5513 34.2267 39.914 31.552 39.914H31.348ZM32.198 33.216V10.164H35.122V33.216H32.198ZM52.5122 36.208L50.5742 34.406L57.1362 28.184V12.612H50.5742V29H47.6502V10.164H65.8402V12.612H60.0602V29L52.5122 36.208ZM55.5382 5.948C54.8809 5.948 54.3369 5.744 53.9062 5.336C53.4755 4.90533 53.2602 4.35 53.2602 3.67C53.2602 3.01266 53.4755 2.46867 53.9062 2.038C54.3369 1.60733 54.8809 1.392 55.5382 1.392C56.1955 1.392 56.7395 1.60733 57.1702 2.038C57.6009 2.46867 57.8162 3.01266 57.8162 3.67C57.8162 4.35 57.6009 4.90533 57.1702 5.336C56.7395 5.744 56.1955 5.948 55.5382 5.948ZM73.7529 29.408C72.3929 29.408 71.1689 29.1927 70.0809 28.762C68.9929 28.3313 68.1316 27.6967 67.4969 26.858C66.8622 26.0193 66.5449 25.0107 66.5449 23.832C66.5449 22.608 66.8622 21.554 67.4969 20.67C68.1542 19.7633 69.1856 19.072 70.5909 18.596C71.9962 18.0973 73.8549 17.848 76.1669 17.848H82.2869C83.4656 17.848 84.4856 17.9047 85.3469 18.018C86.2082 18.1313 86.9562 18.3127 87.5909 18.562C88.2482 18.7887 88.8376 19.106 89.3589 19.514C89.9482 19.9673 90.4129 20.568 90.7529 21.316C91.0929 22.0413 91.2629 22.88 91.2629 23.832C91.2629 25.5547 90.7416 26.892 89.6989 27.844C88.6789 28.796 87.2282 29.272 85.3469 29.272C84.8256 29.272 84.2589 29.238 83.6469 29.17C83.0349 29.102 82.4682 28.9887 81.9469 28.83L82.5929 26.552C82.9329 26.6427 83.3182 26.722 83.7489 26.79C84.2022 26.858 84.6442 26.892 85.0749 26.892C86.1402 26.892 86.9449 26.6313 87.4889 26.11C88.0556 25.5887 88.3389 24.784 88.3389 23.696C88.3389 22.9253 88.1689 22.3133 87.8289 21.86C87.4889 21.384 87.0356 21.0327 86.4689 20.806C85.9249 20.5793 85.3016 20.432 84.5989 20.364C83.9189 20.2733 83.2276 20.228 82.5249 20.228H75.9289C74.7729 20.228 73.7869 20.296 72.9709 20.432C72.1776 20.568 71.4976 20.7947 70.9309 21.112C70.4322 21.4067 70.0582 21.7693 69.8089 22.2C69.5822 22.608 69.4689 23.1407 69.4689 23.798C69.4689 24.8407 69.8996 25.634 70.7609 26.178C71.6222 26.6993 72.7102 26.96 74.0249 26.96C75.0222 26.96 75.8722 26.8127 76.5749 26.518C77.3002 26.2007 77.8556 25.668 78.2409 24.92C78.6489 24.172 78.8529 23.118 78.8529 21.758V12.612H73.0049V18.732L70.3189 19.276V10.164H88.1009V12.612H81.7429V21.316C81.7429 22.8347 81.6069 24.0247 81.3349 24.886C81.0856 25.7473 80.7229 26.4727 80.2469 27.062C79.5442 27.9233 78.6376 28.5353 77.5269 28.898C76.4389 29.238 75.1809 29.408 73.7529 29.408ZM79.5669 5.948C78.9096 5.948 78.3656 5.744 77.9349 5.336C77.5042 4.90533 77.2889 4.35 77.2889 3.67C77.2889 3.01266 77.5042 2.46867 77.9349 2.038C78.3656 1.60733 78.9096 1.392 79.5669 1.392C80.2242 1.392 80.7682 1.60733 81.1989 2.038C81.6296 2.46867 81.8449 3.01266 81.8449 3.67C81.8449 4.35 81.6296 4.90533 81.1989 5.336C80.7682 5.744 80.2242 5.948 79.5669 5.948Z" fill="#216DE6"/>
<path d="M95.9275 29V10.164H98.8515V26.552H113.472V10.164H116.396V29H95.9275ZM113.54 0.337998C115.466 0.337998 116.928 0.734665 117.926 1.528C118.946 2.29867 119.456 3.31866 119.456 4.588C119.456 6.016 119.025 7.08133 118.164 7.784C117.302 8.464 116.248 8.804 115.002 8.804C113.687 8.804 112.633 8.47533 111.84 7.818C111.046 7.138 110.65 6.20866 110.65 5.03C110.65 4.50867 110.752 3.89666 110.956 3.194C111.182 2.49133 111.602 1.82267 112.214 1.188L113.948 1.936C113.585 2.36667 113.313 2.80867 113.132 3.262C112.973 3.69267 112.894 4.12333 112.894 4.554C112.894 5.05267 112.984 5.46067 113.166 5.778C113.347 6.09533 113.596 6.33333 113.914 6.492C114.231 6.628 114.594 6.696 115.002 6.696C115.659 6.696 116.169 6.51467 116.532 6.152C116.894 5.78933 117.076 5.32467 117.076 4.758C117.076 3.96467 116.758 3.38667 116.124 3.024C115.489 2.66133 114.673 2.48 113.676 2.48C113.517 2.48 113.313 2.49133 113.064 2.514C112.837 2.514 112.633 2.52533 112.452 2.548C110.729 2.72933 109.46 3.30733 108.644 4.282C107.85 5.234 107.454 6.37866 107.454 7.716C107.454 8.71333 107.635 9.56333 107.998 10.266C108.36 10.946 108.836 11.5013 109.426 11.932C110.015 12.34 110.661 12.6573 111.364 12.884C112.066 13.1107 112.769 13.258 113.472 13.326V15.74C112.293 15.6267 111.171 15.3887 110.106 15.026C109.063 14.6407 108.145 14.1193 107.352 13.462C106.581 12.8047 105.969 12.0113 105.516 11.082C105.062 10.1527 104.836 9.06467 104.836 7.818C104.836 6.82067 105.006 5.88 105.346 4.996C105.686 4.08933 106.207 3.28467 106.91 2.582C107.635 1.87933 108.542 1.33533 109.63 0.949998C110.74 0.541998 112.044 0.337998 113.54 0.337998ZM122.39 29V10.164H125.314V26.552H145.918V29H122.39ZM136.024 12.986C136.954 12.986 137.747 13.1333 138.404 13.428C139.084 13.7227 139.628 14.1307 140.036 14.652C140.467 15.1507 140.773 15.7287 140.954 16.386C141.158 17.0433 141.26 17.7347 141.26 18.46C141.26 19.48 141.158 20.5227 140.954 21.588C140.75 22.6533 140.501 23.7187 140.206 24.784L136.33 38.656L133.644 37.908L136.296 28.66L136.398 28.116L137.044 25.804C137.43 24.5347 137.736 23.322 137.962 22.166C138.189 21.01 138.302 19.8087 138.302 18.562C138.302 17.5647 138.098 16.794 137.69 16.25C137.305 15.706 136.738 15.434 135.99 15.434C135.152 15.434 134.472 15.7627 133.95 16.42C133.452 17.0773 133.202 18.0293 133.202 19.276C133.202 20.364 133.395 21.384 133.78 22.336C134.188 23.288 134.71 24.1607 135.344 24.954C135.979 25.7247 136.648 26.4387 137.35 27.096L134.902 28.354C134.109 27.47 133.361 26.5633 132.658 25.634C131.978 24.682 131.423 23.662 130.992 22.574C130.584 21.486 130.38 20.2847 130.38 18.97C130.38 17.8367 130.596 16.828 131.026 15.944C131.457 15.0373 132.092 14.3233 132.93 13.802C133.792 13.258 134.823 12.986 136.024 12.986ZM158.528 29V10.164H161.452V26.552H173.318V10.164H176.242V29H158.528ZM154.652 29.374C153.814 29.374 153.077 29.238 152.442 28.966C151.83 28.6713 151.309 28.2747 150.878 27.776C150.629 27.436 150.391 27.0507 150.164 26.62C149.96 26.1893 149.79 25.6227 149.654 24.92C149.541 24.2173 149.484 23.288 149.484 22.132V10.164H152.408V21.418C152.408 22.4607 152.454 23.4127 152.544 24.274C152.635 25.1127 152.907 25.7587 153.36 26.212C153.587 26.4387 153.848 26.62 154.142 26.756C154.46 26.8693 154.834 26.926 155.264 26.926C155.922 26.926 156.534 26.756 157.1 26.416C157.69 26.076 158.234 25.5207 158.732 24.75L158.664 27.674C158.234 28.1047 157.69 28.5013 157.032 28.864C156.375 29.204 155.582 29.374 154.652 29.374ZM182.222 29V10.164H200.412V12.612H194.632V29H191.708V12.612H185.146V29H182.222Z" fill="#535353"/>
</svg>
