<svg width="195" height="56" viewBox="0 0 195 56" fill="none" xmlns="http://www.w3.org/2000/svg">
<path d="M17.612 39.528C14.5907 39.528 11.9947 39.22 9.824 38.604C7.65333 37.9587 5.89333 37.064 4.544 35.92C3.19467 34.776 2.19733 33.4413 1.552 31.916C0.906667 30.3907 0.584 28.748 0.584 26.988C0.584 24.876 0.950667 23.072 1.684 21.576C2.41733 20.08 3.4 18.9507 4.632 18.188C5.89333 17.396 7.316 17 8.9 17C10.0733 17 11.0853 17.2347 11.936 17.704C12.816 18.144 13.4907 18.7893 13.96 19.64C14.4587 20.4613 14.708 21.444 14.708 22.588C14.708 23.7613 14.4587 24.8173 13.96 25.756C13.4613 26.6653 12.7133 27.384 11.716 27.912C10.7187 28.4107 9.44267 28.66 7.888 28.66C6.42133 28.66 5.14533 28.3227 4.06 27.648C2.97467 26.9733 2.13867 26.2987 1.552 25.624L2.608 22.896C2.84267 23.2187 3.16533 23.6 3.576 24.04C4.016 24.4507 4.57333 24.8173 5.248 25.14C5.92267 25.4333 6.72933 25.58 7.668 25.58C8.84133 25.58 9.72133 25.3307 10.308 24.832C10.924 24.3333 11.232 23.644 11.232 22.764C11.232 21.9133 10.9973 21.268 10.528 20.828C10.0587 20.3587 9.44267 20.124 8.68 20.124C7.30133 20.124 6.18667 20.696 5.336 21.84C4.48533 22.984 4.06 24.5973 4.06 26.68V27.076C4.06 28.22 4.28 29.3347 4.72 30.42C5.16 31.476 5.89333 32.4293 6.92 33.28C7.94667 34.1307 9.32533 34.8053 11.056 35.304C12.816 35.8027 15.0013 36.052 17.612 36.052C19.9293 36.052 21.88 35.876 23.464 35.524C25.0773 35.1427 26.2947 34.6147 27.116 33.94C27.9373 33.236 28.348 32.4147 28.348 31.476C28.348 30.8893 28.1573 30.376 27.776 29.936C27.424 29.496 26.9693 29.1293 26.412 28.836C25.8547 28.5133 25.312 28.264 24.784 28.088C23.2 27.736 21.88 27.076 20.824 26.108C19.768 25.14 19.24 23.8933 19.24 22.368C19.24 21.224 19.5187 20.256 20.076 19.464C20.6627 18.672 21.44 18.0707 22.408 17.66C23.4053 17.22 24.5053 17 25.708 17C27.3507 17 28.6853 17.2933 29.712 17.88C30.7387 18.4667 31.4867 19.2293 31.956 20.168C32.4547 21.1067 32.704 22.104 32.704 23.16C32.704 24.4507 32.396 25.5947 31.78 26.592C31.1933 27.5893 30.4013 28.4253 29.404 29.1C28.7293 29.5693 28.0547 29.936 27.38 30.2C26.7347 30.464 26.0747 30.6547 25.4 30.772C24.7253 30.86 23.992 30.904 23.2 30.904H12.332V27.648H25.884C26.4707 27.3253 26.9987 26.9733 27.468 26.592C27.9667 26.1813 28.348 25.712 28.612 25.184C28.9053 24.6267 29.052 23.996 29.052 23.292C29.052 22.4413 28.788 21.708 28.26 21.092C27.7613 20.476 26.9547 20.168 25.84 20.168C24.872 20.168 24.1093 20.388 23.552 20.828C23.024 21.268 22.76 21.8547 22.76 22.588C22.76 23.2333 22.9653 23.8053 23.376 24.304C23.816 24.7733 24.388 25.184 25.092 25.536C25.796 25.8587 26.5587 26.1667 27.38 26.46C28.1427 26.6947 28.876 27.032 29.58 27.472C30.284 27.912 30.856 28.4693 31.296 29.144C31.7653 29.8187 32 30.6253 32 31.564C32 32.444 31.8093 33.3533 31.428 34.292C31.0467 35.2307 30.3427 36.096 29.316 36.888C28.3187 37.68 26.8667 38.3253 24.96 38.824C23.0827 39.2933 20.6333 39.528 17.612 39.528ZM35.6455 28.616C35.6455 26.328 36.1295 24.3187 37.0975 22.588C38.0655 20.828 39.4001 19.464 41.1015 18.496C42.8321 17.4987 44.8415 17 47.1295 17C49.4468 17 51.4561 17.484 53.1575 18.452C54.8881 19.3907 56.2375 20.7253 57.2055 22.456C58.1735 24.1867 58.6575 26.2253 58.6575 28.572C58.6575 30.7427 58.1881 32.664 57.2495 34.336C56.3108 35.9787 54.9761 37.2547 53.2455 38.164C51.5148 39.0733 49.4761 39.528 47.1295 39.528C44.8121 39.528 42.7881 39.0733 41.0575 38.164C39.3561 37.2547 38.0215 35.9933 37.0535 34.38C36.1148 32.7373 35.6455 30.816 35.6455 28.616ZM39.2975 28.088C39.2975 30.464 39.9575 32.3853 41.2775 33.852C42.5975 35.3187 44.5481 36.052 47.1295 36.052C48.8895 36.052 50.3415 35.7293 51.4855 35.084C52.6588 34.4093 53.5388 33.4853 54.1255 32.312C54.7121 31.1387 55.0055 29.8187 55.0055 28.352C55.0055 26.856 54.7121 25.5067 54.1255 24.304C53.5681 23.072 52.7028 22.104 51.5295 21.4C50.3855 20.6667 48.9188 20.3 47.1295 20.3C45.3401 20.3 43.8588 20.6667 42.6855 21.4C41.5415 22.104 40.6908 23.0427 40.1335 24.216C39.5761 25.3893 39.2975 26.68 39.2975 28.088ZM38.8575 15.24C38.8575 14.3013 39.0921 13.4947 39.5615 12.82C40.0308 12.1453 40.7201 11.5293 41.6295 10.972L41.5855 11.764C40.5881 11.236 39.8255 10.5907 39.2975 9.828C38.7695 9.036 38.5055 8.14133 38.5055 7.144C38.5055 6.352 38.6521 5.66266 38.9455 5.076C39.2388 4.48933 39.6495 3.99067 40.1775 3.58C40.5881 3.25733 41.0721 2.99333 41.6295 2.788C42.1868 2.55333 42.8908 2.392 43.7415 2.304C44.6215 2.18666 45.7361 2.128 47.0855 2.128H59.7135V5.428H46.3815C45.3841 5.428 44.6655 5.45733 44.2255 5.516C43.7855 5.57466 43.4335 5.67733 43.1695 5.824C42.8468 5.97067 42.5975 6.19067 42.4215 6.484C42.2455 6.748 42.1575 7.07067 42.1575 7.452C42.1575 7.83333 42.2308 8.17066 42.3775 8.464C42.5241 8.75733 42.7588 8.992 43.0815 9.168C43.3748 9.31467 43.7561 9.432 44.2255 9.52C44.7241 9.57867 45.4281 9.608 46.3375 9.608H52.3655V12.908H46.1615C45.3401 12.908 44.6948 12.9667 44.2255 13.084C43.7855 13.172 43.4481 13.304 43.2135 13.48C42.7441 13.832 42.5095 14.3307 42.5095 14.976C42.5095 15.328 42.5681 15.636 42.6855 15.9C42.8321 16.164 43.0081 16.3693 43.2135 16.516C43.4775 16.7213 43.8148 16.8533 44.2255 16.912C44.6361 16.9707 45.1641 17 45.8095 17H47.4375V20.3H45.7655C44.3868 20.3 43.1695 20.124 42.1135 19.772C41.0868 19.42 40.2801 18.8773 39.6935 18.144C39.1361 17.3813 38.8575 16.4133 38.8575 15.24ZM47.2051 41.684C48.8184 41.684 50.2118 41.9773 51.3851 42.564C52.5291 43.18 53.4238 44.016 54.0691 45.072C54.6851 46.1573 54.9931 47.404 54.9931 48.812C54.9931 50.5133 54.7438 51.9213 54.2451 53.036C53.7171 54.1507 53.1598 55.1333 52.5731 55.984L49.6251 54.708C50.2411 53.9453 50.7691 53.0947 51.2091 52.156C51.6491 51.2467 51.8691 50.2493 51.8691 49.164C51.8691 48.3133 51.7224 47.536 51.4291 46.832C51.1358 46.128 50.6371 45.556 49.9331 45.116C49.2291 44.7053 48.2611 44.5 47.0291 44.5C45.5918 44.5 44.4478 44.9107 43.5971 45.732C42.7464 46.5533 42.3211 47.6827 42.3211 49.12C42.3211 50.176 42.5411 51.1733 42.9811 52.112C43.4211 53.08 43.9638 53.9453 44.6091 54.708L41.6611 55.984C40.9571 55.016 40.3704 53.9307 39.9011 52.728C39.4318 51.5547 39.1971 50.2933 39.1971 48.944C39.1971 47.6533 39.5051 46.4507 40.1211 45.336C40.7078 44.2507 41.6024 43.3707 42.8051 42.696C43.9784 42.0213 45.4451 41.684 47.2051 41.684Z" fill="#216DE6"/>
<path d="M81.5275 39.528C80.1195 39.528 78.8875 39.264 77.8315 38.736C76.8048 38.208 75.8515 37.4747 74.9715 36.536C74.0915 35.5973 73.1675 34.4973 72.1995 33.236C71.3488 32.0627 70.6155 31.212 69.9995 30.684C69.3835 30.156 68.6355 29.892 67.7555 29.892C66.9342 29.892 66.2448 30.156 65.6875 30.684C65.1595 31.212 64.8955 31.9893 64.8955 33.016C64.8955 33.9253 65.1742 34.688 65.7315 35.304C66.3182 35.92 67.1102 36.228 68.1075 36.228C69.1048 36.228 69.9262 35.9347 70.5715 35.348C71.2462 34.7613 71.8182 33.9107 72.2875 32.796L74.6195 35.436C74.0622 36.228 73.4755 36.932 72.8595 37.548C72.2435 38.164 71.5395 38.648 70.7475 39C69.9848 39.352 69.0315 39.528 67.8875 39.528C66.3328 39.528 65.0862 39.2053 64.1475 38.56C63.2088 37.9147 62.5195 37.0933 62.0795 36.096C61.6688 35.0693 61.4635 34.0133 61.4635 32.928C61.4635 31.6373 61.7422 30.5227 62.2995 29.584C62.8568 28.6453 63.6048 27.912 64.5435 27.384C65.4822 26.856 66.5235 26.592 67.6675 26.592C68.7235 26.592 69.6622 26.7827 70.4835 27.164C71.3048 27.516 72.1115 28.088 72.9035 28.88C73.6955 29.6427 74.5608 30.6547 75.4995 31.916C76.2915 32.9427 76.9955 33.764 77.6115 34.38C78.2275 34.996 78.8582 35.436 79.5035 35.7C80.1488 35.9347 80.8968 36.052 81.7475 36.052C83.2142 36.052 84.3288 35.5827 85.0915 34.644C85.8835 33.676 86.2795 32.2973 86.2795 30.508C86.2795 28.8067 85.9422 27.3253 85.2675 26.064C84.5928 24.7733 83.6688 23.6733 82.4955 22.764C81.3222 21.8253 80.0022 21.0333 78.5355 20.388L80.2075 17C82.0262 17.7627 83.6688 18.7893 85.1355 20.08C86.6022 21.3707 87.7608 22.8813 88.6115 24.612C89.4915 26.3133 89.9315 28.2053 89.9315 30.288C89.9315 32.224 89.5942 33.8813 88.9195 35.26C88.2742 36.6387 87.3208 37.6947 86.0595 38.428C84.8275 39.1613 83.3168 39.528 81.5275 39.528ZM69.6035 19.992C68.5475 19.992 67.5502 19.8893 66.6115 19.684C65.6728 19.4493 64.7782 19.1707 63.9275 18.848L65.1155 16.032C65.7022 16.2667 66.3475 16.4867 67.0515 16.692C67.7555 16.868 68.5475 16.956 69.4275 16.956C70.6888 16.956 71.7595 16.7067 72.6395 16.208C73.5195 15.7093 73.9595 14.6973 73.9595 13.172V12.864C73.9595 11.72 73.5342 10.7667 72.6835 10.004C71.8328 9.212 70.7182 8.816 69.3395 8.816C68.6062 8.816 67.9755 8.948 67.4475 9.212C66.9195 9.476 66.6555 9.90133 66.6555 10.488C66.6555 11.1333 66.9195 11.588 67.4475 11.852C67.9755 12.116 68.5915 12.248 69.2955 12.248C70.4102 12.248 71.3342 11.9547 72.0675 11.368C72.8008 10.752 73.5195 10.0627 74.2235 9.3L75.2795 11.808C74.8982 12.2187 74.4435 12.6587 73.9155 13.128C73.3875 13.5973 72.7422 13.9933 71.9795 14.316C71.2168 14.6387 70.2635 14.8 69.1195 14.8C67.3595 14.8 65.9808 14.4773 64.9835 13.832C64.0155 13.1573 63.5315 12.116 63.5315 10.708C63.5315 9.79867 63.7808 9.00667 64.2795 8.332C64.7782 7.65733 65.4822 7.12933 66.3915 6.748C67.3008 6.33733 68.3715 6.132 69.6035 6.132C72.1262 6.132 74.0035 6.82133 75.2355 8.2C76.4675 9.54933 77.0835 11.2653 77.0835 13.348C77.0835 15.46 76.4382 17.1027 75.1475 18.276C73.8862 19.42 72.0382 19.992 69.6035 19.992ZM70.9675 0.763999C72.7568 0.763999 74.1502 1.116 75.1475 1.82C76.1742 2.524 76.9515 3.52133 77.4795 4.812L74.1355 5.692C73.9008 5.01733 73.5195 4.504 72.9915 4.152C72.4635 3.8 71.7888 3.624 70.9675 3.624C70.0582 3.624 69.3102 3.82933 68.7235 4.24C68.1662 4.62133 67.8875 5.208 67.8875 6C67.8875 6.352 67.9462 6.704 68.0635 7.056C68.2102 7.37867 68.4448 7.70133 68.7675 8.024L65.9955 9.256C65.6142 8.75733 65.3062 8.2 65.0715 7.584C64.8662 6.968 64.7635 6.33733 64.7635 5.692C64.7635 4.13733 65.3355 2.93466 66.4795 2.084C67.6235 1.204 69.1195 0.763999 70.9675 0.763999ZM115.493 39.528C113.879 39.528 112.501 39.352 111.357 39C110.213 38.6773 109.274 38.208 108.541 37.592C107.807 36.9467 107.191 36.184 106.693 35.304L107.397 34.996C106.781 36.2573 106.091 37.2253 105.329 37.9C104.566 38.5453 103.759 38.9707 102.909 39.176C102.058 39.4107 101.149 39.528 100.181 39.528C98.0394 39.528 96.3088 38.7213 94.9888 37.108C93.6688 35.4947 93.0088 33.28 93.0088 30.464C93.0088 27.6187 93.6248 25.1987 94.8568 23.204C96.1181 21.2093 97.8928 19.684 100.181 18.628C102.498 17.5427 105.211 17 108.321 17C109.875 17 111.313 17.1467 112.633 17.44C113.953 17.704 115.185 18.0853 116.329 18.584C117.502 19.0827 118.631 19.6693 119.717 20.344L117.561 23.248C116.563 22.6027 115.581 22.06 114.613 21.62C113.645 21.18 112.633 20.8573 111.577 20.652C110.521 20.4173 109.347 20.3 108.057 20.3C105.651 20.3 103.598 20.696 101.897 21.488C100.195 22.2507 98.8901 23.38 97.9808 24.876C97.1008 26.372 96.6608 28.1907 96.6608 30.332C96.6608 32.3853 97.0128 33.852 97.7168 34.732C98.4501 35.612 99.4474 36.052 100.709 36.052C102.087 36.052 103.158 35.5827 103.921 34.644C104.713 33.676 105.167 32.4147 105.285 30.86H108.717C108.775 32.004 109.039 33.016 109.509 33.896C110.007 34.776 110.785 35.3627 111.841 35.656C112.339 35.8613 112.897 36.008 113.513 36.096C114.158 36.184 114.877 36.228 115.669 36.228C116.871 36.228 117.766 35.9787 118.353 35.48C118.939 34.952 119.233 34.2333 119.233 33.324C119.233 32.4147 118.954 31.7547 118.397 31.344C117.869 30.9333 117.179 30.728 116.329 30.728C115.537 30.728 114.847 30.948 114.261 31.388C113.703 31.7987 113.425 32.5173 113.425 33.544C113.425 34.2773 113.571 34.9373 113.865 35.524C114.158 36.1107 114.51 36.5947 114.921 36.976L112.017 37.46C111.606 36.8147 111.225 36.1107 110.873 35.348C110.521 34.5853 110.345 33.7347 110.345 32.796C110.345 31.1533 110.902 29.8333 112.017 28.836C113.161 27.8387 114.657 27.34 116.505 27.34C117.737 27.34 118.822 27.5893 119.761 28.088C120.699 28.5867 121.433 29.276 121.961 30.156C122.489 31.0067 122.753 31.9747 122.753 33.06C122.753 34.1747 122.562 35.1427 122.181 35.964C121.829 36.756 121.315 37.416 120.641 37.944C119.995 38.472 119.233 38.868 118.353 39.132C117.473 39.396 116.519 39.528 115.493 39.528ZM107.617 19.992C106.561 19.992 105.563 19.8747 104.625 19.64C103.715 19.4053 102.821 19.1413 101.941 18.848L103.129 16.032C103.715 16.2667 104.361 16.4867 105.065 16.692C105.769 16.868 106.561 16.956 107.441 16.956C108.291 16.956 109.054 16.8533 109.729 16.648C110.433 16.4133 110.99 16.0027 111.401 15.416C111.811 14.8293 112.017 13.964 112.017 12.82V12.6C112.017 11.28 111.577 10.1653 110.697 9.256C109.846 8.31733 108.79 7.848 107.529 7.848C106.619 7.848 105.915 8.03867 105.417 8.42C104.918 8.772 104.669 9.256 104.669 9.872C104.669 10.4293 104.801 10.8547 105.065 11.148C105.358 11.412 105.695 11.588 106.077 11.676C106.487 11.764 106.839 11.808 107.133 11.808C108.423 11.808 109.435 11.5147 110.169 10.928C110.902 10.3413 111.591 9.57866 112.237 8.64L113.777 10.576C113.425 11.1627 112.97 11.764 112.413 12.38C111.885 12.996 111.195 13.524 110.345 13.964C109.523 14.3747 108.497 14.58 107.265 14.58C106.267 14.58 105.329 14.4333 104.449 14.14C103.598 13.8173 102.894 13.3187 102.337 12.644C101.809 11.9693 101.545 11.0893 101.545 10.004C101.545 8.508 102.073 7.30533 103.129 6.396C104.214 5.45733 105.681 4.988 107.529 4.988C109.113 4.988 110.462 5.34 111.577 6.044C112.721 6.748 113.586 7.70133 114.173 8.904C114.789 10.0773 115.097 11.3827 115.097 12.82C115.097 15.4013 114.393 17.2493 112.985 18.364C111.606 19.4493 109.817 19.992 107.617 19.992ZM125.579 28.616C125.579 26.328 126.063 24.3187 127.031 22.588C127.999 20.828 129.334 19.464 131.035 18.496C132.766 17.4987 134.775 17 137.063 17C139.38 17 141.39 17.484 143.091 18.452C144.822 19.3907 146.171 20.7253 147.139 22.456C148.107 24.1867 148.591 26.2253 148.591 28.572C148.591 30.7427 148.122 32.664 147.183 34.336C146.244 35.9787 144.91 37.2547 143.179 38.164C141.448 39.0733 139.41 39.528 137.063 39.528C134.746 39.528 132.722 39.0733 130.991 38.164C129.29 37.2547 127.955 35.9933 126.987 34.38C126.048 32.7373 125.579 30.816 125.579 28.616ZM129.231 28.22C129.231 30.508 129.891 32.3853 131.211 33.852C132.531 35.3187 134.482 36.052 137.063 36.052C138.823 36.052 140.275 35.7293 141.419 35.084C142.592 34.4387 143.472 33.544 144.059 32.4C144.646 31.2267 144.939 29.9067 144.939 28.44C144.939 26.9733 144.646 25.6387 144.059 24.436C143.502 23.2333 142.636 22.28 141.463 21.576C140.319 20.8427 138.852 20.476 137.063 20.476C135.274 20.476 133.792 20.8427 132.619 21.576C131.475 22.28 130.624 23.2187 130.067 24.392C129.51 25.5653 129.231 26.8413 129.231 28.22ZM155.235 39.528C153.27 39.528 151.539 39.0293 150.043 38.032C148.576 37.0347 147.271 35.7293 146.127 34.116L147.887 31.256C148.708 32.3413 149.515 33.236 150.307 33.94C151.128 34.644 151.964 35.172 152.815 35.524C153.695 35.876 154.604 36.052 155.543 36.052C157.039 36.052 158.183 35.5827 158.975 34.644C159.767 33.676 160.163 32.2973 160.163 30.508C160.163 28.8067 159.811 27.3107 159.107 26.02C158.432 24.7293 157.494 23.6147 156.291 22.676C155.118 21.7373 153.783 20.9307 152.287 20.256L153.915 17.352C155.734 18.1147 157.391 19.1413 158.887 20.432C160.383 21.6933 161.571 23.16 162.451 24.832C163.36 26.4747 163.815 28.2787 163.815 30.244C163.815 33.148 163.082 35.4213 161.615 37.064C160.148 38.7067 158.022 39.528 155.235 39.528ZM170.459 39.528C168.494 39.528 166.763 39.0293 165.267 38.032C163.8 37.0347 162.495 35.7293 161.351 34.116L163.111 31.256C163.932 32.3413 164.739 33.236 165.531 33.94C166.323 34.644 167.13 35.172 167.951 35.524C168.802 35.876 169.711 36.052 170.679 36.052C172.234 36.052 173.407 35.5827 174.199 34.644C174.991 33.7053 175.387 32.3853 175.387 30.684C175.387 29.0707 175.035 27.6187 174.331 26.328C173.627 25.0373 172.688 23.8933 171.515 22.896C170.371 21.8693 169.095 21.004 167.687 20.3L169.271 17C169.564 17.1173 169.916 17.308 170.327 17.572C170.767 17.8067 171.134 18.0413 171.427 18.276L172.307 19.376C173.568 20.1093 174.698 21.0333 175.695 22.148C176.722 23.2627 177.528 24.524 178.115 25.932C178.731 27.3107 179.039 28.8213 179.039 30.464C179.039 33.2507 178.306 35.4653 176.839 37.108C175.372 38.7213 173.246 39.528 170.459 39.528ZM187.883 29.32C186.798 29.32 185.859 29.1587 185.067 28.836C184.304 28.5133 183.688 28.088 183.219 27.56C182.75 27.0027 182.398 26.4013 182.163 25.756C181.958 25.1107 181.855 24.48 181.855 23.864C181.855 22.9253 181.987 22.1187 182.251 21.444C182.544 20.7693 182.896 20.124 183.307 19.508L187.179 19.2C186.446 19.9333 185.903 20.652 185.551 21.356C185.228 22.0307 185.067 22.7347 185.067 23.468C185.067 24.348 185.316 25.0667 185.815 25.624C186.343 26.152 187.091 26.416 188.059 26.416C189.086 26.416 189.804 26.152 190.215 25.624C190.655 25.0667 190.875 24.392 190.875 23.6C190.875 22.368 190.494 21.5173 189.731 21.048C188.998 20.5493 187.956 20.3 186.607 20.3H168.831L169.271 17H184.759C186.02 17 187.091 17.0587 187.971 17.176C188.851 17.264 189.614 17.4253 190.259 17.66C190.904 17.8947 191.491 18.232 192.019 18.672C192.635 19.1413 193.134 19.7867 193.515 20.608C193.896 21.4 194.087 22.3533 194.087 23.468C194.087 25.316 193.53 26.7533 192.415 27.78C191.3 28.8067 189.79 29.32 187.883 29.32ZM151.979 20.3C151.128 20.3 150.307 20.1387 149.515 19.816C148.752 19.4933 148.048 18.892 147.403 18.012C146.758 17.1027 146.2 15.8267 145.731 14.184L149.383 12.996C149.823 14.6093 150.248 15.68 150.659 16.208C151.07 16.736 151.598 17 152.243 17C152.83 17 153.372 16.824 153.871 16.472C154.399 16.0907 155.132 15.3133 156.071 14.14L157.435 12.38C158.432 11.0893 159.342 10.0627 160.163 9.3C161.014 8.53733 161.908 7.98 162.847 7.628C163.786 7.276 164.9 7.1 166.191 7.1L166.455 10.488C165.428 10.5467 164.563 10.708 163.859 10.972C163.184 11.236 162.554 11.6613 161.967 12.248C161.41 12.8053 160.75 13.568 159.987 14.536L158.975 15.856C158.154 16.912 157.376 17.7627 156.643 18.408C155.91 19.0533 155.162 19.5373 154.399 19.86C153.666 20.1533 152.859 20.3 151.979 20.3Z" fill="#535353"/>
</svg>
