<svg width="190" height="42" viewBox="0 0 190 42" fill="none" xmlns="http://www.w3.org/2000/svg">
<path d="M14.435 36.365C13.055 36.365 11.75 36.17 10.52 35.78C9.29 35.39 8.15 34.73 7.1 33.8C6.05 32.84 5.105 31.565 4.265 29.975L5.21 27.365C6.89 27.125 8.315 26.495 9.485 25.475C10.655 24.425 11.24 23.15 11.24 21.65C11.24 20.21 10.82 19.1 9.98 18.32C9.17 17.54 7.88 17.15 6.11 17.15C5.45 17.15 4.7 17.24 3.86 17.42C3.05 17.57 2.3 17.81 1.61 18.14L0.395 15.08C1.115 14.75 2 14.465 3.05 14.225C4.1 13.985 5.165 13.865 6.245 13.865C8.075 13.865 9.62 14.18 10.88 14.81C12.17 15.41 13.145 16.295 13.805 17.465C14.495 18.635 14.84 20.06 14.84 21.74C14.84 23.39 14.345 24.875 13.355 26.195C12.395 27.485 11.12 28.505 9.53 29.255C7.94 29.975 6.185 30.335 4.265 30.335C3.455 30.335 2.78 30.23 2.24 30.02C1.7 29.81 1.28 29.51 0.98 29.12C0.71 28.7 0.575 28.205 0.575 27.635C0.575 27.035 0.785 26.525 1.205 26.105C1.655 25.655 2.33 25.43 3.23 25.43C4.16 25.43 4.925 25.625 5.525 26.015C6.125 26.375 6.755 26.945 7.415 27.725L8.045 29.48C8.585 30.65 9.395 31.55 10.475 32.18C11.555 32.81 12.785 33.125 14.165 33.125C15.305 33.125 16.28 32.96 17.09 32.63C17.9 32.3 18.56 31.85 19.07 31.28C19.82 30.44 20.3 29.48 20.51 28.4C20.75 27.32 20.87 25.955 20.87 24.305V20.885L24.47 21.335V25.295C24.47 27.755 24.035 29.81 23.165 31.46C22.325 33.11 21.14 34.34 19.61 35.15C18.11 35.96 16.385 36.365 14.435 36.365ZM27.08 30.74C26.33 30.74 25.595 30.605 24.875 30.335C24.155 30.065 23.495 29.585 22.895 28.895C22.295 28.205 21.785 27.245 21.365 26.015L23.975 24.98C24.215 25.94 24.605 26.6 25.145 26.96C25.685 27.32 26.315 27.5 27.035 27.5C28.115 27.5 29.045 27.215 29.825 26.645C30.605 26.045 31.325 25.235 31.985 24.215L32.75 27.905C32 28.805 31.19 29.51 30.32 30.02C29.48 30.5 28.4 30.74 27.08 30.74ZM37.52 41C36.23 41 35.15 40.865 34.28 40.595C33.44 40.295 32.765 39.875 32.255 39.335C31.775 38.825 31.415 38.195 31.175 37.445C30.965 36.695 30.86 35.66 30.86 34.34V13.865L34.46 14.36V34.16C34.46 34.97 34.505 35.57 34.595 35.96C34.685 36.32 34.82 36.62 35 36.86C35.33 37.28 35.81 37.535 36.44 37.625C37.1 37.685 37.745 37.715 38.375 37.715L38.015 41H37.52ZM49.49 41C48.2 41 47.12 40.865 46.25 40.595C45.38 40.295 44.69 39.875 44.18 39.335C43.7 38.825 43.34 38.195 43.1 37.445C42.89 36.695 42.785 35.66 42.785 34.34V13.865L46.385 14.36V34.16C46.385 34.97 46.43 35.57 46.52 35.96C46.61 36.32 46.745 36.62 46.925 36.86C47.255 37.28 47.735 37.535 48.365 37.625C49.025 37.685 49.67 37.715 50.3 37.715L49.94 41H49.49ZM44.81 12.155C43.01 12.155 41.36 11.78 39.86 11.03C38.39 10.25 37.055 9.215 35.855 7.925C34.655 6.635 33.545 5.225 32.525 3.695L35.27 1.94C36.38 3.56 37.415 4.88 38.375 5.9C39.365 6.92 40.37 7.67 41.39 8.15C42.41 8.6 43.55 8.825 44.81 8.825C45.38 8.825 45.89 8.78 46.34 8.69C46.79 8.6 47.135 8.51 47.375 8.42L48.455 11.615C47.975 11.765 47.435 11.9 46.835 12.02C46.265 12.11 45.59 12.155 44.81 12.155ZM60.1297 32.99C59.0197 32.99 57.9397 32.81 56.8897 32.45C55.8697 32.06 54.8797 31.46 53.9197 30.65C52.9897 29.81 52.0747 28.715 51.1747 27.365L54.0097 25.43C55.0297 26.96 55.9897 28.055 56.8897 28.715C57.7897 29.375 58.8097 29.705 59.9497 29.705C61.1797 29.705 62.1847 29.24 62.9647 28.31C63.7447 27.38 64.1347 25.85 64.1347 23.72C64.1347 21.41 63.6847 19.745 62.7847 18.725C61.9147 17.675 60.6997 17.15 59.1397 17.15C58.2097 17.15 57.3247 17.27 56.4847 17.51C55.6447 17.72 54.8947 18.005 54.2347 18.365L53.1097 15.35C54.0997 14.84 55.1347 14.465 56.2147 14.225C57.3247 13.985 58.3597 13.865 59.3197 13.865C60.9997 13.865 62.4697 14.225 63.7297 14.945C64.9897 15.635 65.9797 16.715 66.6997 18.185C67.4197 19.625 67.7797 21.485 67.7797 23.765C67.7797 25.685 67.5397 27.245 67.0597 28.445C66.6097 29.645 66.0097 30.575 65.2597 31.235C64.5097 31.895 63.6847 32.36 62.7847 32.63C61.8847 32.87 60.9997 32.99 60.1297 32.99ZM78.8947 41C77.6047 41 76.5247 40.865 75.6547 40.595C74.8147 40.295 74.1397 39.875 73.6297 39.335C73.1497 38.825 72.7897 38.195 72.5497 37.445C72.3397 36.695 72.2347 35.66 72.2347 34.34V13.865L75.8347 14.36V34.16C75.8347 34.97 75.8797 35.57 75.9697 35.96C76.0597 36.32 76.1947 36.62 76.3747 36.86C76.7047 37.28 77.1847 37.535 77.8147 37.625C78.4747 37.685 79.1197 37.715 79.7497 37.715L79.3897 41H78.8947ZM71.888 12.56C71.408 11.75 71.018 10.865 70.718 9.905C70.388 8.945 70.223 8 70.223 7.07C70.223 4.88 70.883 3.275 72.203 2.255C73.493 1.205 75.128 0.679999 77.108 0.679999C78.098 0.679999 78.998 0.784998 79.808 0.994997C80.588 1.175 81.278 1.43 81.878 1.76L80.888 4.64C80.378 4.37 79.838 4.145 79.268 3.965C78.698 3.785 78.083 3.695 77.423 3.695C76.163 3.695 75.233 4.055 74.633 4.775C74.033 5.465 73.733 6.35 73.733 7.43C73.733 8.24 73.883 9.02 74.183 9.77C74.453 10.49 74.828 11.285 75.308 12.155L71.888 12.56Z" fill="#FEFEFE"/>
<path d="M92.003 33.755C90.833 33.755 89.783 33.575 88.853 33.215C87.923 32.855 87.158 32.39 86.558 31.82C85.808 31.07 85.238 30.2 84.848 29.21C84.488 28.22 84.308 26.9 84.308 25.25V21.2C84.308 20.39 84.263 19.805 84.173 19.445C84.083 19.055 83.948 18.74 83.768 18.5C83.468 18.08 82.988 17.84 82.328 17.78C81.668 17.69 81.023 17.645 80.393 17.645L80.753 14.36H81.203C82.523 14.36 83.603 14.51 84.443 14.81C85.313 15.08 86.003 15.485 86.513 16.025C87.023 16.535 87.383 17.165 87.593 17.915C87.803 18.665 87.908 19.715 87.908 21.065V24.935C87.908 26.315 88.028 27.35 88.268 28.04C88.508 28.7 88.823 29.225 89.213 29.615C89.543 29.915 89.963 30.14 90.473 30.29C91.013 30.44 91.643 30.515 92.363 30.515C93.563 30.515 94.688 30.23 95.738 29.66C96.788 29.06 97.658 28.37 98.348 27.59V31.64C97.508 32.27 96.563 32.78 95.513 33.17C94.493 33.56 93.323 33.755 92.003 33.755ZM104.513 41C103.223 41 102.143 40.865 101.273 40.595C100.403 40.295 99.713 39.875 99.203 39.335C98.723 38.825 98.363 38.195 98.123 37.445C97.913 36.695 97.808 35.66 97.808 34.34V13.865L101.408 14.36V34.16C101.408 34.97 101.453 35.57 101.543 35.96C101.633 36.32 101.768 36.62 101.948 36.86C102.278 37.28 102.758 37.535 103.388 37.625C104.048 37.685 104.693 37.715 105.323 37.715L104.963 41H104.513ZM116.454 41C115.404 41 114.414 40.895 113.484 40.685C112.584 40.445 111.819 39.995 111.189 39.335C110.589 38.735 110.199 38.03 110.019 37.22C109.839 36.41 109.749 35.45 109.749 34.34V13.505C109.539 12.005 109.239 10.67 108.849 9.5C108.459 8.3 108.009 7.295 107.499 6.485C106.989 5.645 106.419 5.015 105.789 4.595C105.189 4.145 104.544 3.92 103.854 3.92C102.954 3.92 102.204 4.265 101.604 4.955C100.974 5.615 100.659 6.695 100.659 8.195C100.659 8.615 100.674 9.065 100.704 9.545C100.734 10.025 100.794 10.49 100.884 10.94H97.4192C97.3292 10.52 97.2542 10.01 97.1942 9.41C97.1342 8.78 97.1042 8.225 97.1042 7.745C97.1042 5.525 97.7042 3.8 98.9042 2.57C100.104 1.31 101.754 0.679999 103.854 0.679999C105.204 0.679999 106.419 1.025 107.499 1.715C108.609 2.405 109.554 3.35 110.334 4.55C111.144 5.72 111.789 7.07 112.269 8.6C112.779 10.1 113.139 11.69 113.349 13.37V34.16C113.349 35 113.394 35.585 113.484 35.915C113.574 36.245 113.724 36.56 113.934 36.86C114.264 37.28 114.744 37.535 115.374 37.625C116.034 37.685 116.664 37.715 117.264 37.715L116.904 41H116.454ZM128.318 41C127.268 41 126.278 40.895 125.348 40.685C124.448 40.445 123.683 39.995 123.053 39.335C122.483 38.735 122.108 38.075 121.928 37.355C121.748 36.605 121.658 35.6 121.658 34.34V9.95C121.658 7.91 121.883 6.305 122.333 5.135C122.813 3.965 123.518 3.005 124.448 2.255C125.048 1.775 125.753 1.4 126.563 1.13C127.403 0.829999 128.378 0.679999 129.488 0.679999C130.868 0.679999 132.218 0.994998 133.538 1.625C134.858 2.255 136.163 3.215 137.453 4.505C138.743 5.765 140.018 7.385 141.278 9.365L138.398 11.075C136.928 8.945 135.503 7.22 134.123 5.9C132.773 4.58 131.303 3.92 129.713 3.92C129.143 3.92 128.618 3.995 128.138 4.145C127.658 4.265 127.208 4.52 126.788 4.91C126.218 5.42 125.813 6.17 125.573 7.16C125.363 8.12 125.258 9.47 125.258 11.21V34.16C125.258 34.97 125.303 35.57 125.393 35.96C125.483 36.32 125.618 36.62 125.798 36.86C126.128 37.28 126.608 37.535 127.238 37.625C127.868 37.685 128.498 37.715 129.128 37.715L128.768 41H128.318ZM141.398 41.45C138.698 41.45 136.433 40.79 134.603 39.47C132.803 38.15 131.243 36.485 129.923 34.475L133.073 32.54C134.483 34.67 135.833 36.14 137.123 36.95C138.413 37.76 139.793 38.165 141.263 38.165C142.703 38.165 143.843 37.835 144.683 37.175C145.523 36.485 145.943 35.51 145.943 34.25C145.943 33.38 145.778 32.615 145.448 31.955C145.118 31.295 144.548 30.635 143.738 29.975C142.928 29.285 141.803 28.52 140.363 27.68C138.923 26.81 137.768 25.985 136.898 25.205C136.058 24.425 135.458 23.615 135.098 22.775C134.738 21.935 134.558 21.02 134.558 20.03C134.558 18.26 135.233 16.79 136.583 15.62C137.963 14.45 139.898 13.865 142.388 13.865C143.168 13.865 143.948 13.91 144.728 14C145.508 14.06 146.303 14.195 147.113 14.405L146.438 17.555C145.658 17.375 144.953 17.27 144.323 17.24C143.693 17.18 143.033 17.15 142.343 17.15C140.993 17.15 139.958 17.42 139.238 17.96C138.548 18.47 138.203 19.19 138.203 20.12C138.203 20.75 138.353 21.305 138.653 21.785C138.953 22.235 139.448 22.715 140.138 23.225C140.858 23.705 141.818 24.32 143.018 25.07C144.578 26 145.853 26.915 146.843 27.815C147.833 28.715 148.568 29.675 149.048 30.695C149.528 31.685 149.768 32.825 149.768 34.115C149.768 36.305 149.048 38.075 147.608 39.425C146.198 40.775 144.128 41.45 141.398 41.45ZM163.378 33.755C161.668 33.755 160.153 33.44 158.833 32.81C157.513 32.18 156.373 31.295 155.413 30.155C154.483 28.985 153.718 27.605 153.118 26.015C154.918 25.505 156.343 24.83 157.393 23.99C158.473 23.15 159.013 22.04 159.013 20.66C159.013 19.55 158.638 18.68 157.888 18.05C157.168 17.42 156.178 17.105 154.918 17.105C154.378 17.105 153.943 17.135 153.613 17.195C153.313 17.225 152.983 17.27 152.623 17.33L151.813 14.27C152.143 14.18 152.563 14.09 153.073 14C153.613 13.91 154.303 13.865 155.143 13.865C156.673 13.865 157.993 14.135 159.103 14.675C160.243 15.185 161.113 15.95 161.713 16.97C162.343 17.96 162.658 19.175 162.658 20.615C162.658 22.415 162.118 23.915 161.038 25.115C159.988 26.315 158.578 27.26 156.808 27.95L157.573 27.095C157.963 27.995 158.653 28.79 159.643 29.48C160.633 30.17 161.848 30.515 163.288 30.515C164.848 30.515 166.183 30.215 167.293 29.615C168.433 29.015 169.378 28.31 170.128 27.5V31.595C169.288 32.225 168.343 32.75 167.293 33.17C166.243 33.56 164.938 33.755 163.378 33.755ZM176.743 41C175.453 41 174.388 40.865 173.548 40.595C172.708 40.295 172.018 39.875 171.478 39.335C170.968 38.825 170.593 38.195 170.353 37.445C170.143 36.695 170.038 35.66 170.038 34.34V13.865L173.638 14.315V34.16C173.638 35 173.683 35.6 173.773 35.96C173.863 36.32 174.043 36.65 174.313 36.95C174.643 37.34 175.093 37.565 175.663 37.625C176.263 37.685 176.893 37.715 177.553 37.715L177.193 41H176.743ZM188.656 41C187.366 41 186.301 40.865 185.461 40.595C184.621 40.295 183.931 39.875 183.391 39.335C182.881 38.825 182.506 38.195 182.266 37.445C182.056 36.695 181.951 35.66 181.951 34.34V13.865L185.551 14.315V34.16C185.551 35 185.596 35.6 185.686 35.96C185.776 36.32 185.956 36.65 186.226 36.95C186.556 37.34 187.006 37.565 187.576 37.625C188.176 37.685 188.806 37.715 189.466 37.715L189.106 41H188.656Z" fill="#216DE6"/>
</svg>
