<svg width="194" height="27" viewBox="0 0 194 27" fill="none" xmlns="http://www.w3.org/2000/svg">
<path d="M12.92 26.384C10.0827 26.384 7.71467 25.9467 5.816 25.072C3.93867 24.176 2.53067 22.9493 1.592 21.392C0.653333 19.8347 0.184 18.0533 0.184 16.048C0.184 14.32 0.472 12.8587 1.048 11.664C1.624 10.4693 2.40267 9.56267 3.384 8.944C4.38667 8.304 5.50667 7.984 6.744 7.984C8.13067 7.984 9.24 8.368 10.072 9.136C10.904 9.904 11.32 10.9493 11.32 12.272C11.32 13.6373 10.8507 14.7893 9.912 15.728C8.97333 16.6453 7.59733 17.104 5.784 17.104C5.16533 17.104 4.6 17.0293 4.088 16.88C3.59733 16.7307 3.14933 16.5387 2.744 16.304C2.78667 17.584 3.14933 18.8 3.832 19.952C4.51467 21.0827 5.60267 22.0107 7.096 22.736C8.61067 23.44 10.616 23.792 13.112 23.792C15.1173 23.792 16.7387 23.6 17.976 23.216C19.2347 22.832 20.152 22.32 20.728 21.68C21.3253 21.0187 21.624 20.2933 21.624 19.504C21.624 18.736 21.336 18.1387 20.76 17.712C20.248 17.904 19.6613 18.0533 19 18.16C18.3387 18.2453 17.5493 18.288 16.632 18.288H10.168V15.856H17.432C16.6213 15.408 15.9707 14.8747 15.48 14.256C15.0107 13.616 14.776 12.8267 14.776 11.888C14.776 10.6507 15.2347 9.69067 16.152 9.008C17.0907 8.32533 18.2747 7.984 19.704 7.984C20.9413 7.984 21.944 8.208 22.712 8.656C23.48 9.08267 24.0453 9.63733 24.408 10.32C24.7707 11.0027 24.952 11.7387 24.952 12.528C24.952 13.3813 24.7493 14.1387 24.344 14.8C23.96 15.4613 23.4587 16.0373 22.84 16.528C23.2667 16.8907 23.5973 17.3387 23.832 17.872C24.088 18.4053 24.216 19.024 24.216 19.728C24.216 20.56 24.0347 21.3707 23.672 22.16C23.3307 22.9493 22.7333 23.664 21.88 24.304C21.0267 24.944 19.8747 25.456 18.424 25.84C16.9733 26.2027 15.1387 26.384 12.92 26.384ZM20.408 15.216C20.4507 15.2373 20.504 15.2587 20.568 15.28C21.0587 14.9813 21.4747 14.5973 21.816 14.128C22.1787 13.6587 22.36 13.1253 22.36 12.528C22.36 11.888 22.136 11.344 21.688 10.896C21.24 10.4267 20.568 10.192 19.672 10.192C18.9253 10.192 18.3387 10.384 17.912 10.768C17.5067 11.1307 17.304 11.6 17.304 12.176C17.304 12.8587 17.5707 13.4347 18.104 13.904C18.6587 14.352 19.4267 14.7893 20.408 15.216ZM6.744 10.224C5.74133 10.224 4.90933 10.544 4.248 11.184C3.58667 11.824 3.13867 12.7413 2.904 13.936C3.24533 14.192 3.62933 14.416 4.056 14.608C4.504 14.7787 5.016 14.864 5.592 14.864C6.72267 14.864 7.544 14.6293 8.056 14.16C8.568 13.6907 8.824 13.0933 8.824 12.368C8.824 11.6853 8.632 11.1627 8.248 10.8C7.864 10.416 7.36267 10.224 6.744 10.224ZM41.8743 8.368V10.832H41.0743C42.2263 11.6853 43.0796 12.7093 43.6343 13.904C44.2103 15.0773 44.5836 16.3467 44.7543 17.712C44.9463 19.0773 45.0423 20.4533 45.0423 21.84V26H42.1303V22.48C42.1303 20.9013 42.0556 19.504 41.9062 18.288C41.7783 17.072 41.5649 16.0587 41.2663 15.248C40.7543 13.8613 40.1143 12.7733 39.3463 11.984C38.5996 11.1733 37.5969 10.768 36.3383 10.768C35.3996 10.768 34.5996 10.992 33.9383 11.44C33.2769 11.8667 32.7223 12.4427 32.2743 13.168C31.8263 13.8933 31.4529 14.7147 31.1543 15.632C30.6636 17.168 30.4183 19.4507 30.4183 22.48V26H27.5063V21.936C27.5063 20.3787 27.6129 18.896 27.8263 17.488C28.0609 16.08 28.4663 14.8107 29.0423 13.68C29.6183 12.5493 30.4396 11.6 31.5063 10.832H27.4103V8.368H41.8743ZM51.5063 16.56C50.0129 16.56 48.8183 16.0693 47.9223 15.088C47.0263 14.1067 46.5783 12.72 46.5783 10.928V10.832H41.3623V8.368H46.8343C47.2183 6.87467 47.9543 5.73333 49.0423 4.944C50.1516 4.13333 51.4956 3.728 53.0743 3.728C53.9063 3.728 54.6423 3.824 55.2823 4.016C55.9436 4.208 56.5089 4.44267 56.9783 4.72L55.6023 6.736C54.7063 6.24533 53.7676 6 52.7863 6C52.0183 6 51.3249 6.18133 50.7063 6.544C50.0876 6.88533 49.6289 7.49333 49.3303 8.368H50.1623C51.1649 8.368 52.0289 8.464 52.7543 8.656C53.5009 8.82667 54.1196 9.14667 54.6103 9.616C55.4423 10.3413 55.8583 11.3547 55.8583 12.656C55.8583 13.9573 55.4423 14.9387 54.6103 15.6C53.7996 16.24 52.7649 16.56 51.5063 16.56ZM48.9783 11.056C48.9783 12.0587 49.1916 12.8693 49.6183 13.488C50.0663 14.0853 50.7169 14.384 51.5703 14.384C52.1036 14.384 52.5409 14.2667 52.8823 14.032C53.2449 13.776 53.4263 13.3387 53.4263 12.72C53.4263 12.144 53.2343 11.696 52.8503 11.376C52.5943 11.1627 52.2956 11.024 51.9543 10.96C51.6129 10.8747 51.1329 10.832 50.5143 10.832H48.9783V11.056ZM74.289 10.832H65.553C64.2943 10.832 63.3663 10.864 62.769 10.928C62.1717 10.992 61.649 11.1733 61.201 11.472C60.5823 11.856 60.273 12.4853 60.273 13.36C60.273 13.8933 60.369 14.3093 60.561 14.608C60.7743 14.9067 61.0517 15.1627 61.393 15.376C61.7557 15.5893 62.2143 15.7387 62.769 15.824C63.3237 15.888 64.1023 15.92 65.105 15.92H68.785V18.384H65.713C64.9237 18.384 64.2943 18.3947 63.825 18.416C63.377 18.4373 63.0143 18.48 62.737 18.544C62.481 18.5867 62.2357 18.6507 62.001 18.736C61.553 18.928 61.1903 19.2053 60.913 19.568C60.657 19.9093 60.529 20.3467 60.529 20.88C60.529 21.5627 60.6997 22.096 61.041 22.48C61.3823 22.8427 61.8303 23.0987 62.385 23.248C62.961 23.3973 63.5797 23.472 64.241 23.472H64.561V26H64.081C62.929 26 61.8837 25.84 60.945 25.52C60.0277 25.2 59.2917 24.688 58.737 23.984C58.1823 23.2587 57.905 22.3093 57.905 21.136C57.905 19.344 58.6943 18.0533 60.273 17.264C59.505 16.8373 58.8757 16.2827 58.385 15.6C57.8943 14.896 57.649 14.0213 57.649 12.976C57.649 12.3787 57.777 11.8133 58.033 11.28C58.289 10.7253 58.6197 10.2667 59.025 9.904C59.4943 9.49867 60.0063 9.18933 60.561 8.976C61.1157 8.76267 61.7877 8.61333 62.577 8.528C63.3663 8.42133 64.337 8.368 65.489 8.368H74.289V10.832Z" fill="white"/>
<path d="M85.5653 14.672C84.5839 14.672 83.7199 14.5653 82.9733 14.352C82.2479 14.1387 81.6613 13.9147 81.2133 13.68L82.4613 11.728C82.9306 11.984 83.3999 12.1867 83.8693 12.336C84.3599 12.464 84.9039 12.528 85.5013 12.528C86.0773 12.528 86.5999 12.4533 87.0693 12.304C87.5599 12.1333 87.9546 11.8347 88.2533 11.408C88.5519 10.96 88.7013 10.3307 88.7013 9.52V9.328C88.2959 9.69067 87.7946 10.0107 87.1973 10.288C86.6213 10.544 85.9066 10.672 85.0533 10.672C84.3279 10.672 83.6346 10.5547 82.9733 10.32C82.3119 10.064 81.7786 9.66933 81.3733 9.136C80.9679 8.60267 80.7653 7.93067 80.7653 7.12C80.7653 6.032 81.1706 5.11467 81.9813 4.368C82.8133 3.6 83.9333 3.216 85.3413 3.216C86.5573 3.216 87.5813 3.48267 88.4133 4.016C89.2666 4.54933 89.9173 5.264 90.3653 6.16C90.8133 7.056 91.0373 8.03733 91.0373 9.104C91.0373 11.0667 90.5359 12.4853 89.5333 13.36C88.5306 14.2347 87.2079 14.672 85.5653 14.672ZM83.1973 6.96C83.1973 7.38667 83.3039 7.71733 83.5173 7.952C83.7306 8.18667 83.9759 8.34667 84.2533 8.432C84.5519 8.51733 84.8186 8.56 85.0533 8.56C85.8213 8.56 86.4613 8.44267 86.9733 8.208C87.4853 7.952 87.9333 7.61067 88.3173 7.184C88.0399 6.608 87.6346 6.16 87.1013 5.84C86.5893 5.52 86.0026 5.36 85.3413 5.36C84.6373 5.36 84.1039 5.50933 83.7413 5.808C83.3786 6.08533 83.1973 6.46933 83.1973 6.96ZM81.9493 26.384C80.7546 26.384 79.6773 26.1493 78.7173 25.68C77.7786 25.2107 77.0426 24.5493 76.5093 23.696C75.9759 22.8427 75.7093 21.8293 75.7093 20.656C75.7093 19.7173 75.9013 18.8747 76.2853 18.128C76.6693 17.36 77.2239 16.752 77.9493 16.304C78.6746 15.856 79.5493 15.632 80.5733 15.632C81.7039 15.632 82.6106 15.8987 83.2933 16.432C83.9759 16.9653 84.3173 17.6907 84.3173 18.608C84.3173 18.9493 84.2853 19.2907 84.2213 19.632C84.1573 19.9733 84.0506 20.2613 83.9013 20.496L81.7253 20.304C81.7679 20.1333 81.8106 19.9627 81.8533 19.792C81.8959 19.6 81.9173 19.4293 81.9173 19.28C81.9173 18.3413 81.4373 17.872 80.4773 17.872C79.8159 17.872 79.2613 18.1067 78.8133 18.576C78.3866 19.024 78.1733 19.6853 78.1733 20.56C78.1733 21.52 78.5039 22.3093 79.1653 22.928C79.8266 23.5467 80.8399 23.856 82.2053 23.856C83.6773 23.856 84.7546 23.4827 85.4373 22.736C86.1199 21.9893 86.5146 20.9973 86.6213 19.76H89.0533C89.1599 21.1893 89.5759 22.2347 90.3013 22.896C91.0479 23.536 91.9333 23.856 92.9573 23.856C94.1093 23.856 94.9306 23.4827 95.4213 22.736C95.9119 21.968 96.1573 21.0187 96.1573 19.888C96.1573 18.9067 95.9653 17.9147 95.5813 16.912C95.1973 15.888 94.4933 14.7893 93.4693 13.616L95.7413 12.08C96.7226 13.168 97.4693 14.3307 97.9813 15.568C98.5146 16.784 98.7813 18.1493 98.7813 19.664C98.7813 21.2 98.5146 22.4693 97.9813 23.472C97.4693 24.4533 96.7866 25.1893 95.9333 25.68C95.0799 26.1493 94.1626 26.384 93.1813 26.384C92.1999 26.384 91.3893 26.2667 90.7493 26.032C90.1093 25.8187 89.5653 25.4987 89.1173 25.072C88.6693 24.6453 88.2426 24.1227 87.8373 23.504C87.0693 24.6773 86.2159 25.456 85.2773 25.84C84.3386 26.2027 83.2293 26.384 81.9493 26.384ZM112.193 12.24C112.193 13.6053 111.713 14.7573 110.753 15.696C109.814 16.6347 108.427 17.104 106.593 17.104C106.017 17.104 105.483 17.04 104.993 16.912C104.502 16.784 104.065 16.6133 103.681 16.4C103.83 18.2773 104.481 19.8133 105.633 21.008C106.785 22.1813 108.235 23.1627 109.985 23.952L108.609 26.384C107.158 25.68 105.867 24.8267 104.737 23.824C103.606 22.8 102.721 21.616 102.081 20.272C101.441 18.928 101.121 17.392 101.121 15.664C101.121 14.0853 101.398 12.7307 101.953 11.6C102.507 10.448 103.265 9.56267 104.225 8.944C105.185 8.304 106.283 7.984 107.521 7.984C109.035 7.984 110.187 8.37867 110.977 9.168C111.787 9.95733 112.193 10.9813 112.193 12.24ZM107.393 10.224C106.561 10.224 105.793 10.544 105.089 11.184C104.406 11.824 103.958 12.752 103.745 13.968C104.065 14.224 104.438 14.4373 104.865 14.608C105.313 14.7787 105.814 14.864 106.369 14.864C107.499 14.864 108.321 14.6293 108.833 14.16C109.345 13.6693 109.601 13.0613 109.601 12.336C109.601 10.928 108.865 10.224 107.393 10.224ZM119.943 26.384C118.279 26.384 116.935 25.7547 115.911 24.496C114.887 23.2373 114.375 21.2853 114.375 18.64C114.375 17.2533 114.61 15.9627 115.079 14.768C115.57 13.552 116.253 12.496 117.127 11.6C116.594 10.9813 116.157 10.288 115.815 9.52C115.495 8.752 115.335 7.99467 115.335 7.248C115.335 6.01067 115.645 5.02933 116.263 4.304C116.903 3.57867 117.746 3.056 118.791 2.736C119.837 2.39467 120.978 2.224 122.215 2.224C124.05 2.224 125.682 2.45867 127.111 2.928C128.541 3.39733 129.799 4.02666 130.887 4.816C132.53 5.98933 133.746 7.376 134.535 8.976C135.325 10.576 135.719 12.2613 135.719 14.032C135.719 14.8427 135.602 15.568 135.367 16.208C136.029 17.36 136.359 18.6613 136.359 20.112C136.359 21.3707 136.103 22.4693 135.591 23.408C135.101 24.3467 134.429 25.0827 133.575 25.616C132.722 26.128 131.741 26.384 130.631 26.384C129.33 26.384 128.274 26.1707 127.463 25.744C126.653 25.296 125.917 24.56 125.255 23.536C124.53 24.7093 123.719 25.4773 122.823 25.84C121.927 26.2027 120.967 26.384 119.943 26.384ZM125.255 8.336C126.877 8.336 128.413 8.61333 129.863 9.168C131.335 9.70133 132.583 10.6613 133.607 12.048L133.703 12.016C132.722 9.66933 131.111 7.83467 128.871 6.512C127.954 5.95733 126.973 5.53067 125.927 5.232C124.882 4.912 123.687 4.752 122.343 4.752C120.722 4.752 119.581 4.99733 118.919 5.488C118.258 5.95733 117.927 6.58667 117.927 7.376C117.927 8.37867 118.301 9.264 119.047 10.032C119.901 9.49867 120.85 9.08267 121.895 8.784C122.941 8.48533 124.061 8.336 125.255 8.336ZM120.295 23.856C121.362 23.856 122.205 23.504 122.823 22.8C123.442 22.0747 123.847 21.1787 124.039 20.112H126.471C126.685 21.4133 127.143 22.3627 127.847 22.96C128.573 23.5573 129.415 23.856 130.375 23.856C131.314 23.856 132.146 23.568 132.871 22.992C133.597 22.416 133.959 21.4453 133.959 20.08C133.959 19.504 133.895 18.9387 133.767 18.384C133.383 18.8107 132.903 19.152 132.327 19.408C131.773 19.664 131.122 19.792 130.375 19.792C129.33 19.792 128.413 19.5147 127.623 18.96C126.855 18.4053 126.471 17.5413 126.471 16.368C126.471 15.2587 126.834 14.448 127.559 13.936C128.306 13.4027 129.159 13.136 130.119 13.136C130.631 13.136 131.079 13.1893 131.463 13.296C131.869 13.3813 132.231 13.4987 132.551 13.648C132.103 12.7947 131.314 12.112 130.183 11.6C129.053 11.088 127.719 10.832 126.183 10.832H125.063C123.314 10.832 121.831 11.1947 120.615 11.92C119.421 12.624 118.514 13.5947 117.895 14.832C117.298 16.048 116.999 17.4347 116.999 18.992C116.999 20.7413 117.287 21.9893 117.863 22.736C118.439 23.4827 119.25 23.856 120.295 23.856ZM128.871 16.368C128.871 17.3067 129.426 17.776 130.535 17.776C130.941 17.776 131.367 17.6693 131.815 17.456C132.263 17.2213 132.583 16.816 132.775 16.24C132.498 15.8987 132.157 15.6213 131.751 15.408C131.367 15.1947 130.919 15.088 130.407 15.088C129.959 15.088 129.586 15.2053 129.287 15.44C129.01 15.6533 128.871 15.9627 128.871 16.368ZM147.45 26.384C145.871 26.384 144.538 26.1067 143.45 25.552C142.362 24.9973 141.476 24.2613 140.794 23.344C140.132 22.4267 139.642 21.424 139.322 20.336C139.023 19.248 138.874 18.16 138.874 17.072C138.874 15.344 139.226 13.7973 139.93 12.432C140.634 11.0453 141.626 9.95733 142.906 9.168C144.186 8.37867 145.679 7.984 147.386 7.984C148.986 7.984 150.33 8.272 151.418 8.848C152.506 9.40267 153.38 10.1387 154.042 11.056C154.703 11.9733 155.172 12.976 155.45 14.064C155.748 15.1307 155.898 16.1653 155.898 17.168C155.898 18.5333 155.695 19.7813 155.29 20.912C156.1 21.872 156.932 22.608 157.786 23.12C158.639 23.6107 159.61 23.856 160.698 23.856C162.02 23.856 163.034 23.44 163.738 22.608C164.442 21.776 164.794 20.6667 164.794 19.28C164.794 17.232 164.218 15.472 163.066 14C161.935 12.5067 160.42 11.4507 158.522 10.832H156.794V8.368H160.378C161.53 8.368 162.34 8.31467 162.81 8.208C163.279 8.10133 163.62 7.96267 163.834 7.792C164.111 7.57867 164.292 7.344 164.378 7.088C164.484 6.81067 164.538 6.52267 164.538 6.224C164.538 4.85867 163.844 3.48267 162.458 2.096L164.538 0.719999C165.54 1.82933 166.223 2.832 166.586 3.728C166.948 4.60267 167.13 5.49867 167.13 6.416C167.13 6.82133 167.044 7.32267 166.874 7.92C166.724 8.496 166.372 9.01867 165.818 9.488C165.434 9.82933 165.007 10.1067 164.538 10.32C164.09 10.512 163.535 10.6507 162.874 10.736C164.324 11.696 165.444 12.8587 166.234 14.224C167.023 15.5893 167.418 17.2213 167.418 19.12C167.418 19.824 167.354 20.496 167.226 21.136C167.994 22.0107 168.794 22.6827 169.626 23.152C170.479 23.6213 171.418 23.856 172.442 23.856C173.764 23.856 174.778 23.44 175.482 22.608C176.186 21.776 176.538 20.6667 176.538 19.28C176.538 17.232 175.962 15.472 174.81 14C173.679 12.5067 172.164 11.4507 170.266 10.832H168.986V8.368H175.578V10.832H174.714C176.122 11.792 177.21 12.944 177.978 14.288C178.767 15.632 179.162 17.2427 179.162 19.12C179.162 19.9733 179.044 20.8373 178.81 21.712C178.596 22.5653 178.234 23.344 177.722 24.048C177.21 24.752 176.516 25.3173 175.642 25.744C174.767 26.1707 173.69 26.384 172.41 26.384C171.151 26.384 170.02 26.128 169.018 25.616C168.015 25.104 167.098 24.4427 166.266 23.632C165.754 24.4213 165.039 25.0827 164.122 25.616C163.226 26.128 162.074 26.384 160.666 26.384C159.3 26.384 158.074 26.0853 156.986 25.488C155.919 24.8907 154.959 24.1227 154.106 23.184C153.359 24.1867 152.42 24.976 151.29 25.552C150.159 26.1067 148.879 26.384 147.45 26.384ZM147.386 23.856C149.156 23.856 150.575 23.2693 151.642 22.096C152.73 20.9227 153.274 19.248 153.274 17.072C153.274 15.1093 152.772 13.5307 151.77 12.336C150.788 11.12 149.316 10.512 147.354 10.512C145.69 10.512 144.292 11.0667 143.162 12.176C142.052 13.264 141.498 14.9173 141.498 17.136C141.498 19.312 142.02 20.976 143.066 22.128C144.111 23.28 145.551 23.856 147.386 23.856ZM193.368 18.288C193.368 20.8693 192.781 22.864 191.608 24.272C190.434 25.68 188.76 26.384 186.584 26.384C185.41 26.384 184.408 26.16 183.576 25.712C182.765 25.2427 182.146 24.624 181.72 23.856C181.314 23.0667 181.112 22.2027 181.112 21.264C181.112 19.8773 181.453 18.832 182.136 18.128C182.84 17.424 183.682 17.072 184.664 17.072C185.453 17.072 186.05 17.2747 186.456 17.68C186.882 18.064 187.096 18.576 187.096 19.216C187.096 19.8133 186.925 20.2933 186.584 20.656C186.264 21.0187 185.848 21.2 185.336 21.2C184.333 21.2 183.746 20.7307 183.576 19.792C183.469 20.1547 183.416 20.5707 183.416 21.04C183.416 21.808 183.65 22.5013 184.12 23.12C184.61 23.7173 185.442 24.016 186.616 24.016C187.874 24.016 188.877 23.5467 189.624 22.608C190.37 21.6693 190.744 20.2293 190.744 18.288C190.744 15.9413 190.146 14.1387 188.952 12.88C188.525 12.4107 188.045 12.0267 187.512 11.728C186.978 11.4293 186.296 11.2053 185.464 11.056C184.632 10.9067 183.565 10.832 182.264 10.832H174.456V8.368H182.872C185.005 8.368 186.701 8.61333 187.96 9.104C189.24 9.59467 190.296 10.32 191.128 11.28C191.853 12.0693 192.408 13.0613 192.792 14.256C193.176 15.4293 193.368 16.7733 193.368 18.288Z" fill="#216DE6"/>
</svg>
