<svg width="192" height="29" viewBox="0 0 192 29" fill="none" xmlns="http://www.w3.org/2000/svg">
<path d="M12.6741 28.12C11.6941 28.12 10.6541 28.01 9.55414 27.79C8.47414 27.57 7.41414 27.2 6.37414 26.68C5.35414 26.16 4.42414 25.47 3.58414 24.61C2.76414 23.73 2.10414 22.64 1.60414 21.34C1.12414 20.04 0.884141 18.49 0.884141 16.69C0.884141 15.33 0.974141 14.12 1.15414 13.06C1.33414 12 1.52414 11.12 1.72414 10.42H0.494141V8.23H21.5541V10.42H16.6941V25.36C17.3141 25.16 17.9341 24.91 18.5541 24.61C19.1741 24.31 19.7941 23.93 20.4141 23.47L21.8541 25.39C20.5341 26.29 19.1141 26.97 17.5941 27.43C16.0741 27.89 14.4341 28.12 12.6741 28.12ZM3.40414 16.69C3.40414 18.25 3.62414 19.58 4.06414 20.68C4.50414 21.78 5.08414 22.69 5.80414 23.41C6.54414 24.11 7.35414 24.65 8.23414 25.03V10.42H4.48414C4.20414 11.2 3.95414 12.14 3.73414 13.24C3.51414 14.32 3.40414 15.47 3.40414 16.69ZM12.6441 25.9C13.2041 25.9 13.7341 25.88 14.2341 25.84V10.42H10.6941V25.75C11.3341 25.85 11.9841 25.9 12.6441 25.9ZM26.5939 12.7C25.7739 12.7 25.0539 12.46 24.4339 11.98C23.8339 11.48 23.5339 10.73 23.5339 9.73C23.5339 9.03 23.7139 8.44 24.0739 7.96C24.4339 7.48 24.9239 7.02 25.5439 6.58C25.2239 6.2 24.7939 5.84 24.2539 5.5C23.7139 5.14 23.1339 4.78 22.5139 4.42L23.5639 2.77C24.2439 3.17 24.9439 3.63 25.6639 4.15C26.3839 4.67 27.0439 5.24 27.6439 5.86C28.2639 6.46 28.7639 7.1 29.1439 7.78C29.5239 8.44 29.7139 9.11 29.7139 9.79C29.7139 10.45 29.5539 11 29.2339 11.44C28.9339 11.86 28.5439 12.18 28.0639 12.4C27.6039 12.6 27.1139 12.7 26.5939 12.7ZM26.5339 10.96C26.7939 10.96 27.0539 10.85 27.3139 10.63C27.5739 10.41 27.7039 10.08 27.7039 9.64C27.7039 8.86 27.4139 8.21 26.8339 7.69C26.4139 7.95 26.0739 8.24 25.8139 8.56C25.5539 8.88 25.4239 9.27 25.4239 9.73C25.4239 10.11 25.5239 10.41 25.7239 10.63C25.9439 10.85 26.2139 10.96 26.5339 10.96ZM33.0934 28V15.46C33.0934 14.5 33.2034 13.57 33.4234 12.67C33.6634 11.77 34.0534 10.96 34.5934 10.24C35.1334 9.5 35.8534 8.92 36.7534 8.5C37.6534 8.06 38.7734 7.84 40.1134 7.84C41.4134 7.84 42.4934 8.06 43.3534 8.5C44.2334 8.92 44.9834 9.62 45.6034 10.6C45.8234 9.72 46.2734 9 46.9534 8.44C47.6534 7.86 48.5834 7.57 49.7434 7.57C50.8234 7.57 51.6934 7.85 52.3534 8.41C53.0334 8.97 53.5334 9.75 53.8534 10.75C54.1734 11.75 54.3434 12.9 54.3634 14.2L51.9334 14.53C51.9134 12.99 51.7334 11.83 51.3934 11.05C51.0534 10.25 50.4734 9.85 49.6534 9.85C48.6734 9.85 48.0234 10.18 47.7034 10.84C47.3834 11.5 47.2234 12.5 47.2234 13.84V28H33.0934ZM35.5834 17.41H44.7634V14.8C44.7634 14.02 44.6134 13.28 44.3134 12.58C44.0334 11.86 43.5534 11.27 42.8734 10.81C42.2134 10.35 41.3034 10.12 40.1434 10.12C39.0034 10.12 38.0934 10.36 37.4134 10.84C36.7534 11.3 36.2834 11.91 36.0034 12.67C35.7234 13.43 35.5834 14.23 35.5834 15.07V17.41ZM35.5834 25.87H44.7634V19.54H35.5834V25.87ZM58.7834 28V10.42H56.9234V8.23H77.5634V10.39H72.7634V16.36C72.7634 16.92 72.8734 17.37 73.0934 17.71C73.3334 18.05 73.7634 18.22 74.3834 18.22C74.8434 18.22 75.2234 18.04 75.5234 17.68C75.8234 17.32 76.0334 16.61 76.1534 15.55L78.4334 16.15C78.3334 16.91 78.1234 17.61 77.8034 18.25C77.5034 18.89 77.0734 19.4 76.5134 19.78C75.9534 20.16 75.2334 20.35 74.3534 20.35C73.2334 20.35 72.3934 20.13 71.8334 19.69C71.2734 19.25 70.8934 18.71 70.6934 18.07C70.5134 17.43 70.4234 16.81 70.4234 16.21V10.42H67.2134V28H64.7234V10.42H61.2134V28H58.7834ZM75.3739 7.19L69.1639 2.39L70.6639 0.439999L76.6939 5.57L75.3739 7.19Z" fill="white"/>
<path d="M80.9162 28L80.2262 25.81C81.5262 25.53 82.5362 25.06 83.2562 24.4C83.9962 23.72 84.5162 22.94 84.8162 22.06C85.1162 21.18 85.2662 20.31 85.2662 19.45C85.2662 18.07 84.8762 16.57 84.0962 14.95C83.3162 13.33 82.1762 11.82 80.6762 10.42V8.23H107.406V10.42C105.846 11.82 104.686 13.32 103.926 14.92C103.186 16.5 102.816 18.01 102.816 19.45C102.816 20.31 102.966 21.18 103.266 22.06C103.586 22.94 104.106 23.72 104.826 24.4C105.566 25.06 106.576 25.53 107.856 25.81L107.196 28C105.656 27.74 104.376 27.2 103.356 26.38C102.336 25.56 101.576 24.58 101.076 23.44C100.596 22.28 100.356 21.08 100.356 19.84C100.356 18.32 100.696 16.75 101.376 15.13C102.076 13.49 103.046 11.92 104.286 10.42H98.0762V28H95.6162V10.42H92.4662V28H90.0062V10.42H83.7662C85.0262 11.92 85.9962 13.49 86.6762 15.13C87.3762 16.75 87.7262 18.32 87.7262 19.84C87.7262 21.08 87.4762 22.28 86.9762 23.44C86.4962 24.58 85.7462 25.56 84.7262 26.38C83.7262 27.2 82.4562 27.74 80.9162 28ZM112.19 28V10.54H109.34V8.23H112.19V6.61C112.19 5.27 112.54 4.28 113.24 3.64C113.94 2.98 114.93 2.65 116.21 2.65C116.87 2.65 117.5 2.78 118.1 3.04C118.72 3.28 119.22 3.68 119.6 4.24C119.98 4.78 120.17 5.5 120.17 6.4C120.17 7.46 119.91 8.29 119.39 8.89C118.87 9.47 118.2 9.89 117.38 10.15C116.56 10.39 115.68 10.52 114.74 10.54V28H112.19ZM114.74 8.23C115.62 8.23 116.32 8.09 116.84 7.81C117.38 7.53 117.65 7.02 117.65 6.28C117.65 5.7 117.51 5.31 117.23 5.11C116.95 4.89 116.61 4.78 116.21 4.78C115.71 4.78 115.34 4.91 115.1 5.17C114.86 5.43 114.74 5.91 114.74 6.61V8.23ZM127.832 28.09C127.032 28.09 126.222 27.9 125.402 27.52C124.602 27.12 123.932 26.53 123.392 25.75C122.852 24.95 122.582 23.95 122.582 22.75C122.582 21.27 123.022 19.97 123.902 18.85C124.782 17.71 125.992 16.7 127.532 15.82C126.812 15.04 126.022 14.21 125.162 13.33C124.302 12.43 123.232 11.46 121.952 10.42V8.23H142.352V10.42H125.312C126.132 11.22 126.922 12 127.682 12.76C128.442 13.5 129.092 14.18 129.632 14.8C130.812 14.3 132.142 13.85 133.622 13.45C135.102 13.03 136.642 12.65 138.242 12.31L140.702 14.71C140.082 15.55 139.602 16.4 139.262 17.26C138.922 18.12 138.682 18.92 138.542 19.66C138.422 20.4 138.362 21.01 138.362 21.49C138.362 22.89 138.682 23.92 139.322 24.58C139.962 25.24 140.832 25.58 141.932 25.6C142.072 25.6 142.202 25.6 142.322 25.6C142.462 25.58 142.602 25.56 142.742 25.54L143.042 27.79C142.882 27.81 142.702 27.83 142.502 27.85C142.302 27.85 142.112 27.85 141.932 27.85C140.892 27.85 139.912 27.63 138.992 27.19C138.072 26.75 137.322 26.07 136.742 25.15C136.182 24.21 135.902 23.02 135.902 21.58C135.902 20.34 136.112 19.12 136.532 17.92C136.972 16.7 137.512 15.57 138.152 14.53C136.992 14.77 135.812 15.06 134.612 15.4C133.412 15.72 132.252 16.11 131.132 16.57C131.912 17.63 132.492 18.63 132.872 19.57C133.272 20.51 133.472 21.45 133.472 22.39C133.472 23.81 133.182 24.94 132.602 25.78C132.022 26.62 131.292 27.22 130.412 27.58C129.552 27.92 128.692 28.09 127.832 28.09ZM127.952 25.78C128.472 25.78 128.962 25.68 129.422 25.48C129.902 25.26 130.292 24.9 130.592 24.4C130.892 23.9 131.042 23.22 131.042 22.36C131.042 21.6 130.862 20.84 130.502 20.08C130.142 19.3 129.632 18.48 128.972 17.62C127.812 18.28 126.862 19.04 126.122 19.9C125.402 20.76 125.042 21.73 125.042 22.81C125.042 23.75 125.322 24.48 125.882 25C126.442 25.52 127.132 25.78 127.952 25.78ZM147.375 28V10.54H144.525V8.23H147.375V6.61C147.375 5.27 147.725 4.28 148.425 3.64C149.125 2.98 150.115 2.65 151.395 2.65C152.055 2.65 152.685 2.78 153.285 3.04C153.905 3.28 154.405 3.68 154.785 4.24C155.165 4.78 155.355 5.5 155.355 6.4C155.355 7.46 155.095 8.29 154.575 8.89C154.055 9.47 153.385 9.89 152.565 10.15C151.745 10.39 150.865 10.52 149.925 10.54V28H147.375ZM149.925 8.23C150.805 8.23 151.505 8.09 152.025 7.81C152.565 7.53 152.835 7.02 152.835 6.28C152.835 5.7 152.695 5.31 152.415 5.11C152.135 4.89 151.795 4.78 151.395 4.78C150.895 4.78 150.525 4.91 150.285 5.17C150.045 5.43 149.925 5.91 149.925 6.61V8.23ZM159.808 28.15L157.978 26.44L163.857 20.56C163.018 20.42 162.158 20.13 161.278 19.69C160.418 19.25 159.698 18.62 159.118 17.8C158.538 16.96 158.248 15.91 158.248 14.65C158.248 13.69 158.488 12.83 158.968 12.07C159.448 11.29 160.058 10.74 160.798 10.42H157.438V8.23H178.948V10.42H175.348C176.108 10.76 176.738 11.33 177.238 12.13C177.738 12.93 177.988 13.83 177.988 14.83C177.988 15.83 177.738 16.74 177.238 17.56C176.738 18.36 176.048 19.02 175.168 19.54C174.308 20.06 173.328 20.4 172.228 20.56L175.168 24.28C175.548 24.74 175.898 25.13 176.218 25.45C176.558 25.75 176.948 25.9 177.388 25.9C177.648 25.9 177.998 25.82 178.438 25.66L178.888 27.88C178.568 28 178.268 28.07 177.988 28.09C177.728 28.13 177.458 28.15 177.178 28.15C175.878 28.15 174.658 27.38 173.518 25.84L169.948 21.04V18.67H170.368C171.848 18.67 173.078 18.33 174.058 17.65C175.058 16.97 175.558 15.96 175.558 14.62C175.558 13.26 175.028 12.22 173.968 11.5C172.928 10.78 171.478 10.42 169.618 10.42H166.498C164.638 10.42 163.208 10.78 162.208 11.5C161.208 12.2 160.708 13.21 160.708 14.53C160.708 15.93 161.168 16.97 162.088 17.65C163.028 18.33 164.258 18.67 165.778 18.67H166.258V21.16L159.808 28.15ZM176.595 7.19L170.385 2.39L171.885 0.439999L177.915 5.57L176.595 7.19ZM183.039 28.9V7.36H185.499V28.9H183.039ZM189.009 28.9V7.36H191.439V28.9H189.009Z" fill="#216DE6"/>
</svg>
