<svg width="204" height="44" viewBox="0 0 204 44" fill="none" xmlns="http://www.w3.org/2000/svg">
<path d="M42.538 14.388V17.654H37.708V43H34.166C33.2767 41.1907 32.1727 39.6113 30.854 38.262C29.5353 36.882 28.1247 35.7013 26.622 34.72L27.772 31.684C28.9373 32.3587 30.1487 33.2787 31.406 34.444C32.6633 35.6093 33.6293 36.79 34.304 37.986C34.2733 37.526 34.2427 37.0967 34.212 36.698C34.212 36.2993 34.1967 35.8853 34.166 35.456C34.166 35.0267 34.166 34.5667 34.166 34.076V17.654H0.54V14.388H42.538ZM18.296 38.814C16.2107 38.814 14.2173 38.3233 12.316 37.342C10.4147 36.3607 8.62067 34.7047 6.934 32.374C5.278 30.0127 3.74467 26.7773 2.334 22.668L5.692 21.564C6.796 24.7533 7.946 27.3753 9.142 29.43C10.3687 31.454 11.7333 32.9413 13.236 33.892C14.7387 34.8427 16.456 35.318 18.388 35.318C20.0747 35.318 21.424 35.0573 22.436 34.536C23.4787 33.984 24.23 33.248 24.69 32.328C25.15 31.3773 25.38 30.3347 25.38 29.2C25.38 27.4213 24.8893 25.98 23.908 24.876C22.9573 23.772 21.7613 23.22 20.32 23.22C19.308 23.22 18.5413 23.45 18.02 23.91C17.4987 24.3393 17.238 24.9987 17.238 25.888C17.238 26.1027 17.2687 26.394 17.33 26.762C17.3913 27.13 17.4833 27.4673 17.606 27.774L14.11 28.464C13.8953 27.82 13.7267 27.2373 13.604 26.716C13.512 26.164 13.466 25.6427 13.466 25.152C13.466 24.0173 13.7727 23.0667 14.386 22.3C15.03 21.5333 15.8427 20.966 16.824 20.598C17.836 20.1993 18.894 20 19.998 20C21.8073 20 23.3713 20.414 24.69 21.242C26.0087 22.0393 27.036 23.1433 27.772 24.554C28.508 25.9647 28.876 27.6053 28.876 29.476C28.876 31.132 28.4927 32.6807 27.726 34.122C26.9593 35.5327 25.794 36.6673 24.23 37.526C22.666 38.3847 20.688 38.814 18.296 38.814ZM16.824 21.61C16.6707 20.6287 16.2107 19.77 15.444 19.034C14.708 18.2673 13.6193 17.7307 12.178 17.424L13.282 15.354L15.352 15.906C17.1 16.5807 18.3573 17.3473 19.124 18.206C19.8907 19.0647 20.3353 20.1533 20.458 21.472L16.824 21.61ZM64.3226 43V23.45L65.2886 26.348C64.2153 24.8147 63.2033 23.496 62.2526 22.392C61.3326 21.2573 60.4433 20.322 59.5846 19.586C58.7259 18.85 57.8519 18.3133 56.9626 17.976C56.0733 17.608 55.1379 17.424 54.1566 17.424C52.5313 17.424 51.2126 17.8533 50.2006 18.712C49.2193 19.54 48.3453 20.506 47.5786 21.61L46.9346 21.978C47.3639 21.5793 48.0233 21.2573 48.9126 21.012C49.8019 20.736 50.8293 20.598 51.9946 20.598C53.4053 20.598 54.5399 20.874 55.3986 21.426C56.2879 21.978 56.9319 22.6833 57.3306 23.542C57.7599 24.37 57.9746 25.198 57.9746 26.026C57.9746 27.8353 57.3613 29.4607 56.1346 30.902C54.9079 32.3127 53.0066 33.708 50.4306 35.088L48.0846 31.73C49.7713 31.0247 51.2279 30.2427 52.4546 29.384C53.6813 28.4947 54.2946 27.4367 54.2946 26.21C54.2946 25.5353 54.0339 24.968 53.5126 24.508C52.9913 24.048 52.2399 23.818 51.2586 23.818C50.4613 23.818 49.7099 23.91 49.0046 24.094C48.3299 24.278 47.5939 24.5693 46.7966 24.968L43.0706 21.932C44.0213 20.3373 45.0333 18.9573 46.1066 17.792C47.1799 16.596 48.3453 15.676 49.6026 15.032C50.8906 14.388 52.2859 14.066 53.7886 14.066C55.3219 14.066 56.7173 14.342 57.9746 14.894C59.2626 15.4153 60.5046 16.2127 61.7006 17.286C62.9273 18.3593 64.1539 19.6933 65.3806 21.288L64.5526 20.782C64.4913 20.3527 64.4299 19.6933 64.3686 18.804C64.3379 17.9147 64.3226 17.01 64.3226 16.09V11.352H66.7606L67.8186 14.388H72.6946V17.654H67.8646V43H64.3226ZM57.732 10.478L72.728 0.817997L74.476 3.44L59.802 13.376L57.732 10.478Z" fill="#216DE6"/>
<path d="M84.9421 14.388V17.654H80.1121V43H76.5701V17.654H71.7861V14.388H76.0181C75.5274 13.8053 75.0214 13.192 74.5001 12.548C74.0094 11.904 73.5648 11.26 73.1661 10.616C74.2088 8.80667 75.3281 7.166 76.5241 5.694C77.7201 4.19133 79.1308 3.01067 80.7561 2.152C82.3814 1.26266 84.3441 0.817997 86.6441 0.817997C88.2694 0.817997 89.8181 1.01733 91.2901 1.416C92.7928 1.81466 94.2648 2.39733 95.7061 3.164C97.1474 3.9 98.6041 4.80466 100.076 5.878C101.548 6.92066 103.081 8.086 104.676 9.374L102.744 11.858C100.628 10.1407 98.7114 8.71466 96.9941 7.58C95.3074 6.44533 93.6821 5.602 92.1181 5.05C90.5848 4.46733 88.9441 4.176 87.1961 4.176C85.5094 4.176 84.0374 4.46733 82.7801 5.05C81.5534 5.63266 80.4801 6.44533 79.5601 7.488C78.6708 8.53067 77.8581 9.742 77.1221 11.122C77.3674 11.582 77.7048 12.088 78.1341 12.64C78.5634 13.192 79.0541 13.7747 79.6061 14.388H84.9421ZM117.861 14.388V17.654H113.031V43H109.489V24.784L110.501 27.728C109.244 25.888 108.094 24.324 107.051 23.036C106.008 21.7173 105.012 20.644 104.061 19.816C103.141 18.988 102.206 18.39 101.255 18.022C100.304 17.6233 99.2768 17.424 98.1728 17.424C96.9462 17.424 95.8268 17.654 94.8148 18.114C93.8335 18.574 92.9288 19.1873 92.1008 19.954C91.2728 20.7207 90.5062 21.5487 89.8008 22.438L89.4328 22.53C89.9235 22.2233 90.3988 21.9933 90.8588 21.84C91.3495 21.6867 91.8862 21.61 92.4688 21.61C94.2475 21.61 95.5508 22.1007 96.3788 23.082C97.2068 24.0327 97.6208 25.2133 97.6208 26.624C97.6208 26.9613 97.6055 27.2833 97.5748 27.59C97.5442 27.8967 97.4982 28.1267 97.4368 28.28L96.6548 28.004C97.0228 27.6053 97.3755 27.222 97.7128 26.854C98.0502 26.486 98.4028 26.118 98.7708 25.75C99.1695 25.382 99.5682 24.9987 99.9668 24.6L105.671 19.264L107.925 21.702L94.8608 34.03L92.1468 31.5L95.9188 27.912L94.2628 29.89L92.8828 30.948C93.3428 30.4267 93.7262 29.8747 94.0328 29.292C94.3702 28.6787 94.5388 27.9887 94.5388 27.222C94.5388 26.4553 94.3088 25.842 93.8488 25.382C93.3888 24.922 92.7142 24.692 91.8248 24.692C91.3342 24.692 90.8588 24.7533 90.3988 24.876C89.9388 24.9987 89.4635 25.2133 88.9728 25.52L85.4768 22.208C86.7035 20.5827 87.9608 19.172 89.2488 17.976C90.5368 16.7493 91.8862 15.7987 93.2968 15.124C94.7075 14.4187 96.2255 14.066 97.8508 14.066C99.5682 14.066 101.117 14.388 102.497 15.032C103.877 15.676 105.211 16.642 106.499 17.93C107.787 19.1873 109.136 20.782 110.547 22.714L109.719 22.484C109.627 21.748 109.566 20.9507 109.535 20.092C109.504 19.2333 109.489 18.3133 109.489 17.332V11.352H111.927L112.985 14.388H117.861ZM130.089 14.388V17.654H125.259V43H121.717V17.654H116.933V14.388H121.165C120.674 13.8053 120.168 13.192 119.647 12.548C119.156 11.904 118.711 11.26 118.313 10.616C119.355 8.80667 120.475 7.166 121.671 5.694C122.867 4.19133 124.277 3.01067 125.903 2.152C127.528 1.26266 129.491 0.817997 131.791 0.817997C133.416 0.817997 134.965 1.01733 136.437 1.416C137.939 1.81466 139.411 2.39733 140.853 3.164C142.294 3.9 143.751 4.80466 145.223 5.878C146.695 6.92066 148.228 8.086 149.823 9.374L147.891 11.858C145.775 10.1407 143.858 8.71466 142.141 7.58C140.454 6.44533 138.829 5.602 137.265 5.05C135.731 4.46733 134.091 4.176 132.343 4.176C130.656 4.176 129.184 4.46733 127.927 5.05C126.7 5.63266 125.627 6.44533 124.707 7.488C123.817 8.53067 123.005 9.742 122.269 11.122C122.514 11.582 122.851 12.088 123.281 12.64C123.71 13.192 124.201 13.7747 124.753 14.388H130.089ZM162.823 14.388V17.654H145.987V25.888C145.987 26.7773 146.125 27.4367 146.401 27.866C146.677 28.2647 147.107 28.464 147.689 28.464C148.272 28.464 148.87 28.28 149.483 27.912C150.127 27.544 150.817 26.9613 151.553 26.164C152.289 25.3667 153.087 24.3393 153.945 23.082L156.705 22.668C157.687 24.1093 158.438 25.5967 158.959 27.13C159.511 28.6633 159.787 30.1967 159.787 31.73C159.787 33.662 159.358 35.3947 158.499 36.928C157.671 38.4613 156.429 39.6727 154.773 40.562C153.148 41.4513 151.155 41.896 148.793 41.896C146.769 41.896 144.883 41.5433 143.135 40.838C141.387 40.1327 139.777 38.998 138.305 37.434C136.833 35.8393 135.484 33.754 134.257 31.178C133.031 28.5713 131.927 25.382 130.945 21.61L134.441 20.69C135.545 24.9527 136.757 28.3873 138.075 30.994C139.425 33.57 140.958 35.456 142.675 36.652C144.393 37.8173 146.371 38.4 148.609 38.4C151.063 38.4 152.949 37.7867 154.267 36.56C155.617 35.3333 156.291 33.754 156.291 31.822C156.291 30.442 156.092 29.2613 155.693 28.28C155.325 27.2987 154.835 26.486 154.221 25.842L156.337 24.968C155.417 26.532 154.467 27.82 153.485 28.832C152.535 29.844 151.569 30.6107 150.587 31.132C149.637 31.6227 148.686 31.868 147.735 31.868C147.03 31.868 146.371 31.776 145.757 31.592C145.144 31.3773 144.623 31.0707 144.193 30.672C143.703 30.2427 143.289 29.6447 142.951 28.878C142.614 28.0807 142.445 26.762 142.445 24.922V17.654H129.151V14.388H162.823ZM191.615 14.388V17.654H186.785V43H183.243C181.955 41.2827 180.529 39.78 178.965 38.492C177.401 37.1733 175.592 36.0693 173.537 35.18C171.483 34.2907 169.045 33.6467 166.223 33.248L164.567 29.062C165.518 28.418 166.515 27.8047 167.557 27.222C168.6 26.6393 169.658 26.072 170.731 25.52C171.835 24.968 172.909 24.4467 173.951 23.956C172.786 23.0667 171.437 22.2847 169.903 21.61C168.401 20.9047 166.622 20.3373 164.567 19.908L165.993 16.78L166.085 17.654H161.899V14.388H191.615ZM183.243 17.654H168.569L167.603 17.24C168.891 17.5467 170.179 18.0373 171.467 18.712C172.786 19.3867 173.997 20.1227 175.101 20.92C176.236 21.6867 177.141 22.4227 177.815 23.128L178.045 25.704C176.941 26.1947 175.776 26.7313 174.549 27.314C173.353 27.8967 172.188 28.4793 171.053 29.062C169.949 29.6447 168.968 30.2273 168.109 30.81L167.557 30.12C170.195 30.488 172.495 31.1013 174.457 31.96C176.451 32.8187 178.214 33.8613 179.747 35.088C181.281 36.3147 182.691 37.6793 183.979 39.182L183.381 39.366C183.351 38.722 183.32 38.032 183.289 37.296C183.259 36.5293 183.243 35.8087 183.243 35.134V17.654ZM170.639 43.276C169.873 43.276 169.213 43.0307 168.661 42.54C168.14 42.0493 167.879 41.4053 167.879 40.608C167.879 39.8107 168.14 39.1513 168.661 38.63C169.213 38.1087 169.873 37.848 170.639 37.848C171.406 37.848 172.05 38.1087 172.571 38.63C173.123 39.1513 173.399 39.8107 173.399 40.608C173.399 41.4053 173.123 42.0493 172.571 42.54C172.05 43.0307 171.406 43.276 170.639 43.276ZM203.85 14.388V17.654H199.02V43H195.478V21.426C195.11 20.3833 194.558 19.494 193.822 18.758C193.117 18.022 192.197 17.654 191.062 17.654H190.694V14.388H191.384C192.12 14.388 192.887 14.6333 193.684 15.124C194.482 15.584 195.126 16.3047 195.616 17.286C195.586 17.1327 195.555 16.78 195.524 16.228C195.494 15.676 195.478 15.2007 195.478 14.802V11.352H197.962L198.974 14.388H203.85Z" fill="#535353"/>
</svg>
