<svg width="199" height="40" viewBox="0 0 199 40" fill="none" xmlns="http://www.w3.org/2000/svg">
<path d="M8.41113 13.6514C7.67741 14.2803 7.06348 14.9541 6.56934 15.6729C6.09017 16.3916 5.70085 17.1403 5.40137 17.9189C5.11686 18.6976 4.90723 19.4837 4.77246 20.2773C4.65267 21.071 4.59277 21.8571 4.59277 22.6357C4.59277 23.9385 4.80241 25.2188 5.22168 26.4766C5.64095 27.7194 6.26986 28.8275 7.1084 29.8008C7.96191 30.7591 9.01758 31.5378 10.2754 32.1367C11.5332 32.7207 13.0007 33.0127 14.6777 33.0127C15.4115 33.0127 16.1452 32.9303 16.8789 32.7656C17.6126 32.5859 18.2715 32.3164 18.8555 31.957C19.4544 31.5827 19.9336 31.111 20.293 30.542C20.6673 29.958 20.8545 29.2617 20.8545 28.4531C20.8545 27.9141 20.7422 27.4499 20.5176 27.0605C20.3079 26.6562 20.016 26.3268 19.6416 26.0723C19.2673 25.8027 18.833 25.6081 18.3389 25.4883C17.8447 25.3535 17.3281 25.2861 16.7891 25.2861H12.5215V22.0518H15.5312C16.1751 22.0518 16.7591 21.9245 17.2832 21.6699C17.8073 21.4154 18.2565 21.0785 18.6309 20.6592C19.0052 20.2399 19.2972 19.7757 19.5068 19.2666C19.7165 18.7425 19.8213 18.2109 19.8213 17.6719C19.8213 17.028 19.709 16.4665 19.4844 15.9873C19.2747 15.5081 18.9902 15.1188 18.6309 14.8193C18.2715 14.5049 17.8672 14.2728 17.418 14.123C16.9688 13.9733 16.512 13.8984 16.0479 13.8984C15.7184 13.8984 15.374 13.9434 15.0146 14.0332C14.6702 14.123 14.3558 14.2728 14.0713 14.4824C13.7868 14.6771 13.5547 14.9316 13.375 15.2461C13.1953 15.5456 13.1055 15.9124 13.1055 16.3467C13.1055 16.7809 13.2028 17.1403 13.3975 17.4248C13.5921 17.6943 13.7493 17.9115 13.8691 18.0762L11.3086 20.4795C11.054 20.2699 10.807 20.0078 10.5674 19.6934C10.3278 19.3789 10.1032 19.0345 9.89355 18.6602C9.69889 18.2858 9.54167 17.889 9.42188 17.4697C9.30208 17.0355 9.24219 16.6012 9.24219 16.167C9.24219 15.1637 9.44434 14.3027 9.84863 13.584C10.2529 12.8652 10.777 12.2738 11.4209 11.8096C12.0648 11.3454 12.791 11.001 13.5996 10.7764C14.4232 10.5518 15.2393 10.4395 16.0479 10.4395C17.3955 10.4395 18.5635 10.6416 19.5518 11.0459C20.54 11.4352 21.3561 11.9518 22 12.5957C22.6589 13.2396 23.1455 13.9733 23.46 14.7969C23.7744 15.6204 23.9316 16.459 23.9316 17.3125C23.9316 17.8216 23.8643 18.3532 23.7295 18.9072C23.5947 19.4463 23.3851 19.9779 23.1006 20.502C22.8161 21.0111 22.4492 21.4977 22 21.9619C21.5658 22.4111 21.0492 22.8005 20.4502 23.1299C22.0075 23.609 23.1904 24.2829 23.999 25.1514C24.8076 26.0199 25.2119 27.1878 25.2119 28.6553C25.2119 29.8532 24.9349 30.9388 24.3809 31.9121C23.8268 32.8704 23.0781 33.694 22.1348 34.3828C21.2064 35.0716 20.1283 35.6032 18.9004 35.9775C17.6875 36.3519 16.4147 36.5391 15.082 36.5391C13.4798 36.5391 12.0124 36.3444 10.6797 35.9551C9.36198 35.5658 8.17904 35.0342 7.13086 34.3604C6.08268 33.6865 5.16178 32.8929 4.36816 31.9795C3.58952 31.0661 2.93815 30.1003 2.41406 29.082C1.88997 28.0488 1.50065 26.9857 1.24609 25.8926C0.991536 24.7845 0.864258 23.6989 0.864258 22.6357C0.864258 21.5127 0.961589 20.4046 1.15625 19.3115C1.35091 18.2184 1.65788 17.1628 2.07715 16.1445C2.51139 15.1113 3.06543 14.123 3.73926 13.1797C4.42806 12.2214 5.2666 11.3079 6.25488 10.4395L8.41113 13.6514ZM44.3262 13.8984C42.7988 13.8984 41.3763 14.1156 40.0586 14.5498C38.7559 14.984 37.6253 15.5755 36.667 16.3242C35.7087 17.0579 34.9525 17.9115 34.3984 18.8848C33.8594 19.8581 33.5898 20.8763 33.5898 21.9395C33.5898 22.793 33.7546 23.609 34.084 24.3877C34.4284 25.1514 34.945 25.8252 35.6338 26.4092C35.9632 25.8851 36.3675 25.4134 36.8467 24.9941C37.3408 24.5599 37.8799 24.193 38.4639 23.8936C39.0628 23.5791 39.6992 23.3395 40.373 23.1748C41.0618 23.0101 41.7731 22.9277 42.5068 22.9277C43.585 22.9277 44.6032 23.1074 45.5615 23.4668C46.5199 23.8112 47.3584 24.2904 48.0771 24.9043C48.7959 25.5182 49.3649 26.237 49.7842 27.0605C50.2035 27.8691 50.4131 28.7451 50.4131 29.6885C50.4131 30.6318 50.2035 31.5153 49.7842 32.3389C49.3649 33.1624 48.7959 33.8812 48.0771 34.4951C47.3584 35.109 46.5199 35.5957 45.5615 35.9551C44.6032 36.2995 43.585 36.4717 42.5068 36.4717C41.5186 36.4717 40.5827 36.3219 39.6992 36.0225C38.8158 35.723 38.0221 35.3112 37.3184 34.7871C36.6146 34.263 36.0306 33.6491 35.5664 32.9453C35.1172 32.2266 34.8252 31.4479 34.6904 30.6094C33.792 30.0553 33.0133 29.4414 32.3545 28.7676C31.6956 28.0938 31.1491 27.3825 30.7148 26.6338C30.2806 25.8851 29.9587 25.1214 29.749 24.3428C29.5394 23.5492 29.4346 22.7555 29.4346 21.9619C29.4346 20.3747 29.7715 18.8848 30.4453 17.4922C31.1191 16.0846 32.0924 14.8568 33.3652 13.8086C34.653 12.7604 36.2178 11.9368 38.0596 11.3379C39.9014 10.7389 41.9902 10.4395 44.3262 10.4395C46.0781 10.4395 47.6803 10.6341 49.1328 11.0234C50.6003 11.3978 51.918 11.9144 53.0859 12.5732C54.2539 13.2171 55.2721 13.9733 56.1406 14.8418C57.0241 15.7103 57.7578 16.6387 58.3418 17.627C58.9258 18.6003 59.36 19.6035 59.6445 20.6367C59.944 21.6699 60.0938 22.6732 60.0938 23.6465C60.0938 24.5749 60.0114 25.4284 59.8467 26.207C59.6969 26.9857 59.4648 27.7194 59.1504 28.4082C58.8359 29.082 58.4466 29.7334 57.9824 30.3623C57.5182 30.9762 56.9867 31.5977 56.3877 32.2266L60.6777 36.9209L57.2412 39.6387L51.8281 31.1709C52.5618 30.6019 53.1908 30.0029 53.7148 29.374C54.2539 28.7451 54.6882 28.1087 55.0176 27.4648C55.347 26.821 55.5866 26.1771 55.7363 25.5332C55.901 24.8893 55.9834 24.2604 55.9834 23.6465C55.9834 22.9128 55.8636 22.1641 55.624 21.4004C55.3844 20.6367 55.0326 19.8955 54.5684 19.1768C54.1191 18.443 53.5576 17.7617 52.8838 17.1328C52.2249 16.4889 51.4613 15.9274 50.5928 15.4482C49.7393 14.9691 48.7884 14.5947 47.7402 14.3252C46.6921 14.0407 45.554 13.8984 44.3262 13.8984ZM38.2842 29.6885C38.2842 30.1527 38.3965 30.5869 38.6211 30.9912C38.8457 31.3955 39.1452 31.7549 39.5195 32.0693C39.9089 32.3688 40.3581 32.6084 40.8672 32.7881C41.3913 32.9528 41.9453 33.0352 42.5293 33.0352C43.1133 33.0352 43.6598 32.9528 44.1689 32.7881C44.6781 32.6084 45.1198 32.3688 45.4941 32.0693C45.8835 31.7549 46.1904 31.3955 46.415 30.9912C46.6396 30.5869 46.752 30.1527 46.752 29.6885C46.752 29.2243 46.6396 28.79 46.415 28.3857C46.1904 27.9814 45.8835 27.6296 45.4941 27.3301C45.1198 27.0306 44.6781 26.791 44.1689 26.6113C43.6598 26.4316 43.1133 26.3418 42.5293 26.3418C41.9453 26.3418 41.3913 26.4316 40.8672 26.6113C40.3581 26.791 39.9089 27.0306 39.5195 27.3301C39.1452 27.6296 38.8457 27.9814 38.6211 28.3857C38.3965 28.79 38.2842 29.2243 38.2842 29.6885ZM71.0547 36H66.3828V10.9111H71.0547V36Z" fill="white"/>
<path d="M86.5527 13.8984C85.5046 13.8984 84.5762 14.1156 83.7676 14.5498C82.974 14.9691 82.2852 15.5306 81.7012 16.2344C81.1322 16.9232 80.6605 17.7093 80.2861 18.5928C79.9268 19.4613 79.6647 20.3447 79.5 21.2432C79.9193 21.0485 80.376 20.8688 80.8701 20.7041C81.3643 20.5394 81.8734 20.3971 82.3975 20.2773C82.9365 20.1426 83.4756 20.0378 84.0146 19.9629C84.5687 19.888 85.0928 19.8506 85.5869 19.8506C87.1292 19.8506 88.4844 20.0527 89.6523 20.457C90.8353 20.8613 91.8236 21.4154 92.6172 22.1191C93.4108 22.8229 94.0098 23.6615 94.4141 24.6348C94.8184 25.5931 95.0205 26.6413 95.0205 27.7793C95.0205 28.9173 94.8408 30.0104 94.4814 31.0586C94.1221 32.1068 93.568 33.0352 92.8193 33.8438C92.0856 34.6374 91.1497 35.2738 90.0117 35.7529C88.8737 36.2321 87.5335 36.4717 85.9912 36.4717C84.5537 36.4717 83.1836 36.1947 81.8809 35.6406C80.5931 35.0866 79.4551 34.2555 78.4668 33.1475C77.4935 32.0394 76.7148 30.6543 76.1309 28.9922C75.5469 27.3151 75.2549 25.361 75.2549 23.1299C75.2549 21.4378 75.4945 19.8281 75.9736 18.3008C76.4528 16.7585 77.1566 15.4108 78.085 14.2578C79.0283 13.0898 80.1888 12.1615 81.5664 11.4727C82.959 10.7839 84.5612 10.4395 86.373 10.4395C87.571 10.4395 88.6416 10.5817 89.585 10.8662C90.5283 11.1357 91.3519 11.4951 92.0557 11.9443C92.7744 12.3936 93.3883 12.9027 93.8975 13.4717C94.4215 14.0257 94.8558 14.5872 95.2002 15.1562L92.9092 17.29C92.3252 16.5264 91.7487 15.9199 91.1797 15.4707C90.6257 15.0215 90.0791 14.6846 89.54 14.46C89.016 14.2204 88.4993 14.0706 87.9902 14.0107C87.4961 13.9359 87.0169 13.8984 86.5527 13.8984ZM85.5869 23.1299C85.1826 23.1299 84.7184 23.1823 84.1943 23.2871C83.6852 23.377 83.1536 23.5117 82.5996 23.6914C82.0605 23.8711 81.5215 24.0957 80.9824 24.3652C80.4434 24.6198 79.9492 24.9118 79.5 25.2412C79.5599 26.3942 79.777 27.4499 80.1514 28.4082C80.5407 29.3516 81.0348 30.1676 81.6338 30.8564C82.2327 31.5452 82.9215 32.0768 83.7002 32.4512C84.4938 32.8255 85.3324 33.0127 86.2158 33.0127C86.8148 33.0127 87.3988 32.9004 87.9678 32.6758C88.5368 32.4362 89.0309 32.0993 89.4502 31.665C89.8844 31.2308 90.2288 30.6992 90.4834 30.0703C90.7529 29.4414 90.8877 28.7301 90.8877 27.9365C90.8877 27.2178 90.7529 26.5664 90.4834 25.9824C90.2139 25.3835 89.8395 24.8743 89.3604 24.4551C88.8962 24.0358 88.3346 23.7139 87.6758 23.4893C87.0319 23.2497 86.3356 23.1299 85.5869 23.1299ZM103.713 18.9971C103.713 19.5661 103.81 20.0902 104.005 20.5693C104.2 21.0335 104.454 21.4528 104.769 21.8271C105.098 22.2015 105.465 22.5384 105.869 22.8379C106.288 23.1224 106.715 23.362 107.149 23.5566C108.048 22.8828 109.006 22.3138 110.024 21.8496C111.043 21.3704 112.008 20.9587 112.922 20.6143L114.247 24.0508C113.453 24.2754 112.66 24.5299 111.866 24.8145C111.073 25.099 110.354 25.4583 109.71 25.8926C109.081 26.3118 108.564 26.821 108.16 27.4199C107.756 28.0039 107.554 28.7077 107.554 29.5312C107.554 30.235 107.688 30.8115 107.958 31.2607C108.228 31.71 108.557 32.0693 108.946 32.3389C109.351 32.5934 109.785 32.7731 110.249 32.8779C110.713 32.9678 111.14 33.0127 111.529 33.0127C112.383 33.0127 113.199 32.8555 113.978 32.541C114.771 32.2266 115.49 31.8447 116.134 31.3955C116.793 30.9313 117.369 30.4297 117.863 29.8906C118.357 29.3516 118.747 28.8574 119.031 28.4082V17.8291C117.474 16.6312 115.902 15.6803 114.314 14.9766C112.727 14.2578 111.162 13.8984 109.62 13.8984C108.931 13.8984 108.235 14.0033 107.531 14.2129C106.827 14.4225 106.191 14.737 105.622 15.1562C105.068 15.5755 104.611 16.1071 104.252 16.751C103.893 17.3799 103.713 18.1286 103.713 18.9971ZM103.443 29.6885C103.443 28.835 103.586 28.0563 103.87 27.3525C104.17 26.6488 104.581 25.9974 105.105 25.3984C104.297 25.1289 103.548 24.7695 102.859 24.3203C102.171 23.8711 101.572 23.3545 101.062 22.7705C100.553 22.1715 100.149 21.5052 99.8496 20.7715C99.5651 20.0378 99.4229 19.2441 99.4229 18.3906C99.4229 17.1328 99.6549 16.0098 100.119 15.0215C100.583 14.0332 101.25 13.2021 102.118 12.5283C103.002 11.8545 104.072 11.3379 105.33 10.9785C106.588 10.6191 108.003 10.4395 109.575 10.4395C110.549 10.4395 111.484 10.5518 112.383 10.7764C113.296 11.001 114.15 11.2855 114.943 11.6299C115.752 11.9743 116.501 12.3486 117.189 12.7529C117.878 13.1572 118.492 13.5391 119.031 13.8984V10.9111H123.703V36H119.031V33.0127C118.537 33.5068 118.006 33.9635 117.437 34.3828C116.868 34.8021 116.261 35.1689 115.617 35.4834C114.973 35.7829 114.299 36.0225 113.596 36.2021C112.907 36.3818 112.196 36.4717 111.462 36.4717C110.324 36.4717 109.268 36.3219 108.295 36.0225C107.322 35.723 106.476 35.2887 105.757 34.7197C105.038 34.1507 104.469 33.4469 104.05 32.6084C103.646 31.7549 103.443 30.7816 103.443 29.6885ZM144.951 28.8574L141.807 26.7236L147.691 18.4805L150.701 20.7266L148.186 24.2754C148.77 24.5299 149.286 24.8444 149.735 25.2188C150.185 25.5931 150.559 26.0049 150.858 26.4541C151.173 26.9033 151.412 27.3825 151.577 27.8916C151.742 28.4007 151.824 28.9098 151.824 29.4189C151.824 30.4671 151.607 31.4255 151.173 32.2939C150.739 33.1624 150.132 33.9036 149.354 34.5176C148.575 35.1315 147.646 35.6107 146.568 35.9551C145.49 36.2995 144.3 36.4717 142.997 36.4717C141.814 36.4717 140.699 36.3219 139.65 36.0225C138.617 35.723 137.696 35.3037 136.888 34.7646C136.079 34.2256 135.398 33.5817 134.844 32.833C134.29 32.0693 133.908 31.2308 133.698 30.3174C132.725 29.7783 131.871 29.1719 131.138 28.498C130.419 27.8242 129.82 27.113 129.341 26.3643C128.862 25.6156 128.502 24.8369 128.263 24.0283C128.023 23.2048 127.903 22.3812 127.903 21.5576C127.903 20.0153 128.255 18.5703 128.959 17.2227C129.678 15.875 130.703 14.6995 132.036 13.6963C133.384 12.693 135.008 11.8994 136.91 11.3154C138.827 10.7314 140.983 10.4395 143.379 10.4395C145.76 10.4395 147.901 10.7314 149.803 11.3154C151.719 11.8994 153.352 12.693 154.699 13.6963C156.047 14.6995 157.08 15.875 157.799 17.2227C158.518 18.5703 158.877 20.0153 158.877 21.5576C158.877 22.6357 158.622 23.7962 158.113 25.0391C157.604 26.2669 156.885 27.5247 155.957 28.8125L153.284 26.1172C153.808 25.5332 154.22 24.8594 154.52 24.0957C154.819 23.332 154.969 22.4935 154.969 21.5801C154.969 20.5319 154.662 19.5436 154.048 18.6152C153.449 17.6719 152.625 16.8558 151.577 16.167C150.544 15.4632 149.331 14.9092 147.938 14.5049C146.546 14.1006 145.063 13.8984 143.491 13.8984C141.874 13.8984 140.362 14.1006 138.954 14.5049C137.562 14.9092 136.349 15.4632 135.315 16.167C134.297 16.8558 133.496 17.6719 132.912 18.6152C132.328 19.5436 132.036 20.5319 132.036 21.5801C132.036 22.5534 132.201 23.4069 132.53 24.1406C132.86 24.8594 133.354 25.5033 134.013 26.0723C134.237 25.4434 134.544 24.8519 134.934 24.2979C135.338 23.7288 135.817 23.2122 136.371 22.748C136.94 22.2839 137.591 21.8945 138.325 21.5801C139.059 21.2507 139.882 21.0111 140.796 20.8613L141.649 24.0508C140.287 24.4701 139.284 25.1064 138.64 25.96C137.996 26.7985 137.674 27.7344 137.674 28.7676C137.674 29.3516 137.786 29.9056 138.011 30.4297C138.235 30.9388 138.565 31.388 138.999 31.7773C139.433 32.1517 139.98 32.4512 140.639 32.6758C141.298 32.9004 142.069 33.0127 142.952 33.0127C143.746 33.0127 144.435 32.8929 145.019 32.6533C145.618 32.4137 146.112 32.1143 146.501 31.7549C146.905 31.3955 147.205 31.0062 147.399 30.5869C147.594 30.1676 147.691 29.7783 147.691 29.4189C147.691 28.8649 147.557 28.3783 147.287 27.959C147.018 27.5247 146.703 27.1729 146.344 26.9033L144.951 28.8574ZM143.379 3.49902C142.855 3.49902 142.248 3.52148 141.56 3.56641C140.856 3.59635 140.055 3.71615 139.156 3.92578C138.243 4.12044 137.217 4.44238 136.079 4.8916C134.941 5.34082 133.668 5.97721 132.261 6.80078L130.644 4.59961C131.123 4.25521 131.782 3.82845 132.62 3.31934C133.444 2.79525 134.41 2.29362 135.518 1.81445C136.611 1.32031 137.824 0.901042 139.156 0.556641C140.489 0.21224 141.896 0.0400391 143.379 0.0400391C144.861 0.0400391 146.269 0.21224 147.602 0.556641C148.934 0.901042 150.147 1.32031 151.24 1.81445C152.348 2.29362 153.314 2.79525 154.138 3.31934C154.976 3.82845 155.635 4.25521 156.114 4.59961L154.497 6.80078C153.09 5.97721 151.817 5.34082 150.679 4.8916C149.541 4.44238 148.515 4.12044 147.602 3.92578C146.703 3.71615 145.902 3.59635 145.198 3.56641C144.509 3.52148 143.903 3.49902 143.379 3.49902ZM193.512 10.9111H198.184V36H193.512V10.9111ZM185.313 10.9111H189.985V36H185.313V30.0254C184.685 30.834 183.906 31.6276 182.978 32.4062C182.049 33.1699 181.001 33.8587 179.833 34.4727C178.665 35.0716 177.392 35.5583 176.015 35.9326C174.652 36.292 173.215 36.4717 171.702 36.4717C170.819 36.4717 169.875 36.3369 168.872 36.0674C167.869 35.8128 166.933 35.401 166.064 34.832C165.211 34.263 164.5 33.5293 163.931 32.6309C163.362 31.7324 163.077 30.6468 163.077 29.374C163.077 28.1911 163.347 27.2103 163.886 26.4316C164.425 25.638 165.129 24.9717 165.997 24.4326C166.866 23.8936 167.839 23.4518 168.917 23.1074C170.01 22.748 171.103 22.4111 172.196 22.0967C172.69 21.9619 173.2 21.8346 173.724 21.7148C174.248 21.5801 174.757 21.4378 175.251 21.2881C175.745 21.1234 176.209 20.9362 176.644 20.7266C177.078 20.5169 177.452 20.2549 177.767 19.9404C178.096 19.626 178.351 19.2441 178.53 18.7949C178.725 18.3457 178.822 17.8141 178.822 17.2002C178.822 16.0771 178.635 15.2461 178.261 14.707C177.901 14.168 177.452 13.8984 176.913 13.8984C176.554 13.8984 176.232 14.0033 175.947 14.2129C175.678 14.4076 175.446 14.6846 175.251 15.0439C175.071 15.4033 174.929 15.8226 174.824 16.3018C174.734 16.766 174.689 17.2676 174.689 17.8066V19.9854H170.557V17.8066C170.557 17.2826 170.512 16.7884 170.422 16.3242C170.347 15.8451 170.227 15.4258 170.062 15.0664C169.913 14.707 169.726 14.4225 169.501 14.2129C169.291 14.0033 169.052 13.8984 168.782 13.8984C168.363 13.8984 167.974 14.1305 167.614 14.5947C167.27 15.0589 167.098 15.6803 167.098 16.459C167.098 16.9232 167.143 17.3424 167.232 17.7168C167.322 18.0911 167.435 18.4206 167.569 18.7051C167.704 18.9896 167.839 19.2367 167.974 19.4463C168.123 19.641 168.243 19.7982 168.333 19.918L165.391 22.2314C165.106 21.887 164.822 21.5052 164.537 21.0859C164.268 20.6667 164.021 20.2174 163.796 19.7383C163.586 19.2591 163.414 18.7425 163.279 18.1885C163.145 17.6344 163.077 17.043 163.077 16.4141C163.077 15.7402 163.189 15.0514 163.414 14.3477C163.639 13.6439 163.983 13.0075 164.447 12.4385C164.911 11.8545 165.503 11.3753 166.222 11.001C166.955 10.6266 167.816 10.4395 168.805 10.4395C169.284 10.4395 169.741 10.5293 170.175 10.709C170.609 10.8887 170.998 11.1133 171.343 11.3828C171.687 11.6523 171.979 11.9518 172.219 12.2812C172.458 12.5957 172.616 12.8952 172.69 13.1797C172.825 12.8802 173.012 12.5732 173.252 12.2588C173.507 11.9294 173.813 11.6299 174.173 11.3604C174.532 11.0908 174.937 10.8737 175.386 10.709C175.85 10.5293 176.359 10.4395 176.913 10.4395C178.051 10.4395 178.994 10.6641 179.743 11.1133C180.492 11.5475 181.091 12.0941 181.54 12.7529C181.989 13.4118 182.304 14.123 182.483 14.8867C182.678 15.6354 182.775 16.3242 182.775 16.9531C182.775 18.0462 182.603 18.9896 182.259 19.7832C181.929 20.5768 181.48 21.2656 180.911 21.8496C180.342 22.4186 179.691 22.9053 178.957 23.3096C178.223 23.7139 177.452 24.0658 176.644 24.3652C175.835 24.6497 175.026 24.9043 174.218 25.1289C173.409 25.3535 172.653 25.5781 171.949 25.8027C171.335 25.9974 170.736 26.1995 170.152 26.4092C169.583 26.6188 169.067 26.8584 168.603 27.1279C168.153 27.3975 167.786 27.7194 167.502 28.0938C167.232 28.4531 167.098 28.8874 167.098 29.3965C167.098 30.0553 167.24 30.6169 167.524 31.0811C167.824 31.5303 168.213 31.9046 168.692 32.2041C169.187 32.4886 169.748 32.6982 170.377 32.833C171.006 32.9528 171.65 33.0127 172.309 33.0127C173.252 33.0127 174.203 32.8555 175.161 32.541C176.134 32.2266 177.07 31.8223 177.969 31.3281C178.882 30.834 179.743 30.2799 180.552 29.666C181.375 29.0371 182.109 28.4082 182.753 27.7793C183.397 27.1504 183.943 26.5514 184.393 25.9824C184.842 25.4134 185.149 24.9417 185.313 24.5674V10.9111Z" fill="#216DE6"/>
</svg>
