<svg width="181" height="45" viewBox="0 0 181 45" fill="none" xmlns="http://www.w3.org/2000/svg">
<path d="M40.176 2.048C40.176 3.36 39.936 4.496 39.456 5.456C39.008 6.384 38.4 7.152 37.632 7.76C36.896 8.368 36.064 8.816 35.136 9.104C34.208 9.36 33.28 9.488 32.352 9.488C31.296 9.488 30.288 9.344 29.328 9.056C28.4 8.736 27.568 8.272 26.832 7.664C26.096 7.024 25.504 6.24 25.056 5.312C24.64 4.384 24.432 3.296 24.432 2.048H27.984C28.144 3.616 28.592 4.72 29.328 5.36C30.096 6 31.088 6.32 32.304 6.32C33.584 6.32 34.592 5.936 35.328 5.168C36.064 4.368 36.496 3.328 36.624 2.048H40.176ZM1.92 15.344C2.656 14.736 3.664 14.256 4.944 13.904C6.224 13.52 7.472 13.328 8.688 13.328C9.936 13.328 11.088 13.504 12.144 13.856C13.2 14.176 14.128 14.656 14.928 15.296C15.728 15.936 16.352 16.736 16.8 17.696C17.248 18.656 17.472 19.76 17.472 21.008C17.472 22.544 17.12 23.84 16.416 24.896C15.712 25.92 14.896 26.72 13.968 27.296C14.896 27.552 15.84 27.744 16.8 27.872C17.76 27.968 18.64 28.016 19.44 28.016C20.4 28.016 21.392 27.888 22.416 27.632C23.472 27.376 24.256 27.072 24.768 26.72V16.832H20.352V13.76H44.256V16.832H39.936V44H36.192V16.832H28.512V44H24.768V30.512C23.616 31.024 22.224 31.28 20.592 31.28C19.888 31.28 19.232 31.232 18.624 31.136C18.048 31.008 17.328 30.768 16.464 30.416L16.368 30.512C16.944 31.184 17.376 31.888 17.664 32.624C17.984 33.328 18.144 34.144 18.144 35.072C18.144 37.664 17.296 39.696 15.6 41.168C13.936 42.608 11.664 43.328 8.784 43.328C8.048 43.328 7.312 43.264 6.576 43.136C5.84 43.008 5.12 42.832 4.416 42.608C3.712 42.352 3.056 42.064 2.448 41.744C1.872 41.424 1.376 41.072 0.96 40.688L2.544 37.952C3.376 38.656 4.272 39.2 5.232 39.584C6.224 39.936 7.328 40.112 8.544 40.112C9.312 40.112 10.032 40.016 10.704 39.824C11.408 39.632 12.016 39.328 12.528 38.912C13.072 38.496 13.504 37.952 13.824 37.28C14.144 36.608 14.304 35.808 14.304 34.88C14.304 33.248 13.792 31.936 12.768 30.944C11.776 29.952 10.144 29.456 7.872 29.456H4.896V26.336H7.44C9.328 26.368 10.832 25.936 11.952 25.04C13.072 24.144 13.632 22.864 13.632 21.2C13.632 19.632 13.12 18.464 12.096 17.696C11.072 16.928 9.888 16.544 8.544 16.544C7.808 16.544 6.976 16.656 6.048 16.88C5.152 17.072 4.288 17.456 3.456 18.032L1.92 15.344ZM50.9813 29.6C51.5253 29.248 51.9573 28.64 52.2773 27.776C52.5973 26.88 52.7573 25.904 52.7573 24.848C52.7573 23.312 52.4373 21.872 51.7973 20.528C51.1893 19.152 50.3573 17.92 49.3013 16.832H43.3012V13.76H71.1893V16.832H66.8693V44H63.1253V16.832H53.1893C53.5733 17.184 53.9573 17.632 54.3413 18.176C54.7573 18.72 55.1253 19.36 55.4453 20.096C55.7973 20.832 56.0693 21.648 56.2613 22.544C56.4853 23.44 56.5973 24.416 56.5973 25.472C56.5973 26.944 56.4053 28.24 56.0213 29.36C55.6693 30.48 55.1733 31.424 54.5333 32.192C53.9253 32.928 53.2213 33.488 52.4213 33.872C51.6533 34.256 50.8693 34.448 50.0693 34.448C49.4933 34.448 48.9493 34.352 48.4373 34.16C47.9253 33.968 47.4613 33.696 47.0453 33.344C46.6293 32.992 46.2933 32.576 46.0373 32.096C45.8133 31.616 45.7013 31.072 45.7013 30.464C45.7013 29.6 45.9733 28.928 46.5173 28.448C47.0933 27.936 47.7333 27.68 48.4373 27.68L50.9813 29.6ZM62.4315 13.952V13.568C62.1435 13.28 61.8395 12.944 61.5195 12.56C61.1675 12.144 60.8475 11.68 60.5595 11.168C60.2715 10.656 60.0315 10.096 59.8395 9.488C59.6475 8.88 59.5515 8.208 59.5515 7.472C59.5515 6.448 59.7435 5.536 60.1275 4.736C60.4795 3.904 60.9915 3.2 61.6635 2.624C62.3035 2.048 63.0555 1.6 63.9195 1.28C64.7835 0.959998 65.7115 0.799998 66.7035 0.799998C67.5995 0.799998 68.4955 0.895998 69.3915 1.088C70.2555 1.28 70.9595 1.552 71.5035 1.904L70.5435 4.832C69.5195 4.32 68.4475 4.064 67.3275 4.064C66.1435 4.064 65.1995 4.416 64.4955 5.12C63.7595 5.824 63.3915 6.848 63.3915 8.192C63.3915 8.8 63.4875 9.392 63.6795 9.968C63.8395 10.512 64.0635 11.024 64.3515 11.504C64.6075 11.984 64.8955 12.416 65.2155 12.8C65.5355 13.184 65.8235 13.504 66.0795 13.76L62.4315 13.952Z" fill="#216DE6"/>
<path d="M95.6955 16.832H91.3755V44H87.6315V32.432C87.0555 32.944 86.2875 33.392 85.3275 33.776C84.3675 34.16 83.2155 34.352 81.8715 34.352C80.7515 34.352 79.6955 34.192 78.7035 33.872C77.7115 33.552 76.8315 33.056 76.0635 32.384C75.2955 31.712 74.6875 30.88 74.2395 29.888C73.7915 28.896 73.5675 27.728 73.5675 26.384V16.832H70.2075V13.76H95.6955V16.832ZM77.3115 26C77.3115 27.824 77.7275 29.136 78.5595 29.936C79.3915 30.736 80.5755 31.136 82.1115 31.136C83.2955 31.136 84.3995 30.864 85.4235 30.32C86.4475 29.744 87.1835 29.04 87.6315 28.208V16.832H77.3115V26ZM99.0431 16.832H94.7231V13.76H98.8031C98.5791 12.992 98.2751 12.112 97.8911 11.12C97.5391 10.128 97.0751 9.2 96.4991 8.336C95.9551 7.472 95.2991 6.752 94.5311 6.176C93.7311 5.568 92.8351 5.264 91.8431 5.264C89.6351 5.264 88.5311 6.432 88.5311 8.768C88.5311 9.696 88.7071 10.592 89.0591 11.456C89.4111 12.32 89.8111 13.088 90.2591 13.76L87.9551 15.632L86.8511 14.24C86.2431 13.472 85.7311 12.592 85.3151 11.6C84.8671 10.576 84.6431 9.456 84.6431 8.24C84.6431 6.48 85.2671 5.008 86.5151 3.824C87.7311 2.608 89.4431 2 91.6511 2C92.8351 2 93.9071 2.208 94.8671 2.624C95.8271 3.008 96.6751 3.536 97.4111 4.208C98.1471 4.848 98.7871 5.584 99.3311 6.416C99.9071 7.248 100.387 8.096 100.771 8.96C101.187 9.824 101.507 10.688 101.731 11.552C101.987 12.384 102.195 13.12 102.355 13.76H107.107V16.832H102.787V44H99.0431V16.832ZM110.481 16.832H106.161V13.76H110.145C109.953 13.408 109.761 12.944 109.569 12.368C109.409 11.76 109.329 11.136 109.329 10.496C109.329 8.288 110.225 6.544 112.017 5.264C113.809 3.984 116.321 3.344 119.553 3.344C121.729 3.344 123.777 3.728 125.697 4.496C127.649 5.264 129.393 6.208 130.929 7.328C132.497 8.448 133.857 9.632 135.009 10.88C136.161 12.128 137.057 13.248 137.697 14.24L138.129 14.912L135.345 16.448L134.721 15.584C134.017 14.56 133.137 13.52 132.081 12.464C131.025 11.408 129.841 10.448 128.529 9.584C127.217 8.72 125.809 8.016 124.305 7.472C122.801 6.896 121.265 6.608 119.697 6.608C117.489 6.608 115.857 7.072 114.801 8C113.777 8.896 113.265 10.016 113.265 11.36C113.265 11.744 113.297 12.144 113.361 12.56C113.425 12.944 113.553 13.344 113.745 13.76H118.065V16.832H114.225V44H110.481V16.832ZM124.763 34.496C123.419 33.568 122.283 32.512 121.355 31.328C120.427 30.112 119.963 28.784 119.963 27.344C119.963 26.512 120.091 25.744 120.347 25.04C120.635 24.304 121.051 23.68 121.595 23.168C122.171 22.624 122.891 22.208 123.755 21.92C124.619 21.6 125.659 21.44 126.875 21.44H133.547V16.832H117.082V13.76H142.379V16.832H137.291V24.608H127.547C126.331 24.608 125.403 24.88 124.763 25.424C124.123 25.936 123.803 26.624 123.803 27.488C123.803 28.128 123.979 28.736 124.331 29.312C124.683 29.856 125.115 30.352 125.627 30.8C126.491 30.48 127.323 30.256 128.123 30.128C128.955 29.968 129.835 29.888 130.763 29.888C132.075 29.888 133.259 30.064 134.315 30.416C135.403 30.736 136.331 31.216 137.099 31.856C137.867 32.464 138.459 33.2 138.875 34.064C139.291 34.928 139.499 35.888 139.499 36.944C139.499 37.968 139.275 38.928 138.827 39.824C138.411 40.72 137.803 41.504 137.003 42.176C136.203 42.816 135.211 43.328 134.027 43.712C132.875 44.064 131.563 44.24 130.091 44.24C127.819 44.24 125.707 43.84 123.755 43.04C121.835 42.24 120.219 41.28 118.907 40.16L120.923 37.472C122.171 38.56 123.563 39.408 125.099 40.016C126.635 40.592 128.267 40.88 129.995 40.88C131.883 40.88 133.291 40.544 134.219 39.872C135.179 39.168 135.659 38.176 135.659 36.896C135.659 35.648 135.227 34.72 134.363 34.112C133.531 33.472 132.299 33.152 130.667 33.152C129.835 33.152 128.923 33.264 127.931 33.488C126.939 33.68 125.883 34.016 124.763 34.496ZM164.654 16.832V44H160.91V35.504C160.366 35.984 159.582 36.432 158.558 36.848C157.534 37.264 156.158 37.472 154.43 37.472C153.022 37.472 151.662 37.232 150.35 36.752C149.038 36.272 147.87 35.552 146.846 34.592C145.822 33.6 144.99 32.384 144.35 30.944C143.71 29.472 143.374 27.776 143.342 25.856L144.734 25.808C147.134 25.744 148.798 25.36 149.726 24.656C150.686 23.92 151.166 22.832 151.166 21.392C151.166 20.496 150.974 19.68 150.59 18.944C150.206 18.176 149.71 17.472 149.102 16.832H140.942V13.76H168.974V16.832H164.654ZM160.91 16.832H152.846C153.39 17.376 153.886 18.08 154.334 18.944C154.782 19.776 155.006 20.736 155.006 21.824C155.006 23.904 154.318 25.552 152.942 26.768C151.566 27.952 149.614 28.624 147.086 28.784C147.406 30.416 148.206 31.728 149.486 32.72C150.766 33.712 152.462 34.208 154.574 34.208C155.918 34.208 157.15 33.968 158.27 33.488C159.422 33.008 160.302 32.384 160.91 31.616V16.832ZM172.356 16.832H168.036V13.76H180.42V16.832H176.1V44H172.356V16.832Z" fill="#535353"/>
</svg>
