<svg width="205" height="33" viewBox="0 0 205 33" fill="none" xmlns="http://www.w3.org/2000/svg">
<path d="M10.01 9.04C10.89 9.04 11.8 9.12 12.74 9.28C13.7 9.44 14.58 9.69 15.38 10.03C15.48 10.07 15.6 10.15 15.74 10.27C15.88 10.37 16 10.44 16.1 10.48C17.2 10.76 18.05 11.14 18.65 11.62C19.25 12.1 19.67 12.63 19.91 13.21C20.17 13.77 20.3 14.36 20.3 14.98C20.3 15.46 20.22 15.91 20.06 16.33C19.9 16.75 19.62 17.13 19.22 17.47C18.84 17.81 18.32 18.13 17.66 18.43L17.78 18.34C18.66 18.62 19.35 19.07 19.85 19.69C20.37 20.31 20.63 21.06 20.63 21.94C20.63 22.72 20.43 23.45 20.03 24.13C19.65 24.81 19.05 25.36 18.23 25.78C17.41 26.18 16.33 26.38 14.99 26.38C13.47 26.38 12.2 26.05 11.18 25.39C10.18 24.73 9.43 23.84 8.93 22.72C8.43 21.6 8.18 20.35 8.18 18.97C8.18 17.85 8.35 16.78 8.69 15.76C9.03 14.74 9.55 13.79 10.25 12.91C10.97 12.03 11.9 11.25 13.04 10.57C13.14 10.51 13.24 10.45 13.34 10.39C13.44 10.33 13.54 10.27 13.64 10.21C14.36 9.85 15.16 9.57 16.04 9.37C16.92 9.15 17.93 9.04 19.07 9.04C20.43 9.04 21.56 9.21 22.46 9.55C23.36 9.89 24.11 10.34 24.71 10.9C25.33 11.44 25.86 12.04 26.3 12.7L27.08 18.61V26.02H24.47V17.59C24.47 16.11 24.35 14.99 24.11 14.23C23.87 13.47 23.5 12.86 23 12.4C22.56 12 22.02 11.68 21.38 11.44C20.74 11.18 19.85 11.05 18.71 11.05C18.17 11.05 17.65 11.09 17.15 11.17C16.67 11.23 16.23 11.32 15.83 11.44C14.89 11.72 14.09 12.14 13.43 12.7C12.77 13.26 12.24 13.9 11.84 14.62C11.44 15.34 11.15 16.07 10.97 16.81C10.79 17.53 10.7 18.21 10.7 18.85C10.7 20.61 11.07 21.97 11.81 22.93C12.55 23.89 13.62 24.37 15.02 24.37C16.06 24.37 16.83 24.16 17.33 23.74C17.85 23.32 18.11 22.7 18.11 21.88C18.11 21.14 17.82 20.56 17.24 20.14C16.68 19.7 15.79 19.48 14.57 19.48H14V17.38H14.42C15.66 17.38 16.53 17.16 17.03 16.72C17.53 16.28 17.78 15.69 17.78 14.95C17.78 14.01 17.45 13.26 16.79 12.7C16.15 12.12 15.19 11.72 13.91 11.5C13.13 11.3 12.44 11.19 11.84 11.17C11.24 11.13 10.7 11.11 10.22 11.11C8.56 11.11 7.18 11.41 6.08 12.01C5 12.59 4.19 13.39 3.65 14.41C3.11 15.41 2.84 16.55 2.84 17.83C2.84 18.87 2.99 19.8 3.29 20.62C3.59 21.44 4.01 22.16 4.55 22.78C5.11 23.4 5.76 23.94 6.5 24.4L5 26.29C4.14 25.79 3.34 25.15 2.6 24.37C1.88 23.57 1.29 22.62 0.83 21.52C0.39 20.4 0.17 19.13 0.17 17.71C0.17 16.47 0.37 15.33 0.77 14.29C1.17 13.23 1.78 12.31 2.6 11.53C3.42 10.75 4.44 10.14 5.66 9.7C6.9 9.26 8.35 9.04 10.01 9.04ZM32.51 9.04C34.23 9.04 35.72 9.34 36.98 9.94C38.24 10.52 39.27 11.34 40.07 12.4C40.87 13.46 41.43 14.71 41.75 16.15C41.87 16.65 41.95 17.16 41.99 17.68C42.05 18.2 42.08 18.74 42.08 19.3C42.08 20.92 41.81 22.26 41.27 23.32C40.75 24.36 40.01 25.13 39.05 25.63C38.11 26.13 36.99 26.38 35.69 26.38C34.39 26.38 33.32 26.11 32.48 25.57C31.66 25.03 31.05 24.34 30.65 23.5C30.27 22.64 30.08 21.77 30.08 20.89C30.08 18.93 30.77 17.39 32.15 16.27C33.55 15.13 35.54 14.56 38.12 14.56C38.28 14.56 38.46 14.57 38.66 14.59C38.88 14.59 39.11 14.61 39.35 14.65L40.25 14.71C41.77 14.95 43.07 15.47 44.15 16.27C45.25 17.05 46.09 18.05 46.67 19.27C47.27 20.47 47.57 21.81 47.57 23.29C47.57 24.65 47.36 25.87 46.94 26.95C46.54 28.03 45.94 28.95 45.14 29.71C44.34 30.47 43.35 31.05 42.17 31.45C41.01 31.85 39.68 32.05 38.18 32.05C37.14 32.05 36.19 31.96 35.33 31.78C34.47 31.6 33.74 31.4 33.14 31.18L33.98 29.08C34.54 29.32 35.17 29.51 35.87 29.65C36.59 29.79 37.38 29.86 38.24 29.86C39.48 29.86 40.52 29.69 41.36 29.35C42.22 29.03 42.92 28.57 43.46 27.97C44 27.37 44.39 26.67 44.63 25.87C44.87 25.07 44.99 24.2 44.99 23.26C44.99 22.22 44.85 21.31 44.57 20.53C44.31 19.75 43.91 19.08 43.37 18.52C42.83 17.96 42.16 17.5 41.36 17.14L40.22 16.96C39.86 16.84 39.49 16.76 39.11 16.72C38.73 16.66 38.37 16.63 38.03 16.63C36.89 16.63 35.92 16.79 35.12 17.11C34.32 17.41 33.71 17.87 33.29 18.49C32.87 19.11 32.66 19.91 32.66 20.89C32.66 21.43 32.76 21.96 32.96 22.48C33.16 23 33.49 23.43 33.95 23.77C34.43 24.11 35.05 24.28 35.81 24.28C37.05 24.28 37.99 23.86 38.63 23.02C39.27 22.18 39.59 20.93 39.59 19.27C39.59 18.73 39.56 18.19 39.5 17.65C39.44 17.09 39.34 16.56 39.2 16.06L39.05 15.4C38.77 14.6 38.36 13.89 37.82 13.27C37.28 12.63 36.58 12.13 35.72 11.77C34.86 11.39 33.8 11.2 32.54 11.2C31.84 11.2 31.14 11.3 30.44 11.5C29.76 11.7 29.16 12.03 28.64 12.49C28.32 12.79 28.04 13.15 27.8 13.57C27.58 13.97 27.4 14.48 27.26 15.1C27.14 15.7 27.08 16.46 27.08 17.38V19.9L25.4 12.52C25.94 11.78 26.55 11.15 27.23 10.63C27.93 10.11 28.72 9.72 29.6 9.46C30.48 9.18 31.45 9.04 32.51 9.04ZM63.2738 26.38C62.0138 26.38 60.9338 26.12 60.0338 25.6C59.1538 25.06 58.4838 24.28 58.0238 23.26C57.5638 22.22 57.3338 20.97 57.3338 19.51C57.3338 18.35 57.5138 17.28 57.8738 16.3C58.2338 15.3 58.7338 14.36 59.3738 13.48C60.0338 12.6 60.7838 11.77 61.6238 10.99L62.4938 10.06C63.0738 9.54 63.5738 8.99 63.9938 8.41C64.4138 7.83 64.6238 7.19 64.6238 6.49C64.6238 5.95 64.4438 5.47 64.0838 5.05C63.7238 4.63 63.1238 4.42 62.2838 4.42C61.8438 4.42 61.4238 4.45 61.0238 4.51C60.6238 4.57 60.2938 4.65 60.0338 4.75L59.4638 2.68C59.8038 2.58 60.2638 2.49 60.8438 2.41C61.4238 2.31 62.0338 2.26 62.6738 2.26C63.8738 2.26 64.8038 2.48 65.4638 2.92C66.1238 3.34 66.5838 3.84 66.8438 4.42C67.1038 5 67.2338 5.52 67.2338 5.98C67.2338 7.02 66.9638 7.95 66.4238 8.77C65.9038 9.59 65.1738 10.43 64.2338 11.29L63.6338 12.1C62.7938 12.8 62.1038 13.56 61.5638 14.38C61.0238 15.18 60.6238 16.02 60.3638 16.9C60.1038 17.76 59.9738 18.65 59.9738 19.57C59.9738 20.79 60.1238 21.75 60.4238 22.45C60.7438 23.13 61.1538 23.61 61.6538 23.89C62.1738 24.15 62.7238 24.28 63.3038 24.28C64.4038 24.28 65.2338 23.89 65.7938 23.11C66.3738 22.31 66.6638 21.13 66.6638 19.57C66.6638 18.79 66.5738 18.02 66.3938 17.26C66.2138 16.48 65.9438 15.75 65.5838 15.07C65.2238 14.37 64.7638 13.74 64.2038 13.18C63.6638 12.62 63.0238 12.17 62.2838 11.83C61.8038 11.61 61.2938 11.45 60.7538 11.35C60.2138 11.23 59.6238 11.17 58.9838 11.17C57.5438 11.17 56.3238 11.47 55.3238 12.07C54.3238 12.65 53.5638 13.45 53.0438 14.47C52.5238 15.47 52.2638 16.59 52.2638 17.83C52.2638 18.87 52.4138 19.8 52.7138 20.62C53.0138 21.44 53.4338 22.16 53.9738 22.78C54.5338 23.4 55.1838 23.94 55.9238 24.4L54.4238 26.29C53.5638 25.79 52.7638 25.15 52.0238 24.37C51.3038 23.57 50.7138 22.62 50.2538 21.52C49.8138 20.4 49.5938 19.13 49.5938 17.71C49.5938 16.47 49.7938 15.33 50.1938 14.29C50.6138 13.23 51.2138 12.31 51.9938 11.53C52.7938 10.75 53.7738 10.14 54.9338 9.7C56.1138 9.26 57.4538 9.04 58.9538 9.04C59.8538 9.04 60.6838 9.12 61.4438 9.28C62.2238 9.44 62.9538 9.69 63.6338 10.03C63.7338 10.07 63.8338 10.12 63.9338 10.18C64.0338 10.22 64.1238 10.27 64.2038 10.33C65.3838 10.99 66.3538 11.82 67.1138 12.82C67.8738 13.8 68.4338 14.86 68.7938 16C69.1538 17.14 69.3338 18.27 69.3338 19.39C69.3338 21.57 68.8138 23.28 67.7738 24.52C66.7338 25.76 65.2338 26.38 63.2738 26.38ZM89.1737 9.04C90.6137 9.04 91.8637 9.38 92.9237 10.06C93.9837 10.74 94.8037 11.69 95.3837 12.91C95.9637 14.13 96.2537 15.57 96.2537 17.23C96.2537 18.55 96.0737 19.75 95.7137 20.83C95.3737 21.89 94.8537 22.87 94.1537 23.77C93.4737 24.65 92.6237 25.48 91.6037 26.26L89.9837 24.43C90.7037 23.93 91.3337 23.35 91.8737 22.69C92.4137 22.03 92.8337 21.26 93.1337 20.38C93.4537 19.48 93.6137 18.46 93.6137 17.32C93.6137 16.1 93.4237 15.03 93.0437 14.11C92.6837 13.19 92.1637 12.48 91.4837 11.98C90.8237 11.46 90.0337 11.2 89.1137 11.2C88.3337 11.2 87.7137 11.34 87.2537 11.62C86.7937 11.88 86.4237 12.21 86.1437 12.61C85.8237 13.11 85.5937 13.78 85.4537 14.62C85.3337 15.46 85.2737 16.74 85.2737 18.46V18.73C85.2737 19.67 85.2137 20.49 85.0937 21.19C84.9937 21.89 84.8237 22.51 84.5837 23.05C84.3637 23.57 84.0637 24.05 83.6837 24.49C83.1637 25.09 82.5137 25.56 81.7337 25.9C80.9537 26.22 79.9937 26.38 78.8537 26.38C77.3937 26.38 76.1237 26.06 75.0437 25.42C73.9637 24.76 73.1337 23.81 72.5537 22.57C71.9737 21.33 71.6837 19.85 71.6837 18.13C71.6837 16.77 71.8537 15.56 72.1937 14.5C72.5537 13.42 73.0837 12.44 73.7837 11.56C74.4837 10.66 75.3337 9.82 76.3337 9.04L77.9537 10.9C77.2537 11.38 76.6237 11.96 76.0637 12.64C75.5237 13.32 75.0937 14.11 74.7737 15.01C74.4737 15.91 74.3237 16.93 74.3237 18.07C74.3237 19.31 74.5037 20.39 74.8637 21.31C75.2237 22.23 75.7337 22.95 76.3937 23.47C77.0737 23.97 77.8537 24.22 78.7337 24.22C79.6137 24.22 80.2737 24.1 80.7137 23.86C81.1737 23.6 81.5437 23.26 81.8237 22.84C82.1637 22.32 82.3837 21.62 82.4837 20.74C82.5837 19.84 82.6337 18.6 82.6337 17.02V16.63C82.6337 15.27 82.7537 14.15 82.9937 13.27C83.2537 12.39 83.6337 11.65 84.1337 11.05C84.7137 10.39 85.3937 9.89 86.1737 9.55C86.9537 9.21 87.9537 9.04 89.1737 9.04ZM94.1075 8.29C92.9475 8.29 91.9675 8.09 91.1675 7.69C90.3475 7.27 89.7275 6.7 89.3075 5.98C88.8875 5.26 88.6775 4.42 88.6775 3.46C88.6775 3.1 88.7075 2.74 88.7675 2.38C88.8275 2.02 88.8975 1.72 88.9775 1.48L91.1975 1.9C91.1375 2.1 91.0975 2.34 91.0775 2.62C91.0375 2.88 91.0175 3.13 91.0175 3.37C91.0175 4.07 91.1575 4.64 91.4375 5.08C91.7175 5.5 92.0975 5.8 92.5775 5.98C93.0375 6.16 93.5475 6.25 94.1075 6.25C94.7075 6.25 95.2375 6.16 95.6975 5.98C96.1575 5.8 96.5275 5.5 96.8075 5.08C97.0675 4.64 97.1975 4.07 97.1975 3.37C97.1975 3.13 97.1875 2.88 97.1675 2.62C97.1275 2.34 97.0775 2.1 97.0175 1.9L99.2375 1.48C99.3175 1.72 99.3875 2.02 99.4475 2.38C99.5075 2.74 99.5375 3.1 99.5375 3.46C99.5375 4.42 99.3275 5.26 98.9075 5.98C98.4875 6.7 97.8775 7.27 97.0775 7.69C96.2575 8.09 95.2675 8.29 94.1075 8.29Z" fill="#216DE6"/>
<path d="M104.308 15.64C105.668 15.64 106.778 15.9 107.638 16.42C108.518 16.92 109.168 17.57 109.588 18.37C110.028 19.15 110.248 19.97 110.248 20.83C110.248 21.63 110.118 22.34 109.858 22.96C109.598 23.58 109.278 24.03 108.898 24.31L108.148 23.92H119.608V9.4H122.188V26.02H107.278L106.408 24.46C106.808 24.06 107.128 23.62 107.368 23.14C107.608 22.64 107.728 22.02 107.728 21.28C107.728 20.2 107.438 19.34 106.858 18.7C106.278 18.06 105.428 17.74 104.308 17.74C103.608 17.74 102.998 17.9 102.478 18.22C101.978 18.52 101.588 18.92 101.308 19.42C101.048 19.92 100.918 20.48 100.918 21.1C100.918 21.78 101.058 22.4 101.338 22.96C101.618 23.52 102.068 24.03 102.688 24.49L101.308 26.23C100.468 25.61 99.7675 24.88 99.2075 24.04C98.6675 23.18 98.3975 22.18 98.3975 21.04C98.3975 19.98 98.6375 19.05 99.1175 18.25C99.6175 17.43 100.308 16.79 101.188 16.33C102.088 15.87 103.128 15.64 104.308 15.64ZM121.062 0.729999C121.902 0.729999 122.762 0.809999 123.642 0.969999C124.502 1.13 125.322 1.45 126.102 1.93C127.242 2.63 128.012 3.6 128.412 4.84C128.832 6.08 129.042 7.72 129.042 9.76V26.02H126.462V10.27C126.462 9.47 126.442 8.76 126.402 8.14C126.382 7.52 126.322 6.96 126.222 6.46C126.142 5.96 126.012 5.52 125.832 5.14C125.392 4.14 124.772 3.48 123.972 3.16C123.152 2.82 122.102 2.65 120.822 2.65C120.342 2.65 119.892 2.74 119.472 2.92C119.052 3.08 118.712 3.32 118.452 3.64C118.192 3.96 118.062 4.36 118.062 4.84C118.062 5.32 118.212 5.75 118.512 6.13C118.812 6.49 119.302 6.67 119.982 6.67C120.742 6.67 121.272 6.47 121.572 6.07C121.872 5.65 122.022 5.19 122.022 4.69C122.022 4.23 121.922 3.79 121.722 3.37C121.522 2.93 121.232 2.58 120.852 2.32L123.612 2.92C123.772 3.12 123.902 3.39 124.002 3.73C124.082 4.07 124.122 4.44 124.122 4.84C124.122 5.52 123.992 6.15 123.732 6.73C123.452 7.31 123.002 7.78 122.382 8.14C121.762 8.5 120.922 8.68 119.862 8.68C119.142 8.68 118.472 8.53 117.852 8.23C117.212 7.93 116.702 7.49 116.322 6.91C115.922 6.33 115.722 5.62 115.722 4.78C115.722 4 115.932 3.31 116.352 2.71C116.772 2.09 117.382 1.61 118.182 1.27C118.982 0.909999 119.942 0.729999 121.062 0.729999ZM149.038 26.38C148.158 26.38 147.358 26.24 146.638 25.96C145.918 25.66 145.308 25.21 144.808 24.61C144.548 24.29 144.298 23.91 144.058 23.47C143.818 23.03 143.628 22.42 143.488 21.64C143.348 20.86 143.278 19.81 143.278 18.49V17.47C143.278 16.37 143.228 15.41 143.128 14.59C143.028 13.75 142.808 13.08 142.468 12.58C142.208 12.16 141.848 11.83 141.388 11.59C140.928 11.33 140.258 11.2 139.378 11.2C138.498 11.2 137.718 11.46 137.038 11.98C136.378 12.48 135.868 13.19 135.508 14.11C135.148 15.03 134.968 16.11 134.968 17.35C134.968 18.47 135.118 19.48 135.418 20.38C135.738 21.28 136.168 22.07 136.708 22.75C137.248 23.41 137.868 23.99 138.568 24.49L136.978 26.35C135.978 25.55 135.128 24.71 134.428 23.83C133.728 22.95 133.198 21.97 132.838 20.89C132.498 19.81 132.328 18.6 132.328 17.26C132.328 15.54 132.618 14.07 133.198 12.85C133.778 11.61 134.608 10.67 135.688 10.03C136.768 9.37 138.038 9.04 139.498 9.04C140.638 9.04 141.598 9.21 142.378 9.55C143.158 9.87 143.808 10.33 144.328 10.93C144.708 11.37 145.008 11.86 145.228 12.4C145.468 12.92 145.638 13.53 145.738 14.23C145.838 14.93 145.888 15.78 145.888 16.78V18.25C145.888 19.65 145.958 20.72 146.098 21.46C146.258 22.2 146.518 22.78 146.878 23.2C147.158 23.52 147.498 23.77 147.898 23.95C148.298 24.13 148.798 24.22 149.398 24.22C149.958 24.22 150.448 24.12 150.868 23.92C151.288 23.72 151.638 23.45 151.918 23.11C152.258 22.69 152.508 22.15 152.668 21.49C152.828 20.83 152.908 19.89 152.908 18.67V9.4H155.488V18.16C155.488 19.28 155.528 20.17 155.608 20.83C155.708 21.47 155.888 22.02 156.148 22.48C156.488 23.06 156.918 23.5 157.438 23.8C157.978 24.08 158.608 24.22 159.328 24.22C160.248 24.22 161.058 23.96 161.758 23.44C162.478 22.9 163.038 22.17 163.438 21.25C163.838 20.33 164.038 19.29 164.038 18.13C164.038 16.91 163.878 15.86 163.558 14.98C163.238 14.08 162.798 13.31 162.238 12.67C161.698 12.01 161.098 11.46 160.438 11.02L162.178 9.13C163.038 9.83 163.808 10.6 164.488 11.44C165.168 12.26 165.698 13.22 166.078 14.32C166.478 15.4 166.678 16.67 166.678 18.13C166.678 19.65 166.388 21.04 165.808 22.3C165.228 23.54 164.378 24.53 163.258 25.27C162.158 26.01 160.808 26.38 159.208 26.38C157.908 26.38 156.868 26.13 156.088 25.63C155.308 25.11 154.638 24.42 154.078 23.56L154.228 23.59C153.668 24.53 152.958 25.23 152.098 25.69C151.238 26.15 150.218 26.38 149.038 26.38ZM166.818 0.729999C167.578 0.729999 168.238 0.809999 168.798 0.969999C169.378 1.13 169.888 1.38 170.328 1.72C170.888 2.14 171.328 2.64 171.648 3.22C171.968 3.78 172.198 4.52 172.338 5.44C172.478 6.34 172.548 7.53 172.548 9.01V26.02H169.968V9.76C169.968 8.72 169.938 7.82 169.878 7.06C169.838 6.3 169.748 5.66 169.608 5.14C169.488 4.6 169.308 4.17 169.068 3.85C168.828 3.53 168.528 3.28 168.168 3.1C167.828 2.92 167.398 2.83 166.878 2.83C166.438 2.83 166.008 2.93 165.588 3.13C165.148 3.31 164.788 3.61 164.508 4.03C164.228 4.43 164.088 4.98 164.088 5.68C164.088 5.86 164.108 6.05 164.148 6.25C164.168 6.43 164.188 6.61 164.208 6.79L161.688 7.24C161.648 7 161.608 6.76 161.568 6.52C161.528 6.26 161.508 6.02 161.508 5.8C161.508 4.66 161.758 3.72 162.258 2.98C162.738 2.22 163.388 1.66 164.208 1.3C165.008 0.919999 165.878 0.729999 166.818 0.729999ZM194.494 26.38C193.694 26.38 192.864 26.29 192.004 26.11C191.144 25.93 190.294 25.61 189.454 25.15C189.334 25.09 189.174 25.02 188.974 24.94C188.794 24.86 188.654 24.79 188.554 24.73C187.454 23.95 186.574 23.09 185.914 22.15C185.254 21.21 184.774 20.21 184.474 19.15C184.174 18.09 184.024 17 184.024 15.88C184.024 15.08 184.124 14.34 184.324 13.66C184.524 12.98 184.794 12.37 185.134 11.83L185.344 11.5C185.744 10.96 186.204 10.51 186.724 10.15C187.264 9.79 187.844 9.52 188.464 9.34C189.084 9.14 189.734 9.04 190.414 9.04C192.394 9.04 193.934 9.68 195.034 10.96C196.134 12.22 196.684 13.92 196.684 16.06C196.684 17.86 196.304 19.49 195.544 20.95C194.784 22.39 193.754 23.55 192.454 24.43C192.294 24.55 192.134 24.66 191.974 24.76C191.834 24.84 191.664 24.93 191.464 25.03C190.624 25.51 189.744 25.86 188.824 26.08C187.904 26.28 186.944 26.38 185.944 26.38C184.344 26.38 182.914 26.12 181.654 25.6C180.414 25.08 179.354 24.36 178.474 23.44C177.614 22.5 176.954 21.4 176.494 20.14C176.054 18.86 175.834 17.47 175.834 15.97C175.834 14.57 176.094 13.36 176.614 12.34C177.154 11.3 177.914 10.49 178.894 9.91C179.874 9.33 181.024 9.04 182.344 9.04C183.504 9.04 184.484 9.25 185.284 9.67C186.084 10.07 186.754 10.62 187.294 11.32L185.524 13.09C185.264 12.57 184.874 12.12 184.354 11.74C183.854 11.34 183.194 11.14 182.374 11.14C181.614 11.14 180.934 11.32 180.334 11.68C179.754 12.04 179.294 12.59 178.954 13.33C178.614 14.05 178.444 14.95 178.444 16.03C178.444 17.47 178.734 18.82 179.314 20.08C179.894 21.34 180.754 22.37 181.894 23.17C183.034 23.95 184.454 24.34 186.154 24.34C186.574 24.34 187.004 24.32 187.444 24.28C187.884 24.22 188.314 24.14 188.734 24.04C188.954 23.96 189.184 23.88 189.424 23.8C189.664 23.72 189.884 23.64 190.084 23.56C190.784 23.2 191.434 22.68 192.034 22C192.634 21.3 193.124 20.45 193.504 19.45C193.884 18.45 194.074 17.32 194.074 16.06C194.074 14.86 193.904 13.9 193.564 13.18C193.224 12.46 192.774 11.94 192.214 11.62C191.654 11.3 191.054 11.14 190.414 11.14C189.654 11.14 188.984 11.33 188.404 11.71C187.844 12.09 187.404 12.65 187.084 13.39C186.784 14.11 186.634 15 186.634 16.06C186.634 17.12 186.794 18.16 187.114 19.18C187.454 20.18 187.924 21.07 188.524 21.85C189.144 22.63 189.864 23.24 190.684 23.68C190.884 23.76 191.064 23.81 191.224 23.83C191.384 23.83 191.564 23.87 191.764 23.95C192.104 24.05 192.514 24.14 192.994 24.22C193.474 24.3 193.974 24.34 194.494 24.34C196.154 24.34 197.524 24 198.604 23.32C199.684 22.64 200.494 21.72 201.034 20.56C201.574 19.4 201.844 18.1 201.844 16.66C201.844 15.48 201.654 14.36 201.274 13.3C200.894 12.24 200.354 11.29 199.654 10.45L201.724 9.04C202.644 10.12 203.324 11.31 203.764 12.61C204.224 13.89 204.454 15.22 204.454 16.6C204.454 18.02 204.234 19.33 203.794 20.53C203.374 21.73 202.734 22.77 201.874 23.65C201.034 24.51 199.994 25.18 198.754 25.66C197.514 26.14 196.094 26.38 194.494 26.38Z" fill="#535353"/>
</svg>
