<svg width="191" height="36" viewBox="0 0 191 36" fill="none" xmlns="http://www.w3.org/2000/svg">
<path d="M25.1992 35V20.665C24.666 20.8428 24.1123 21.082 23.5381 21.3828C22.9775 21.6836 22.4375 22.0254 21.918 22.4082C21.4121 22.7773 20.9404 23.1738 20.5029 23.5977C20.0791 24.0215 19.7305 24.4385 19.457 24.8486C19.5391 25.3271 19.6074 25.7441 19.6621 26.0996C19.7168 26.4551 19.7441 26.7217 19.7441 26.8994C19.7441 27.3643 19.6826 27.8564 19.5596 28.376C19.4365 28.8818 19.252 29.3535 19.0059 29.791C18.7598 30.2148 18.4453 30.5703 18.0625 30.8574C17.6934 31.1309 17.2559 31.2676 16.75 31.2676C16.3945 31.2676 16.0869 31.1855 15.8271 31.0215C15.5811 30.8438 15.376 30.625 15.2119 30.3652C15.0615 30.1055 14.9453 29.8184 14.8633 29.5039C14.7949 29.1895 14.7607 28.8887 14.7607 28.6016C14.7607 27.7812 14.9521 26.9678 15.335 26.1611C15.7178 25.3408 16.2236 24.6162 16.8525 23.9873C16.7705 23.3037 16.6133 22.5996 16.3809 21.875C16.1621 21.1504 15.916 20.4668 15.6426 19.8242C15.3691 19.168 15.0889 18.5869 14.8018 18.0811C14.5283 17.5615 14.2959 17.1787 14.1045 16.9326C13.585 17.1377 13.0518 17.4043 12.5049 17.7324C11.9717 18.0605 11.4658 18.4229 10.9873 18.8193C10.5088 19.2021 10.0713 19.6123 9.6748 20.0498C9.29199 20.4736 8.99805 20.8975 8.79297 21.3213C8.90234 21.7861 8.97754 22.2168 9.01855 22.6133C9.05957 23.0098 9.08008 23.3105 9.08008 23.5156C9.08008 23.9805 9.01855 24.4658 8.89551 24.9717C8.77246 25.4775 8.58789 25.9424 8.3418 26.3662C8.0957 26.79 7.78809 27.1455 7.41895 27.4326C7.0498 27.7061 6.61914 27.8428 6.12695 27.8428C5.77148 27.8428 5.46387 27.7607 5.2041 27.5967C4.95801 27.4326 4.75293 27.2207 4.58887 26.9609C4.4248 26.7012 4.30176 26.4141 4.21973 26.0996C4.1377 25.7852 4.09668 25.4775 4.09668 25.1768C4.09668 24.3701 4.24707 23.5908 4.54785 22.8389C4.8623 22.0732 5.29297 21.3623 5.83984 20.7061C5.7168 19.3252 5.45703 18.1084 5.06055 17.0557C4.66406 16.0029 4.14453 15.1074 3.50195 14.3691H0.692383V11.7441H4.87598C5.62793 12.6191 6.25684 13.5762 6.7627 14.6152C7.28223 15.6543 7.7334 16.8506 8.11621 18.2041C8.49902 17.7529 8.96387 17.3086 9.51074 16.8711C10.0576 16.4336 10.6387 16.0234 11.2539 15.6406C11.8828 15.2578 12.5254 14.9297 13.1816 14.6562C13.8516 14.3828 14.501 14.1846 15.1299 14.0615C15.5537 14.5811 15.957 15.1621 16.3398 15.8047C16.7227 16.4473 17.0781 17.1172 17.4062 17.8145C17.7344 18.498 18.0283 19.1953 18.2881 19.9062C18.5615 20.6035 18.7871 21.2666 18.9648 21.8955C19.3887 21.4717 19.8604 21.0547 20.3799 20.6445C20.9131 20.2344 21.4531 19.8516 22 19.4961C22.5605 19.1406 23.1143 18.833 23.6611 18.5732C24.208 18.2998 24.7207 18.0947 25.1992 17.958V11.7441H31.1055V14.3691H27.8652V35H25.1992ZM29.9365 6.49414C29.9365 7.51953 29.5537 8.51074 28.7881 9.46777H27.9883C28.1797 9.1123 28.3164 8.79102 28.3984 8.50391C28.4941 8.2168 28.542 7.93652 28.542 7.66309C28.542 7.43066 28.4941 7.17773 28.3984 6.9043C28.3164 6.63086 28.1934 6.37793 28.0293 6.14551C27.8652 5.89941 27.667 5.69434 27.4346 5.53027C27.2158 5.36621 26.9697 5.28418 26.6963 5.28418C26.3682 5.28418 26.0742 5.36621 25.8145 5.53027C25.5547 5.69434 25.3359 5.89941 25.1582 6.14551C24.9941 6.3916 24.8643 6.66504 24.7686 6.96582C24.6865 7.2666 24.6455 7.54687 24.6455 7.80664C24.6455 8.03906 24.6797 8.28516 24.748 8.54492C24.8301 8.80469 24.9463 9.1123 25.0967 9.46777H24.2764C24.0029 9.1123 23.791 8.76367 23.6406 8.42188C23.5039 8.06641 23.4355 7.69727 23.4355 7.31445C23.4355 7.13672 23.4424 6.95215 23.4561 6.76074C23.4834 6.56934 23.5449 6.36426 23.6406 6.14551C23.75 5.92676 23.9141 5.6875 24.1328 5.42773C24.3516 5.16797 24.6592 4.87402 25.0557 4.5459C24.6455 4.62793 24.249 4.73047 23.8662 4.85352C23.4834 4.96289 23.1074 5.07227 22.7383 5.18164C22.3691 5.27734 22.0068 5.36621 21.6514 5.44824C21.2959 5.5166 20.9404 5.55078 20.585 5.55078C19.8193 5.55078 19.1289 5.48242 18.5137 5.3457C17.9121 5.19531 17.3857 4.93555 16.9346 4.56641C16.4971 4.19727 16.1348 3.70508 15.8477 3.08984C15.5605 2.46094 15.3486 1.66797 15.2119 0.710938L16.0322 0.505859C16.21 1.08008 16.4287 1.56543 16.6885 1.96191C16.9619 2.3584 17.2764 2.67969 17.6318 2.92578C17.9873 3.1582 18.3838 3.3291 18.8213 3.43848C19.2725 3.53418 19.7646 3.58203 20.2979 3.58203C20.79 3.58203 21.2686 3.54102 21.7334 3.45898C22.1982 3.37695 22.6631 3.28809 23.1279 3.19238C23.5928 3.08301 24.0508 2.9873 24.502 2.90527C24.9668 2.82324 25.4316 2.78223 25.8965 2.78223C26.4434 2.78223 26.9561 2.87793 27.4346 3.06934C27.9268 3.24707 28.3574 3.50684 28.7266 3.84863C29.0957 4.17676 29.3896 4.56641 29.6084 5.01758C29.8271 5.46875 29.9365 5.96094 29.9365 6.49414ZM54.9561 14.3691H51.7979V29.5449C51.7979 30.6523 51.6338 31.582 51.3057 32.334C50.9775 33.0859 50.5059 33.6943 49.8906 34.1592C49.2891 34.6104 48.5508 34.9385 47.6758 35.1436C46.8008 35.3486 45.8232 35.4512 44.7432 35.4512C43.8545 35.4512 42.9453 35.3486 42.0156 35.1436C41.0996 34.9385 40.2109 34.6514 39.3496 34.2822C38.4883 33.8994 37.6816 33.4414 36.9297 32.9082C36.1777 32.375 35.5215 31.7803 34.9609 31.124C34.4004 30.4541 33.9561 29.7295 33.6279 28.9502C33.2998 28.1709 33.1357 27.3506 33.1357 26.4893C33.1357 24.8076 33.6074 23.5225 34.5508 22.6338C35.4941 21.7314 36.7998 21.2803 38.4678 21.2803H49.1318V14.3691H30.3672V11.7441H54.9561V14.3691ZM49.1318 23.9258H38.6934C38.3105 23.9258 37.9482 23.9668 37.6064 24.0488C37.2646 24.1309 36.9639 24.2744 36.7041 24.4795C36.4443 24.6709 36.2324 24.9307 36.0684 25.2588C35.918 25.5869 35.8428 25.9971 35.8428 26.4893C35.8428 27.46 36.1367 28.335 36.7246 29.1143C37.3125 29.8936 38.0508 30.5635 38.9395 31.124C39.8281 31.6709 40.792 32.0947 41.8311 32.3955C42.8701 32.6963 43.8408 32.8467 44.7432 32.8467C45.5225 32.8467 46.1855 32.792 46.7324 32.6826C47.293 32.5596 47.751 32.3613 48.1064 32.0879C48.4619 31.8008 48.7217 31.418 48.8857 30.9395C49.0498 30.4609 49.1318 29.8594 49.1318 29.1348V23.9258ZM83.1953 14.3691H80.0781V35H77.3916V14.3691H72.0391V30.3447C72.0391 31.3701 71.8955 32.2178 71.6084 32.8877C71.3213 33.5439 70.9316 34.0635 70.4395 34.4463C69.9609 34.8291 69.3936 35.0889 68.7373 35.2256C68.0947 35.376 67.4043 35.4512 66.666 35.4512C65.8457 35.4512 65.0527 35.3213 64.2871 35.0615C63.5215 34.8154 62.7969 34.4736 62.1133 34.0361C61.4434 33.585 60.8281 33.0586 60.2676 32.457C59.707 31.8555 59.2217 31.2061 58.8115 30.5088C58.415 29.7979 58.1006 29.0596 57.8682 28.2939C57.6494 27.5146 57.54 26.7354 57.54 25.9561C57.54 25.0811 57.6562 24.3496 57.8887 23.7617C58.1211 23.1602 58.4492 22.6748 58.873 22.3057C59.2969 21.9365 59.8096 21.6768 60.4111 21.5264C61.0127 21.3623 61.6895 21.2803 62.4414 21.2803H69.4756V14.3691H54.2998V11.7441H83.1953V14.3691ZM69.4756 23.9258H62.9746C62.6191 23.9258 62.2705 23.9463 61.9287 23.9873C61.5869 24.0283 61.2793 24.124 61.0059 24.2744C60.7461 24.4248 60.5342 24.6436 60.3701 24.9307C60.2061 25.2041 60.124 25.5732 60.124 26.0381C60.124 26.8994 60.3086 27.7402 60.6777 28.5605C61.0469 29.3809 61.5322 30.1123 62.1338 30.7549C62.7354 31.3838 63.4258 31.8896 64.2051 32.2725C64.9844 32.6553 65.7842 32.8467 66.6045 32.8467C68.5186 32.8467 69.4756 32.0879 69.4756 30.5703V23.9258Z" fill="#216DE6"/>
<path d="M102.657 11.7441H108.502V14.3691H105.323V35H102.657V29.0527C102.083 29.5449 101.475 29.9756 100.832 30.3447C100.203 30.7139 99.5742 31.0283 98.9453 31.2881C98.3301 31.5479 97.7285 31.7461 97.1406 31.8828C96.5527 32.0059 96.0195 32.0674 95.541 32.0674C94.6113 32.0674 93.6748 31.9102 92.7314 31.5957C91.7881 31.2812 90.8721 30.8506 89.9834 30.3037C89.0947 29.7568 88.2539 29.1211 87.4609 28.3965C86.668 27.6582 85.957 26.8789 85.3281 26.0586C85.957 24.9922 86.4355 23.9463 86.7637 22.9209C87.0918 21.8818 87.2559 20.8564 87.2559 19.8447C87.2559 18.9014 87.1396 17.9443 86.9072 16.9736C86.6748 15.9893 86.2715 15.1211 85.6973 14.3691H82.5596V11.7441H87.625C88.3633 13.043 88.9238 14.3896 89.3066 15.7842C89.7031 17.1787 89.9014 18.5596 89.9014 19.9268C89.9014 21.0205 89.7783 22.0117 89.5322 22.9004C89.2861 23.7754 88.9443 24.6504 88.5068 25.5254C88.917 26.0723 89.3887 26.585 89.9219 27.0635C90.4551 27.542 91.0225 27.9658 91.624 28.335C92.2393 28.6904 92.875 28.9707 93.5312 29.1758C94.2012 29.3809 94.8711 29.4834 95.541 29.4834C96.0742 29.4834 96.6553 29.3809 97.2842 29.1758C97.9268 28.957 98.5693 28.6699 99.2119 28.3145C99.8545 27.959 100.47 27.5488 101.058 27.084C101.659 26.6191 102.192 26.127 102.657 25.6074V11.7441ZM112.891 11.7441V6.9043C112.891 6.41211 112.809 6.00195 112.645 5.67383C112.48 5.33203 112.262 5.05859 111.988 4.85352C111.729 4.63477 111.435 4.47754 111.106 4.38184C110.792 4.28613 110.478 4.23828 110.163 4.23828C109.616 4.23828 109.104 4.375 108.625 4.64844C108.146 4.9082 107.702 5.28418 107.292 5.77637C106.882 6.26855 106.513 6.87012 106.185 7.58105C105.843 8.27832 105.535 9.06445 105.262 9.93945C104.811 9.76172 104.414 9.60449 104.072 9.46777C103.73 9.31738 103.341 9.15332 102.903 8.97559C103.286 7.82715 103.73 6.79492 104.236 5.87891C104.742 4.94922 105.296 4.16309 105.897 3.52051C106.499 2.87793 107.142 2.38574 107.825 2.04395C108.509 1.68848 109.227 1.51074 109.979 1.51074C110.771 1.51074 111.503 1.60645 112.173 1.79785C112.843 1.98926 113.424 2.2832 113.916 2.67969C114.408 3.0625 114.791 3.55469 115.064 4.15625C115.338 4.75781 115.475 5.46875 115.475 6.28906V11.7441H118.305V14.3691H115.475V35H112.891V14.3691H107.764V11.7441H112.891ZM126.979 27.7197C127.759 27.7197 128.483 27.7744 129.153 27.8838C129.837 27.9932 130.5 28.1641 131.143 28.3965C131.799 28.6289 132.455 28.9365 133.111 29.3193C133.781 29.7021 134.492 30.167 135.244 30.7139C135.654 30.3174 135.976 29.9346 136.208 29.5654C136.44 29.1826 136.557 28.7383 136.557 28.2324C136.557 27.6035 136.406 27.043 136.105 26.5508C135.805 26.0449 135.415 25.6006 134.937 25.2178C134.472 24.835 133.959 24.5137 133.398 24.2539C132.838 23.9805 132.298 23.7617 131.778 23.5977C130.575 23.9121 129.577 24.1172 128.784 24.2129C128.005 24.2949 127.328 24.3359 126.754 24.3359C126.166 24.3359 125.619 24.2949 125.113 24.2129C124.607 24.1172 124.163 23.9873 123.78 23.8232C123.411 23.6455 123.117 23.4268 122.898 23.167C122.693 22.8936 122.591 22.5723 122.591 22.2031C122.591 21.4785 122.967 20.9658 123.719 20.665C124.484 20.3506 125.51 20.1934 126.795 20.1934C127.219 20.1934 127.602 20.2002 127.943 20.2139C128.299 20.2139 128.661 20.2344 129.03 20.2754C129.413 20.3164 129.83 20.3848 130.281 20.4805C130.732 20.5762 131.279 20.7129 131.922 20.8906C133.029 20.4258 133.87 19.7764 134.444 18.9424C135.032 18.0947 135.326 17.0898 135.326 15.9277C135.326 15.7363 135.306 15.5107 135.265 15.251C135.237 14.9775 135.183 14.6836 135.101 14.3691H117.977V11.7441H141.622V14.3691H137.951C137.951 14.3965 137.951 14.4785 137.951 14.6152C137.965 14.752 137.972 14.834 137.972 14.8613C137.999 15.0117 138.02 15.1758 138.033 15.3535C138.047 15.5312 138.054 15.7227 138.054 15.9277C138.054 16.5156 137.992 17.1104 137.869 17.7119C137.76 18.3135 137.568 18.8945 137.295 19.4551C137.021 20.002 136.666 20.5146 136.229 20.9932C135.791 21.458 135.251 21.8613 134.608 22.2031C135.183 22.5039 135.743 22.873 136.29 23.3105C136.851 23.748 137.35 24.2334 137.787 24.7666C138.238 25.2861 138.601 25.8467 138.874 26.4482C139.147 27.0361 139.284 27.6309 139.284 28.2324C139.284 29.4082 138.942 30.4473 138.259 31.3496C137.589 32.252 136.714 33.0107 135.634 33.626C134.567 34.2275 133.364 34.6855 132.024 35C130.698 35.3008 129.379 35.4512 128.066 35.4512C125.578 35.4512 123.732 35.0752 122.529 34.3232C121.34 33.5713 120.745 32.5459 120.745 31.2471C120.745 30.6729 120.902 30.167 121.217 29.7295C121.531 29.292 121.962 28.9297 122.509 28.6426C123.069 28.3418 123.732 28.1162 124.498 27.9658C125.264 27.8018 126.091 27.7197 126.979 27.7197ZM127.615 32.8057C127.943 32.8057 128.319 32.8057 128.743 32.8057C129.167 32.792 129.632 32.7578 130.138 32.7031C130.644 32.6348 131.177 32.5391 131.737 32.416C132.312 32.2793 132.906 32.0879 133.521 31.8418C133.029 31.5684 132.53 31.3086 132.024 31.0625C131.532 30.8027 131.026 30.5771 130.507 30.3857C129.987 30.1807 129.454 30.0234 128.907 29.9141C128.36 29.791 127.793 29.7295 127.205 29.7295C125.879 29.7295 124.881 29.873 124.211 30.1602C123.555 30.4336 123.227 30.7959 123.227 31.2471C123.227 31.6299 123.589 31.9854 124.313 32.3135C125.038 32.6416 126.139 32.8057 127.615 32.8057ZM146.359 11.7441V6.9043C146.359 6.41211 146.277 6.00195 146.113 5.67383C145.949 5.33203 145.73 5.05859 145.457 4.85352C145.197 4.63477 144.903 4.47754 144.575 4.38184C144.261 4.28613 143.946 4.23828 143.632 4.23828C143.085 4.23828 142.572 4.375 142.094 4.64844C141.615 4.9082 141.171 5.28418 140.761 5.77637C140.351 6.26855 139.981 6.87012 139.653 7.58105C139.312 8.27832 139.004 9.06445 138.73 9.93945C138.279 9.76172 137.883 9.60449 137.541 9.46777C137.199 9.31738 136.81 9.15332 136.372 8.97559C136.755 7.82715 137.199 6.79492 137.705 5.87891C138.211 4.94922 138.765 4.16309 139.366 3.52051C139.968 2.87793 140.61 2.38574 141.294 2.04395C141.978 1.68848 142.695 1.51074 143.447 1.51074C144.24 1.51074 144.972 1.60645 145.642 1.79785C146.312 1.98926 146.893 2.2832 147.385 2.67969C147.877 3.0625 148.26 3.55469 148.533 4.15625C148.807 4.75781 148.943 5.46875 148.943 6.28906V11.7441H151.773V14.3691H148.943V35H146.359V14.3691H141.232V11.7441H146.359ZM178.434 14.3691V35H175.768V20.665C175.234 20.8428 174.681 21.082 174.106 21.3828C173.546 21.6836 173.006 22.0254 172.486 22.4082C171.98 22.7773 171.509 23.1738 171.071 23.5977C170.647 24.0215 170.299 24.4385 170.025 24.8486C170.107 25.3271 170.176 25.7441 170.23 26.0996C170.285 26.4551 170.312 26.7217 170.312 26.8994C170.312 27.3643 170.251 27.8564 170.128 28.376C170.005 28.8818 169.82 29.3535 169.574 29.791C169.328 30.2148 169.014 30.5703 168.631 30.8574C168.262 31.1309 167.824 31.2676 167.318 31.2676C166.963 31.2676 166.655 31.1855 166.396 31.0215C166.149 30.8438 165.944 30.625 165.78 30.3652C165.63 30.1055 165.514 29.8184 165.432 29.5039C165.363 29.1895 165.329 28.8887 165.329 28.6016C165.329 27.7812 165.521 26.9678 165.903 26.1611C166.286 25.3408 166.792 24.6162 167.421 23.9873C167.339 23.3037 167.182 22.5996 166.949 21.875C166.73 21.1504 166.484 20.4668 166.211 19.8242C165.938 19.168 165.657 18.5869 165.37 18.0811C165.097 17.5615 164.864 17.1787 164.673 16.9326C164.153 17.1377 163.62 17.4043 163.073 17.7324C162.54 18.0605 162.034 18.4229 161.556 18.8193C161.077 19.2021 160.64 19.6123 160.243 20.0498C159.86 20.4736 159.566 20.8975 159.361 21.3213C159.471 21.7861 159.546 22.2168 159.587 22.6133C159.628 23.0098 159.648 23.3105 159.648 23.5156C159.648 23.9805 159.587 24.4658 159.464 24.9717C159.341 25.4775 159.156 25.9424 158.91 26.3662C158.664 26.79 158.356 27.1455 157.987 27.4326C157.618 27.7061 157.188 27.8428 156.695 27.8428C156.34 27.8428 156.032 27.7607 155.772 27.5967C155.526 27.4326 155.321 27.2207 155.157 26.9609C154.993 26.7012 154.87 26.4141 154.788 26.0996C154.706 25.7852 154.665 25.4775 154.665 25.1768C154.665 24.3701 154.815 23.5908 155.116 22.8389C155.431 22.0732 155.861 21.3623 156.408 20.7061C156.285 19.3252 156.025 18.1084 155.629 17.0557C155.232 16.0029 154.713 15.1074 154.07 14.3691H151.261V11.7441H155.444C156.196 12.6191 156.825 13.5762 157.331 14.6152C157.851 15.6543 158.302 16.8506 158.685 18.2041C159.067 17.7529 159.532 17.3086 160.079 16.8711C160.626 16.4336 161.207 16.0234 161.822 15.6406C162.451 15.2578 163.094 14.9297 163.75 14.6562C164.42 14.3828 165.069 14.1846 165.698 14.0615C166.122 14.5811 166.525 15.1621 166.908 15.8047C167.291 16.4473 167.646 17.1172 167.975 17.8145C168.303 18.498 168.597 19.1953 168.856 19.9062C169.13 20.6035 169.355 21.2666 169.533 21.8955C169.957 21.4717 170.429 21.0547 170.948 20.6445C171.481 20.2344 172.021 19.8516 172.568 19.4961C173.129 19.1406 173.683 18.833 174.229 18.5732C174.776 18.2998 175.289 18.0947 175.768 17.958V11.7441H190.39V14.3691H187.519V26.0381H184.955V14.3691H178.434Z" fill="#535353"/>
</svg>
