<svg width="200" height="27" viewBox="0 0 200 27" fill="none" xmlns="http://www.w3.org/2000/svg">
<path d="M10.165 26.35C8.36833 26.35 6.81667 25.9883 5.51 25.265C4.20333 24.5417 3.18833 23.6317 2.465 22.535C1.765 21.415 1.415 20.2833 1.415 19.14L12.755 4.58C12.685 4.48666 12.44 4.335 12.02 4.125C11.6 3.915 11.0517 3.71667 10.375 3.53C9.69833 3.34333 8.91667 3.25 8.03 3.25C6.7 3.25 5.69667 3.36667 5.02 3.6C4.34333 3.81 3.98167 3.93833 3.935 3.985L6.175 7.415C6.385 7.74167 6.53667 8.09167 6.63 8.465C6.74667 8.815 6.805 9.14167 6.805 9.445C6.805 9.98167 6.63 10.4367 6.28 10.81C5.93 11.16 5.38167 11.335 4.635 11.335H0.645V8.675H3.655L1.87 5.98C1.56667 5.51333 1.32167 5.09333 1.135 4.72C0.948333 4.34667 0.855 3.97333 0.855 3.6C0.855 2.92333 1.43833 2.25833 2.605 1.605C3.77167 0.951666 5.58 0.624999 8.03 0.624999C10.5967 0.624999 12.7667 1.19667 14.54 2.34C16.3367 3.48333 17.7017 5.105 18.635 7.205C19.5683 9.28167 20.035 11.755 20.035 14.625C20.035 16.095 19.8483 17.53 19.475 18.93C19.1017 20.3067 18.5183 21.555 17.725 22.675C16.9317 23.795 15.905 24.6933 14.645 25.37C13.4083 26.0233 11.915 26.35 10.165 26.35ZM10.06 23.725C11.3433 23.725 12.4167 23.4217 13.28 22.815C14.1667 22.2083 14.8783 21.4383 15.415 20.505C15.9517 19.5483 16.3367 18.5567 16.57 17.53C16.8267 16.48 16.955 15.5117 16.955 14.625C16.955 13.225 16.7917 11.965 16.465 10.845C16.1617 9.70167 15.8233 8.75667 15.45 8.01C15.1 7.26333 14.8317 6.80833 14.645 6.645L4.355 19.91C4.37833 20.1667 4.51833 20.505 4.775 20.925C5.03167 21.345 5.39333 21.7767 5.86 22.22C6.35 22.64 6.945 23.0017 7.645 23.305C8.345 23.585 9.15 23.725 10.06 23.725ZM23.1295 26.35V22.185L27.2595 17.005L32.0545 23.025C32.1478 22.955 32.3578 22.7917 32.6845 22.535C33.0345 22.2783 33.4078 21.8933 33.8045 21.38L23.1295 7.975L24.9145 6.4L35.0645 19.14C35.2045 18.8833 35.3678 18.475 35.5545 17.915C35.7645 17.3317 35.8695 16.4917 35.8695 15.395C35.8695 12.945 35.3095 10.9033 34.1895 9.27C33.0695 7.61333 31.5645 6.33 29.6745 5.42C27.7845 4.48667 25.6728 3.86833 23.3395 3.565V0.624999C24.4362 0.718333 25.6728 0.939999 27.0495 1.29C28.4262 1.64 29.8145 2.165 31.2145 2.865C32.6145 3.54167 33.8978 4.44 35.0645 5.56C36.2312 6.65667 37.1762 7.99833 37.8995 9.585C38.6228 11.1717 38.9845 13.05 38.9845 15.22C38.9845 17.0867 38.6462 18.7667 37.9695 20.26C37.3162 21.7533 36.4178 23.0133 35.2745 24.04C34.1312 25.0667 32.8362 25.8367 31.3895 26.35L27.2595 21.17L23.1295 26.35ZM52.8792 26.35C50.6159 26.35 48.7026 25.79 47.1392 24.67C45.5992 23.55 44.4209 22.0217 43.6042 20.085C42.8109 18.1483 42.4142 15.955 42.4142 13.505C42.4142 11.755 42.6126 10.11 43.0092 8.57C43.4059 7.00667 44.0126 5.63 44.8292 4.44C45.6459 3.25 46.6726 2.31666 47.9092 1.64C49.1692 0.963332 50.6509 0.624999 52.3542 0.624999C53.8942 0.624999 55.2359 0.916666 56.3792 1.5C57.5226 2.08333 58.4442 2.78333 59.1442 3.6C59.8442 4.39333 60.2759 5.12833 60.4392 5.805L57.3242 6.54C57.3009 6.42333 57.1842 6.20166 56.9742 5.875C56.7642 5.525 56.4609 5.15167 56.0642 4.755C55.6676 4.335 55.1659 3.985 54.5592 3.705C53.9759 3.40167 53.2759 3.25 52.4592 3.25C51.1059 3.25 49.9742 3.57667 49.0642 4.23C48.1776 4.86 47.4659 5.68833 46.9292 6.715C46.4159 7.71833 46.0426 8.82667 45.8092 10.04C45.5992 11.23 45.4942 12.385 45.4942 13.505C45.4942 14.765 45.6226 16.0017 45.8792 17.215C46.1592 18.405 46.5792 19.5017 47.1392 20.505C47.7226 21.485 48.4809 22.2667 49.4142 22.85C50.3709 23.4333 51.5259 23.725 52.8792 23.725C53.7426 23.725 54.5476 23.5267 55.2942 23.13C56.0642 22.7333 56.7292 22.2317 57.2892 21.625C57.8726 20.995 58.3276 20.3417 58.6542 19.665C58.9809 18.965 59.1442 18.3117 59.1442 17.705C58.9576 17.775 58.6426 17.8917 58.1992 18.055C57.7559 18.195 57.2542 18.335 56.6942 18.475C56.1576 18.5917 55.6326 18.65 55.1192 18.65C54.0926 18.65 53.1826 18.3933 52.3892 17.88C51.5959 17.3667 50.9776 16.7017 50.5342 15.885C50.0909 15.0683 49.8692 14.2167 49.8692 13.33C49.8692 12 50.1842 10.95 50.8142 10.18C51.4442 9.41 52.2259 8.87333 53.1592 8.57C54.1159 8.24333 55.0492 8.08 55.9592 8.08H62.0142V10.74H55.5042C54.5476 10.74 53.8242 10.9733 53.3342 11.44C52.8676 11.9067 52.6342 12.5367 52.6342 13.33C52.6342 14.2867 52.9142 14.9983 53.4742 15.465C54.0576 15.9317 54.7459 16.165 55.5392 16.165C56.1692 16.165 56.8692 16.06 57.6392 15.85C58.4326 15.6167 59.1559 15.3717 59.8092 15.115C60.4859 14.835 60.9409 14.6367 61.1742 14.52L62.7842 15.36C62.6442 16.7133 62.3526 18.0433 61.9092 19.35C61.4659 20.6567 60.8476 21.8467 60.0542 22.92C59.2842 23.97 58.3042 24.81 57.1142 25.44C55.9242 26.0467 54.5126 26.35 52.8792 26.35Z" fill="#216DE6"/>
<path d="M76.7766 26.35C74.7932 26.35 73.0199 26.07 71.4566 25.51C69.8932 24.9267 68.4699 24.04 67.1866 22.85L70.2316 16.9V5.42C69.6482 5.84 69.0999 6.31833 68.5866 6.855C68.0732 7.36833 67.5832 7.96333 67.1166 8.64L65.4016 6.54C66.9182 4.39333 68.6332 2.87667 70.5466 1.99C72.4832 1.08 74.7699 0.624999 77.4066 0.624999C79.4132 0.624999 81.1866 0.916666 82.7266 1.5C84.2899 2.06 85.7132 2.935 86.9966 4.125L83.9516 10.075V21.59C84.5349 21.17 85.0832 20.6917 85.5966 20.155C86.1099 19.595 86.5999 18.9883 87.0666 18.335L88.7816 20.435C87.2882 22.5817 85.5732 24.11 83.6366 25.02C81.6999 25.9067 79.4132 26.35 76.7766 26.35ZM76.7766 23.725C77.5232 23.725 78.2349 23.6783 78.9116 23.585C79.6116 23.4917 80.2882 23.34 80.9416 23.13V9.375L83.2516 4.825C82.4116 4.31167 81.5132 3.92667 80.5566 3.67C79.5999 3.39 78.5499 3.25 77.4066 3.25C75.8899 3.25 74.5016 3.46 73.2416 3.88V17.6L70.9316 22.15C71.7716 22.6633 72.6699 23.06 73.6266 23.34C74.5832 23.5967 75.6332 23.725 76.7766 23.725ZM93.1404 26L90.8654 24.355L104.55 5.07C104.48 4.97666 104.259 4.79 103.885 4.51C103.512 4.20667 103.01 3.92667 102.38 3.67C101.75 3.39 101.004 3.25 100.14 3.25C99.3004 3.25 98.5188 3.43667 97.7954 3.81C97.0954 4.16 96.4771 4.58 95.9404 5.07C95.4038 5.53667 94.9838 5.96833 94.6804 6.365C94.3771 6.73833 94.2021 6.94833 94.1554 6.995L92.1954 5.105C92.3821 4.895 92.6854 4.545 93.1054 4.055C93.5488 3.565 94.0971 3.06333 94.7504 2.55C95.4271 2.01333 96.2088 1.55833 97.0954 1.185C98.0054 0.811666 99.0204 0.624999 100.14 0.624999C101.307 0.624999 102.345 0.811666 103.255 1.185C104.189 1.535 104.982 1.96667 105.635 2.48C106.312 2.97 106.86 3.44833 107.28 3.915C107.7 4.35833 107.98 4.67333 108.12 4.86L106.37 7.345V26H103.71V11.09L93.1404 26ZM120.495 26C119.725 25.79 118.803 25.3817 117.73 24.775C116.68 24.145 115.653 23.3167 114.65 22.29C113.646 21.24 112.806 19.98 112.13 18.51C111.476 17.04 111.15 15.3483 111.15 13.435C111.15 12.0583 111.325 10.7983 111.675 9.655C112.048 8.51167 112.515 7.485 113.075 6.575C113.635 5.665 114.218 4.88333 114.825 4.23C115.431 3.57667 115.98 3.06333 116.47 2.69C116.983 2.29333 117.345 2.03667 117.555 1.92L118.92 4.51C118.71 4.60333 118.348 4.87167 117.835 5.315C117.345 5.75833 116.82 6.365 116.26 7.135C115.7 7.905 115.221 8.815 114.825 9.865C114.428 10.915 114.23 12.105 114.23 13.435C114.23 14.7883 114.428 16.0017 114.825 17.075C115.245 18.125 115.781 19.0467 116.435 19.84C117.088 20.6333 117.765 21.2983 118.465 21.835C119.188 22.3483 119.865 22.7333 120.495 22.99V1.01H123.505C124.275 1.22 125.185 1.64 126.235 2.27C127.308 2.87667 128.346 3.705 129.35 4.755C130.353 5.78167 131.181 7.03 131.835 8.5C132.511 9.94667 132.85 11.6383 132.85 13.575C132.85 14.9517 132.663 16.2117 132.29 17.355C131.94 18.4983 131.485 19.525 130.925 20.435C130.365 21.345 129.781 22.1267 129.175 22.78C128.568 23.4333 128.008 23.9583 127.495 24.355C127.005 24.7283 126.655 24.9733 126.445 25.09L125.08 22.5C125.29 22.3833 125.64 22.115 126.13 21.695C126.643 21.2517 127.18 20.645 127.74 19.875C128.3 19.105 128.778 18.195 129.175 17.145C129.571 16.095 129.77 14.905 129.77 13.575C129.77 12.245 129.56 11.0433 129.14 9.97C128.743 8.89667 128.218 7.975 127.565 7.205C126.911 6.41167 126.223 5.75833 125.5 5.245C124.776 4.70833 124.111 4.31166 123.505 4.055V26H120.495ZM137.882 26L135.607 24.355L149.292 5.07C149.222 4.97666 149 4.79 148.627 4.51C148.253 4.20667 147.752 3.92667 147.122 3.67C146.492 3.39 145.745 3.25 144.882 3.25C144.042 3.25 143.26 3.43667 142.537 3.81C141.837 4.16 141.218 4.58 140.682 5.07C140.145 5.53667 139.725 5.96833 139.422 6.365C139.118 6.73833 138.943 6.94833 138.897 6.995L136.937 5.105C137.123 4.895 137.427 4.545 137.847 4.055C138.29 3.565 138.838 3.06333 139.492 2.55C140.168 2.01333 140.95 1.55833 141.837 1.185C142.747 0.811666 143.762 0.624999 144.882 0.624999C146.048 0.624999 147.087 0.811666 147.997 1.185C148.93 1.535 149.723 1.96667 150.377 2.48C151.053 2.97 151.602 3.44833 152.022 3.915C152.442 4.35833 152.722 4.67333 152.862 4.86L151.112 7.345V26H148.452V11.09L137.882 26ZM169.296 26.35C168.036 26.35 166.986 26.0583 166.146 25.475C165.306 24.8683 164.652 24.11 164.186 23.2C163.719 22.2667 163.381 21.275 163.171 20.225C162.984 19.175 162.891 18.195 162.891 17.285C162.891 15.2783 163.124 13.645 163.591 12.385C164.057 11.125 164.664 10.2033 165.411 9.62C166.181 9.01333 167.009 8.71 167.896 8.71C168.806 8.71 169.611 8.86167 170.311 9.165C171.011 9.445 171.547 9.71333 171.921 9.97C171.827 8.99 171.547 8.09167 171.081 7.275C170.637 6.435 170.089 5.72333 169.436 5.14C168.782 4.53333 168.094 4.06667 167.371 3.74C166.647 3.41333 165.971 3.25 165.341 3.25C164.127 3.25 163.031 3.69333 162.051 4.58C161.094 5.46667 160.336 6.66833 159.776 8.185C159.239 9.70167 158.971 11.4167 158.971 13.33C158.971 14.8933 159.111 16.3633 159.391 17.74C159.671 19.0933 160.009 20.3183 160.406 21.415C160.802 22.4883 161.187 23.4217 161.561 24.215C161.957 24.985 162.261 25.58 162.471 26H159.076C158.772 25.2767 158.364 24.3433 157.851 23.2C157.361 22.0567 156.906 20.6683 156.486 19.035C156.089 17.3783 155.891 15.4767 155.891 13.33C155.891 11.6033 156.101 9.98167 156.521 8.465C156.964 6.925 157.594 5.57167 158.411 4.405C159.251 3.215 160.242 2.29333 161.386 1.64C162.552 0.963332 163.871 0.624999 165.341 0.624999C167.184 0.624999 168.852 1.15 170.346 2.2C171.862 3.25 173.076 4.83667 173.986 6.96C174.896 9.06 175.351 11.7083 175.351 14.905C175.117 14.6717 174.779 14.3683 174.336 13.995C173.892 13.5983 173.391 13.2017 172.831 12.805C172.271 12.385 171.687 12.035 171.081 11.755C170.497 11.475 169.926 11.335 169.366 11.335C168.596 11.335 167.931 11.4983 167.371 11.825C166.834 12.1517 166.426 12.7467 166.146 13.61C165.866 14.45 165.726 15.675 165.726 17.285C165.726 19.245 166.041 20.8083 166.671 21.975C167.324 23.1417 168.199 23.725 169.296 23.725C170.252 23.725 171.057 23.2933 171.711 22.43C172.364 21.5667 172.691 20.505 172.691 19.245H175.386C175.339 20.3417 175.094 21.4383 174.651 22.535C174.207 23.6317 173.542 24.5417 172.656 25.265C171.792 25.9883 170.672 26.35 169.296 26.35ZM185.125 26.35C184.005 26.35 182.967 26.105 182.01 25.615C181.077 25.125 180.319 24.495 179.735 23.725C179.175 22.9317 178.895 22.1033 178.895 21.24L188.695 6.505C188.112 5.54833 187.435 4.76667 186.665 4.16C185.895 3.55333 185.102 3.25 184.285 3.25C183.795 3.25 183.41 3.33167 183.13 3.495C182.85 3.65833 182.687 3.76333 182.64 3.81L184.075 7.52C184.285 8.03333 184.39 8.535 184.39 9.025C184.39 9.67833 184.18 10.25 183.76 10.74C183.364 11.2067 182.722 11.44 181.835 11.44H179.315L178.755 8.745H181.695L179.315 2.62C179.432 2.52666 179.7 2.32833 180.12 2.025C180.54 1.69833 181.1 1.38333 181.8 1.08C182.524 0.776666 183.364 0.624999 184.32 0.624999C185.487 0.624999 186.572 0.939999 187.575 1.57C188.602 2.2 189.512 3.02833 190.305 4.055L192.58 0.624999C193.817 1.23166 194.879 2.025 195.765 3.005C196.652 3.985 197.375 5.08167 197.935 6.295C198.495 7.50833 198.904 8.75667 199.16 10.04C199.44 11.3233 199.58 12.56 199.58 13.75C199.58 15.5467 199.417 17.1683 199.09 18.615C198.764 20.0617 198.379 21.31 197.935 22.36C197.492 23.41 197.072 24.25 196.675 24.88C196.279 25.4867 196.01 25.86 195.87 26H192.475C192.662 25.79 192.965 25.3583 193.385 24.705C193.805 24.0283 194.26 23.165 194.75 22.115C195.24 21.0417 195.649 19.805 195.975 18.405C196.325 16.9817 196.5 15.43 196.5 13.75C196.5 12.5133 196.337 11.3117 196.01 10.145C195.707 8.955 195.31 7.88167 194.82 6.925C194.33 5.96833 193.805 5.21 193.245 4.65L191.915 6.645C192.009 6.80833 192.195 7.22833 192.475 7.905C192.779 8.55833 193.059 9.39833 193.315 10.425C193.595 11.4283 193.735 12.5367 193.735 13.75C193.735 16.1767 193.467 18.2067 192.93 19.84C192.394 21.45 191.694 22.7333 190.83 23.69C189.967 24.6467 189.034 25.335 188.03 25.755C187.027 26.1517 186.059 26.35 185.125 26.35ZM185.125 23.725C186.082 23.725 186.887 23.4917 187.54 23.025C188.217 22.535 188.765 21.905 189.185 21.135C189.605 20.365 189.932 19.5367 190.165 18.65C190.399 17.74 190.562 16.865 190.655 16.025C190.749 15.1617 190.795 14.4033 190.795 13.75C190.795 12.5833 190.679 11.615 190.445 10.845C190.235 10.075 190.107 9.60833 190.06 9.445L181.835 21.73C181.905 21.94 182.092 22.2083 182.395 22.535C182.722 22.8383 183.119 23.1183 183.585 23.375C184.075 23.6083 184.589 23.725 185.125 23.725Z" fill="#535353"/>
</svg>
